<svg width="177" height="131" viewBox="0 0 177 131" fill="none" xmlns="http://www.w3.org/2000/svg">
<path d="M18.8682 46.599C15.3741 46.599 12.3958 45.9834 9.93328 44.7521C7.50403 43.4876 5.6405 41.5408 4.34269 38.9119C3.04487 36.283 2.39597 32.9387 2.39597 28.8788C2.39597 22.8889 3.84353 18.4464 6.73866 15.5513C9.66706 12.6229 13.7269 11.1587 18.9182 11.1587C21.78 11.1587 24.3424 11.6412 26.6052 12.6062C28.9013 13.5713 30.6983 15.0188 31.9961 16.9489C33.3272 18.8457 33.9928 21.275 33.9928 24.2366H28.3024C28.3024 22.4064 27.9197 20.8756 27.1543 19.6444C26.3889 18.4131 25.2908 17.4813 23.8598 16.8491C22.4622 16.2168 20.8316 15.9007 18.9681 15.9007C16.6387 15.9007 14.6587 16.3666 13.0281 17.2983C11.4308 18.1968 10.2161 19.5612 9.3842 21.3914C8.58555 23.2217 8.18622 25.5511 8.18622 28.3797V29.4778C8.18622 32.3064 8.58555 34.6358 9.3842 36.466C10.2161 38.2963 11.4308 39.6607 13.0281 40.5592C14.6254 41.4244 16.6054 41.857 18.9681 41.857C20.8982 41.857 22.5787 41.5575 24.0096 40.9585C25.4405 40.3262 26.5387 39.3945 27.304 38.1632C28.1027 36.9319 28.502 35.4012 28.502 33.5709H33.9928C33.9928 36.5326 33.3272 38.9785 31.9961 40.9086C30.6983 42.8387 28.9013 44.2696 26.6052 45.2013C24.3424 46.1331 21.7634 46.599 18.8682 46.599ZM36.4691 46L49.8965 11.7576H57.0345L70.5118 46H64.5218L61.477 38.0634H45.2543L42.2094 46H36.4691ZM47.0513 33.3213H59.6301L55.7866 23.2882C55.6867 22.9887 55.537 22.5728 55.3373 22.0403C55.1376 21.5079 54.9213 20.9255 54.6884 20.2933C54.4887 19.661 54.2724 19.0287 54.0395 18.3965C53.8398 17.7309 53.6568 17.1319 53.4904 16.5995H53.1909C52.9913 17.2318 52.7417 17.9805 52.4422 18.8457C52.1427 19.7109 51.8432 20.5429 51.5437 21.3415C51.2775 22.1402 51.0445 22.7891 50.8449 23.2882L47.0513 33.3213ZM87.5986 46.599C85.7351 46.599 83.9381 46.3993 82.2077 46C80.4773 45.6339 78.9465 45.035 77.6154 44.203C76.2843 43.3378 75.2361 42.2563 74.4707 40.9585C73.7053 39.6274 73.3227 38.0467 73.3227 36.2165C73.3227 36.0168 73.3227 35.8338 73.3227 35.6674C73.3559 35.4677 73.3726 35.3013 73.3726 35.1682H78.9632C78.9632 35.2681 78.9465 35.4178 78.9132 35.6175C78.9132 35.8171 78.9132 35.9835 78.9132 36.1166C78.9132 37.3479 79.2793 38.3961 80.0114 39.2613C80.7435 40.1266 81.7585 40.7755 83.0563 41.2081C84.3874 41.6407 85.9015 41.857 87.5986 41.857C88.5304 41.857 89.4289 41.8071 90.2941 41.7072C91.1593 41.5741 91.9413 41.3911 92.6401 41.1582C93.3722 40.8919 94.0045 40.5758 94.5369 40.2097C95.0694 39.8104 95.4853 39.3445 95.7848 38.8121C96.0843 38.2797 96.2341 37.664 96.2341 36.9652C96.2341 35.9003 95.9179 35.0185 95.2857 34.3197C94.6867 33.6208 93.8548 33.0385 92.7899 32.5726C91.7583 32.1067 90.5769 31.6908 89.2458 31.3247C87.948 30.9587 86.6003 30.5926 85.2027 30.2266C83.805 29.8605 82.4406 29.4279 81.1095 28.9287C79.8117 28.4296 78.6304 27.8306 77.5655 27.1318C76.5339 26.3997 75.702 25.5012 75.0697 24.4363C74.4707 23.3382 74.1712 22.0071 74.1712 20.443C74.1712 18.9455 74.4874 17.6145 75.1196 16.4497C75.7519 15.285 76.667 14.32 77.865 13.5546C79.063 12.756 80.4939 12.157 82.1578 11.7576C83.8216 11.3583 85.7018 11.1587 87.7983 11.1587C89.5953 11.1587 91.2924 11.3583 92.8897 11.7576C94.487 12.1237 95.8847 12.706 97.0827 13.5047C98.2806 14.3034 99.2124 15.3183 99.8779 16.5496C100.577 17.7808 100.926 19.245 100.926 20.9422V21.5412H95.3855V20.8923C95.3855 19.8274 95.0694 18.9289 94.4371 18.1968C93.8048 17.4647 92.923 16.899 91.7916 16.4997C90.6601 16.1003 89.3457 15.9007 87.8482 15.9007C86.0845 15.9007 84.6037 16.0837 83.4057 16.4497C82.2077 16.7825 81.2926 17.265 80.6603 17.8973C80.0613 18.4963 79.7618 19.2284 79.7618 20.0936C79.7618 21.0587 80.0779 21.8573 80.7102 22.4896C81.3425 23.0886 82.1744 23.6044 83.206 24.037C84.2709 24.4696 85.4522 24.8689 86.75 25.235C88.0811 25.5677 89.4289 25.9338 90.7932 26.3331C92.1909 26.6992 93.5386 27.1318 94.8364 27.6309C96.1675 28.1301 97.3489 28.7457 98.3805 29.4778C99.4453 30.2099 100.294 31.125 100.926 32.2232C101.558 33.2881 101.875 34.6025 101.875 36.1666C101.875 38.6291 101.259 40.6424 100.028 42.2064C98.7964 43.7371 97.0993 44.8519 94.9363 45.5508C92.8065 46.2496 90.3606 46.599 87.5986 46.599ZM123.884 46.599C120.356 46.599 117.295 45.9501 114.699 44.6523C112.137 43.3545 110.157 41.3911 108.759 38.7622C107.395 36.1333 106.713 32.8388 106.713 28.8788C106.713 24.8855 107.395 21.5911 108.759 18.9955C110.157 16.3666 112.137 14.4032 114.699 13.1054C117.295 11.8076 120.356 11.1587 123.884 11.1587C127.478 11.1587 130.556 11.8076 133.118 13.1054C135.68 14.4032 137.644 16.3666 139.008 18.9955C140.406 21.5911 141.105 24.8855 141.105 28.8788C141.105 32.8388 140.406 36.1333 139.008 38.7622C137.644 41.3911 135.68 43.3545 133.118 44.6523C130.556 45.9501 127.478 46.599 123.884 46.599ZM123.884 41.857C125.714 41.857 127.328 41.6074 128.725 41.1082C130.156 40.6091 131.354 39.8437 132.319 38.8121C133.318 37.7805 134.066 36.4827 134.566 34.9187C135.098 33.3546 135.364 31.541 135.364 29.4778V28.3797C135.364 26.2499 135.098 24.403 134.566 22.839C134.066 21.275 133.318 19.9771 132.319 18.9455C131.354 17.9139 130.156 17.1486 128.725 16.6494C127.328 16.1503 125.714 15.9007 123.884 15.9007C122.087 15.9007 120.473 16.1503 119.042 16.6494C117.644 17.1486 116.446 17.9139 115.448 18.9455C114.483 19.9771 113.751 21.275 113.252 22.839C112.752 24.403 112.503 26.2499 112.503 28.3797V29.4778C112.503 31.541 112.752 33.3546 113.252 34.9187C113.751 36.4827 114.483 37.7805 115.448 38.8121C116.446 39.8437 117.644 40.6091 119.042 41.1082C120.473 41.6074 122.087 41.857 123.884 41.857ZM160.23 46.599C158.367 46.599 156.57 46.3993 154.839 46C153.109 45.6339 151.578 45.035 150.247 44.203C148.916 43.3378 147.868 42.2563 147.102 40.9585C146.337 39.6274 145.954 38.0467 145.954 36.2165C145.954 36.0168 145.954 35.8338 145.954 35.6674C145.988 35.4677 146.004 35.3013 146.004 35.1682H151.595C151.595 35.2681 151.578 35.4178 151.545 35.6175C151.545 35.8171 151.545 35.9835 151.545 36.1166C151.545 37.3479 151.911 38.3961 152.643 39.2613C153.375 40.1266 154.39 40.7755 155.688 41.2081C157.019 41.6407 158.533 41.857 160.23 41.857C161.162 41.857 162.061 41.8071 162.926 41.7072C163.791 41.5741 164.573 41.3911 165.272 41.1582C166.004 40.8919 166.636 40.5758 167.169 40.2097C167.701 39.8104 168.117 39.3445 168.416 38.8121C168.716 38.2797 168.866 37.664 168.866 36.9652C168.866 35.9003 168.55 35.0185 167.917 34.3197C167.318 33.6208 166.486 33.0385 165.422 32.5726C164.39 32.1067 163.209 31.6908 161.877 31.3247C160.58 30.9587 159.232 30.5926 157.834 30.2266C156.437 29.8605 155.072 29.4279 153.741 28.9287C152.443 28.4296 151.262 27.8306 150.197 27.1318C149.166 26.3997 148.334 25.5012 147.701 24.4363C147.102 23.3382 146.803 22.0071 146.803 20.443C146.803 18.9455 147.119 17.6145 147.751 16.4497C148.384 15.285 149.299 14.32 150.497 13.5546C151.695 12.756 153.126 12.157 154.789 11.7576C156.453 11.3583 158.333 11.1587 160.43 11.1587C162.227 11.1587 163.924 11.3583 165.521 11.7576C167.119 12.1237 168.516 12.706 169.714 13.5047C170.912 14.3034 171.844 15.3183 172.51 16.5496C173.208 17.7808 173.558 19.245 173.558 20.9422V21.5412H168.017V20.8923C168.017 19.8274 167.701 18.9289 167.069 18.1968C166.436 17.4647 165.555 16.899 164.423 16.4997C163.292 16.1003 161.977 15.9007 160.48 15.9007C158.716 15.9007 157.235 16.0837 156.037 16.4497C154.839 16.7825 153.924 17.265 153.292 17.8973C152.693 18.4963 152.393 19.2284 152.393 20.0936C152.393 21.0587 152.71 21.8573 153.342 22.4896C153.974 23.0886 154.806 23.6044 155.838 24.037C156.903 24.4696 158.084 24.8689 159.382 25.235C160.713 25.5677 162.061 25.9338 163.425 26.3331C164.823 26.6992 166.17 27.1318 167.468 27.6309C168.799 28.1301 169.981 28.7457 171.012 29.4778C172.077 30.2099 172.926 31.125 173.558 32.2232C174.19 33.2881 174.506 34.6025 174.506 36.1666C174.506 38.6291 173.891 40.6424 172.659 42.2064C171.428 43.7371 169.731 44.8519 167.568 45.5508C165.438 46.2496 162.992 46.599 160.23 46.599Z" fill="white"/>
<rect x="1.38655" y="59.6219" width="174.013" height="53.3824" rx="26.6912" stroke="#6DF152" stroke-width="2.77311"/>
<path d="M28.1272 104.657C25.4383 104.657 23.3329 103.718 21.8109 101.841C20.3396 99.9133 19.6039 97.3766 19.6039 94.2311C19.6039 91.1363 20.0605 88.1684 20.9737 85.3273C21.887 82.4355 22.927 80.0764 24.0939 78.25C25.8695 75.4596 27.9243 73.2273 30.258 71.5531C32.6425 69.8789 35.0523 69.0418 37.4876 69.0418C39.0603 69.0418 40.4809 69.5999 41.7492 70.716C43.0175 71.7814 43.9307 73.4556 44.4888 75.7387L44.7932 75.8909L46.4674 69.955H51.4901L45.0215 93.9267C44.3112 96.7678 43.9561 98.7971 43.9561 100.015C43.9561 100.725 44.0576 101.258 44.2605 101.613C44.4634 101.917 44.8186 102.069 45.3259 102.069C46.6957 102.069 48.1163 100.953 49.5875 98.721C51.0588 96.438 52.4033 93.4954 53.6209 89.8934L55.1429 90.35C53.8238 94.2565 52.2003 97.6302 50.2725 100.471C48.3953 103.262 46.2899 104.657 43.9561 104.657C41.0136 104.657 39.5423 102.069 39.5423 96.8946C39.5423 96.2351 39.5423 95.7531 39.5423 95.4487C39.593 95.0936 39.6184 94.8906 39.6184 94.8399L39.3901 94.6877C38.3247 96.9707 36.7519 99.203 34.6718 101.385C32.6425 103.566 30.4609 104.657 28.1272 104.657ZM28.5838 102.83C30.4609 102.83 32.262 101.892 33.9869 100.015C35.7119 98.0868 37.31 95.5248 38.7813 92.3286C39.7959 90.0456 40.6838 87.5089 41.4448 84.7185C42.2058 81.9282 42.5863 79.6451 42.5863 77.8695C42.5863 75.6372 42.1297 73.9122 41.2165 72.6946C40.3033 71.477 39.0603 70.8682 37.4876 70.8682C35.9148 70.8682 34.4182 71.7307 32.9976 73.4556C31.5771 75.1806 30.3595 77.1592 29.3448 79.3915C28.0765 82.2326 27.0364 85.2512 26.2247 88.4474C25.4637 91.6437 25.0832 94.5862 25.0832 97.2751C25.0832 98.7971 25.3368 100.116 25.8442 101.232C26.4023 102.298 27.3155 102.83 28.5838 102.83ZM64.8178 122.617C62.1289 122.617 59.9727 121.957 58.3492 120.638C56.7257 119.319 55.914 117.492 55.914 115.159C55.914 113.738 56.3452 112.622 57.2077 111.81C58.0194 110.999 58.958 110.593 60.0234 110.593C60.9874 110.593 61.723 110.897 62.2303 111.506C62.7884 112.165 63.0674 112.876 63.0674 113.637C63.0674 114.905 62.5855 115.92 61.6215 116.681C61.3679 116.934 61.1903 117.163 61.0888 117.366C60.9874 117.569 60.9366 117.898 60.9366 118.355C60.9366 119.978 62.0274 120.79 64.209 120.79C65.9339 120.79 67.4305 120.46 68.6989 119.801C70.018 119.192 71.2863 118.076 72.5039 116.452C73.7723 114.778 74.7869 112.977 75.5479 111.049C76.3597 109.172 77.0446 107.143 77.6026 104.961C77.9071 103.997 78.3637 102.399 78.9725 100.167C79.632 97.8839 80.114 96.1082 80.4184 94.8399L80.1901 94.6877C79.1247 96.9707 77.5519 99.203 75.4718 101.385C73.4425 103.566 71.2609 104.657 68.9272 104.657C66.2383 104.657 64.1329 103.718 62.6108 101.841C61.1396 99.9133 60.4039 97.3766 60.4039 94.2311C60.4039 91.1871 60.962 88.1938 62.0781 85.2512C63.245 82.2579 64.488 79.7212 65.8071 77.6412C67.4813 74.9523 69.4599 72.8468 71.7429 71.3248C74.0767 69.8028 76.4104 69.0418 78.7442 69.0418C80.2662 69.0418 81.636 69.6252 82.8536 70.7921C84.0712 71.959 84.8829 73.6078 85.2888 75.7387L85.5932 75.8909L87.2674 69.955H92.2901L82.9297 104.276C82.2702 106.661 81.2301 109.172 79.8096 111.81C78.389 114.499 76.7655 116.681 74.9391 118.355C73.3664 119.826 71.6668 120.892 69.8404 121.551C68.0647 122.261 66.3905 122.617 64.8178 122.617ZM69.3838 102.83C71.2609 102.83 73.062 101.892 74.7869 100.015C76.5119 98.0868 78.11 95.5248 79.5813 92.3286C80.5959 90.0456 81.4838 87.5089 82.2448 84.7185C83.0058 81.9282 83.3863 79.6451 83.3863 77.8695C83.3863 75.6372 82.9297 73.9122 82.0165 72.6946C81.1033 71.477 79.8603 70.8682 78.2876 70.8682C76.7148 70.8682 75.2182 71.7307 73.7976 73.4556C72.3771 75.1806 71.1595 77.1592 70.1448 79.3915C68.8765 82.2326 67.8364 85.2512 67.0247 88.4474C66.2637 91.6437 65.8832 94.5862 65.8832 97.2751C65.8832 98.7971 66.1368 100.116 66.6442 101.232C67.2022 102.298 68.1155 102.83 69.3838 102.83ZM106.557 80.1525C107.318 77.1085 107.698 74.9523 107.698 73.6839C107.698 72.9737 107.597 72.4663 107.394 72.1619C107.191 71.8068 106.81 71.6292 106.252 71.6292C104.832 71.6292 103.386 72.8468 101.914 75.2821C100.443 77.6665 99.1494 80.5076 98.0333 83.8053L96.5113 83.3487C99.8597 73.8108 103.589 69.0418 107.698 69.0418C110.641 69.0418 112.112 71.6292 112.112 76.8041C112.112 77.4636 112.036 78.25 111.884 79.1632C111.731 80.0257 111.579 80.7106 111.427 81.2179L111.96 81.3701C113.685 77.768 115.41 74.8254 117.135 72.5424C118.859 70.2087 120.686 69.0418 122.614 69.0418C124.288 69.0418 125.556 69.5745 126.419 70.6399C127.281 71.6546 127.712 72.8722 127.712 74.2927C127.712 75.6118 127.281 76.8041 126.419 77.8695C125.556 78.8841 124.415 79.3915 122.994 79.3915C122.132 79.3915 121.421 79.0871 120.863 78.4783C120.305 77.8695 120.026 77.1085 120.026 76.1953C120.026 75.2821 120.331 74.4703 120.94 73.76C121.447 73.2527 121.701 72.8722 121.701 72.6185C121.701 72.3141 121.624 72.0858 121.472 71.9336C121.371 71.7814 121.117 71.7053 120.711 71.7053C119.544 71.7053 118.022 73.3034 116.145 76.4997C114.319 79.6451 112.518 83.3994 110.742 87.7625C108.966 92.0749 107.597 95.8292 106.633 99.0254L105.187 103.744H100.164L106.557 80.1525ZM140.626 104.657C138.901 104.657 137.252 104.175 135.679 103.211C134.157 102.196 132.889 100.674 131.874 98.6449C130.91 96.6156 130.428 94.155 130.428 91.2632C130.428 87.7118 131.265 84.2112 132.94 80.7613C134.665 77.3114 136.948 74.4957 139.789 72.3141C142.63 70.1326 145.648 69.0418 148.845 69.0418C150.57 69.0418 152.193 69.5491 153.715 70.5638C155.237 71.5278 156.48 73.0244 157.444 75.0538C158.408 77.0831 158.89 79.5437 158.89 82.4355C158.89 85.9869 158.053 89.4875 156.379 92.9374C154.704 96.3873 152.447 99.203 149.606 101.385C146.815 103.566 143.822 104.657 140.626 104.657ZM140.93 102.83C142.96 102.83 144.659 102.019 146.029 100.395C147.399 98.7718 148.667 96.5902 149.834 93.8506C150.899 91.3646 151.762 88.6757 152.421 85.7839C153.081 82.8921 153.411 80.254 153.411 77.8695C153.411 75.7894 153.005 74.1152 152.193 72.8468C151.381 71.5278 150.164 70.8682 148.54 70.8682C146.511 70.8682 144.786 71.7053 143.365 73.3795C141.945 75.003 140.651 77.1592 139.484 79.8481C138.419 82.334 137.556 85.0229 136.897 87.9147C136.237 90.8066 135.908 93.4447 135.908 95.8292C135.908 97.9093 136.339 99.6089 137.201 100.928C138.064 102.196 139.307 102.83 140.93 102.83Z" fill="white"/>
</svg>
