<svg width="220" height="50" viewBox="0 0 220 50" fill="none" xmlns="http://www.w3.org/2000/svg">
<g clip-path="url(#clip0_980_882)">
<g filter="url(#filter0_f_980_882)">
<path d="M24.3614 24.6287C25.4979 24.501 26.4629 24.501 27.3636 24.2671C34.8693 22.2891 42.5465 22.2041 50.2236 22.2891C61.9753 22.4167 73.727 22.8634 85.4787 22.9272C103.964 23.0123 122.449 22.9272 140.913 22.8208C147.625 22.7783 154.338 22.1615 161.05 22.2891C173.874 22.5231 186.676 23.0973 199.479 23.544C202.803 23.6503 206.019 24.0119 208.014 27.7976C209.322 26.713 210.308 25.8835 211.702 24.7137C210.158 23.6929 209.129 22.9485 208.035 22.2891C204.154 19.9284 200.186 17.6952 196.369 15.228C194.589 14.0796 193.002 12.5695 191.458 11.0807C190.643 10.2938 190.365 9.2091 191.265 8.18822C192.102 7.23114 193.11 7.18861 194.203 7.72031C194.847 8.03934 195.511 8.3371 196.133 8.69866C202.567 12.4206 208.979 16.1426 215.412 19.8433C215.819 20.0772 216.248 20.2899 216.656 20.5664C219.937 22.7783 220.366 25.4369 217.599 28.3081C215.283 30.7114 212.689 32.8595 210.158 35.0289C205.44 39.0699 200.68 43.0683 195.854 47.003C194.761 47.8962 193.431 48.6194 192.08 48.9597C191.222 49.1723 189.807 48.7895 189.271 48.1515C188.735 47.5134 188.606 46.0459 188.992 45.259C189.593 44.0254 190.643 42.9194 191.694 41.9836C195.082 38.9635 198.599 36.071 202.031 33.0935C202.888 32.3491 203.617 31.4558 204.99 30.0521C203.189 29.7756 202.202 29.5204 201.194 29.4991C188.606 29.2226 176.018 28.7973 163.43 28.7547C131.285 28.6484 99.1175 28.7547 66.9719 28.6696C57.2575 28.6484 47.5645 28.0529 37.8501 28.0741C34.3117 28.0741 30.7519 29.0312 27.235 29.6693C25.455 29.9883 24.4257 30.9879 24.1898 33.0509C23.9325 35.3904 23.2248 37.7087 22.3885 39.9206C21.8523 41.3243 20.8873 42.643 19.858 43.7702C17.8422 45.9608 15.4189 46.4713 13.4031 45.3866C11.3659 44.3019 10.1435 41.4732 10.744 38.8785C11.6018 35.1565 13.5747 32.0088 16.4054 29.5416C18.5284 27.6913 19.0216 25.7559 17.8851 22.8634C16.8343 23.1399 15.8478 23.3526 14.9043 23.6716C11.7305 24.735 8.57808 25.9048 5.36138 26.8406C4.13903 27.2021 2.76658 27.2447 1.45845 27.1809C0.922333 27.1383 0.0645458 26.4577 0.000211792 25.9898C-0.0641222 25.5007 0.557773 24.6925 1.09389 24.4372C2.38057 23.8205 3.81736 23.5014 5.14693 22.991C8.27786 21.7787 11.3873 20.5451 14.4754 19.2478C16.2982 18.4821 16.8772 17.1422 16.3196 15.1855C15.7835 13.3564 15.2045 11.4848 15.1402 9.6132C15.0544 7.65651 15.183 5.52967 15.8907 3.74313C17.0058 0.956977 19.5792 -0.297856 22.2169 0.063706C24.5758 0.404 26.7417 2.67971 27.1706 5.52967C27.7067 9.16656 27.5137 12.8247 24.9404 15.6747C22.2383 18.6522 23.139 21.4384 24.3828 24.6499L24.3614 24.6287ZM21.5736 12.4419C23.2248 10.1662 23.8252 8.08188 22.753 5.69982C22.5386 5.23192 21.9167 4.5726 21.595 4.61513C21.016 4.70021 20.2225 5.16811 20.0295 5.67855C19.1289 8.03934 19.7508 10.1662 21.5521 12.4419H21.5736Z" fill="#1641F2"/>
</g>
<path d="M24.3614 24.6287C25.4979 24.501 26.4629 24.501 27.3636 24.2671C34.8693 22.2891 42.5465 22.2041 50.2236 22.2891C61.9753 22.4167 73.727 22.8634 85.4787 22.9272C103.964 23.0123 122.449 22.9272 140.913 22.8208C147.625 22.7783 154.338 22.1615 161.05 22.2891C173.874 22.5231 186.676 23.0973 199.479 23.544C202.803 23.6503 206.019 24.0119 208.014 27.7976C209.322 26.713 210.308 25.8835 211.702 24.7137C210.158 23.6929 209.129 22.9485 208.035 22.2891C204.154 19.9284 200.186 17.6952 196.369 15.228C194.589 14.0796 193.002 12.5695 191.458 11.0807C190.643 10.2938 190.365 9.2091 191.265 8.18822C192.102 7.23114 193.11 7.18861 194.203 7.72031C194.847 8.03934 195.511 8.3371 196.133 8.69866C202.567 12.4206 208.979 16.1426 215.412 19.8433C215.819 20.0772 216.248 20.2899 216.656 20.5664C219.937 22.7783 220.366 25.4369 217.599 28.3081C215.283 30.7114 212.689 32.8595 210.158 35.0289C205.44 39.0699 200.68 43.0683 195.854 47.003C194.761 47.8962 193.431 48.6194 192.08 48.9597C191.222 49.1723 189.807 48.7895 189.271 48.1515C188.735 47.5134 188.606 46.0459 188.992 45.259C189.593 44.0254 190.643 42.9194 191.694 41.9836C195.082 38.9635 198.599 36.071 202.031 33.0935C202.888 32.3491 203.617 31.4558 204.99 30.0521C203.189 29.7756 202.202 29.5204 201.194 29.4991C188.606 29.2226 176.018 28.7973 163.43 28.7547C131.285 28.6484 99.1175 28.7547 66.9719 28.6696C57.2575 28.6484 47.5645 28.0529 37.8501 28.0741C34.3117 28.0741 30.7519 29.0312 27.235 29.6693C25.455 29.9883 24.4257 30.9879 24.1898 33.0509C23.9325 35.3904 23.2248 37.7087 22.3885 39.9206C21.8523 41.3243 20.8873 42.643 19.858 43.7702C17.8422 45.9608 15.4189 46.4713 13.4031 45.3866C11.3659 44.3019 10.1435 41.4732 10.744 38.8785C11.6018 35.1565 13.5747 32.0088 16.4054 29.5416C18.5284 27.6913 19.0216 25.7559 17.8851 22.8634C16.8343 23.1399 15.8478 23.3526 14.9043 23.6716C11.7305 24.735 8.57808 25.9048 5.36138 26.8406C4.13903 27.2021 2.76658 27.2447 1.45845 27.1809C0.922333 27.1383 0.0645458 26.4577 0.000211792 25.9898C-0.0641222 25.5007 0.557773 24.6925 1.09389 24.4372C2.38057 23.8205 3.81736 23.5014 5.14693 22.991C8.27786 21.7787 11.3873 20.5451 14.4754 19.2478C16.2982 18.4821 16.8772 17.1422 16.3196 15.1855C15.7835 13.3564 15.2045 11.4848 15.1402 9.6132C15.0544 7.65651 15.183 5.52967 15.8907 3.74313C17.0058 0.956977 19.5792 -0.297856 22.2169 0.063706C24.5758 0.404 26.7417 2.67971 27.1706 5.52967C27.7067 9.16656 27.5137 12.8247 24.9404 15.6747C22.2383 18.6522 23.139 21.4384 24.3828 24.6499L24.3614 24.6287ZM21.5736 12.4419C23.2248 10.1662 23.8252 8.08188 22.753 5.69982C22.5386 5.23192 21.9167 4.5726 21.595 4.61513C21.016 4.70021 20.2225 5.16811 20.0295 5.67855C19.1289 8.03934 19.7508 10.1662 21.5521 12.4419H21.5736Z" fill="#1641F2"/>
</g>
<defs>
<filter id="filter0_f_980_882" x="-4.00439" y="-3.99707" width="227.429" height="57.0159" filterUnits="userSpaceOnUse" color-interpolation-filters="sRGB">
<feFlood flood-opacity="0" result="BackgroundImageFix"/>
<feBlend mode="normal" in="SourceGraphic" in2="BackgroundImageFix" result="shape"/>
<feGaussianBlur stdDeviation="2" result="effect1_foregroundBlur_980_882"/>
</filter>
<clipPath id="clip0_980_882">
<rect width="219.401" height="49.0236" fill="white"/>
</clipPath>
</defs>
</svg>
