<svg width="24" height="24" viewBox="0 0 24 24" fill="none" xmlns="http://www.w3.org/2000/svg">
<path d="M24 12C24 5.37244 18.6276 0 12 0C5.37244 0 0 5.37244 0 12C0 17.9893 4.38756 22.9547 10.1244 23.8542V15.4684H7.07733V12H10.1244V9.35645C10.1244 6.34844 11.9164 4.688 14.6578 4.688C15.9716 4.688 17.344 4.92267 17.344 4.92267V7.87556H15.8311C14.3413 7.87556 13.8756 8.8 13.8756 9.74933V12H17.2036L16.672 15.4684H13.8756V23.8542C19.6124 22.9547 24 17.9893 24 12Z" fill="white"/>
<path d="M16.6704 15.4684L17.2019 12H13.8739V9.74932C13.8739 8.79999 14.3379 7.87554 15.8295 7.87554H17.3424V4.92265C17.3424 4.92265 15.9699 4.68799 14.6561 4.68799C11.9148 4.68799 10.1228 6.34843 10.1228 9.35643V12H7.07568V15.4684H10.1228V23.8542C10.7344 23.9502 11.3601 24 11.9984 24C12.6366 24 13.2624 23.9502 13.8739 23.8542V15.4684H16.6704Z" fill="black"/>
</svg>
