<svg width="603" height="595" viewBox="0 0 603 595" fill="none" xmlns="http://www.w3.org/2000/svg">
<g clip-path="url(#clip0_535_345)">
<g filter="url(#filter0_n_535_345)">
<g clip-path="url(#paint0_diamond_535_345_clip_path)" data-figma-skip-parse="true"><g transform="matrix(-0.1525 0.108 -0.0954309 -0.134752 301.5 297.5)"><rect x="0" y="0" width="2244.24" height="2534.05" fill="url(#paint0_diamond_535_345)" opacity="1" shape-rendering="crispEdges"/><rect x="0" y="0" width="2244.24" height="2534.05" transform="scale(1 -1)" fill="url(#paint0_diamond_535_345)" opacity="1" shape-rendering="crispEdges"/><rect x="0" y="0" width="2244.24" height="2534.05" transform="scale(-1 1)" fill="url(#paint0_diamond_535_345)" opacity="1" shape-rendering="crispEdges"/><rect x="0" y="0" width="2244.24" height="2534.05" transform="scale(-1)" fill="url(#paint0_diamond_535_345)" opacity="1" shape-rendering="crispEdges"/></g></g><ellipse cx="301.5" cy="297.5" rx="301.5" ry="297.5" data-figma-gradient-fill="{&#34;type&#34;:&#34;GRADIENT_DIAMOND&#34;,&#34;stops&#34;:[{&#34;color&#34;:{&#34;r&#34;:0.086274512112140656,&#34;g&#34;:0.25490197539329529,&#34;b&#34;:0.94901961088180542,&#34;a&#34;:1.0},&#34;position&#34;:0.0},{&#34;color&#34;:{&#34;r&#34;:0.0,&#34;g&#34;:0.0,&#34;b&#34;:0.0,&#34;a&#34;:0.0},&#34;position&#34;:1.0}],&#34;stopsVar&#34;:[{&#34;color&#34;:{&#34;r&#34;:0.086274512112140656,&#34;g&#34;:0.25490197539329529,&#34;b&#34;:0.94901961088180542,&#34;a&#34;:1.0},&#34;position&#34;:0.0},{&#34;color&#34;:{&#34;r&#34;:0.0,&#34;g&#34;:0.0,&#34;b&#34;:0.0,&#34;a&#34;:0.0},&#34;position&#34;:1.0}],&#34;transform&#34;:{&#34;m00&#34;:-304.99996948242188,&#34;m01&#34;:-190.861816406250,&#34;m02&#34;:549.4309082031250,&#34;m10&#34;:215.99996948242188,&#34;m11&#34;:-269.50393676757812,&#34;m12&#34;:324.25201416015625},&#34;opacity&#34;:1.0,&#34;blendMode&#34;:&#34;NORMAL&#34;,&#34;visible&#34;:true}"/>
</g>
<g clip-path="url(#clip1_535_345)">
<path d="M303.213 459C243.308 459 194.103 412.16 191.17 352.368L191.083 350.699L189.602 349.929C152.23 330.473 129 292.316 129 250.34C129 188.486 179.323 138.147 241.188 138.147C261.616 138.147 281.638 143.723 299.09 154.278L300.629 155.208L302.139 154.249C320.026 142.968 340.658 137 361.812 137C423.677 137 474 187.325 474 249.193C474 289.542 452.091 326.988 416.824 346.924L415.387 347.737L415.343 349.392C414.675 378.765 402.697 406.309 381.63 426.955C360.534 447.631 332.672 459.015 303.213 459.015V459ZM198.793 358.786C204.847 411.884 249.74 451.929 303.213 451.929C356.687 451.929 403.162 409.837 407.895 356.1L408.316 351.367L403.917 353.152C390.487 358.612 376.316 361.385 361.797 361.385C341.369 361.385 321.347 355.81 303.896 345.254L302.357 344.325L300.847 345.283C282.959 356.565 262.328 362.532 241.174 362.532C227.947 362.532 214.996 360.238 202.669 355.722L198.256 354.096L198.793 358.772V358.786ZM245.762 258.834C216.782 277.825 198.981 309.768 198.168 344.281L198.125 346.241L199.925 347.011C213.007 352.615 226.901 355.461 241.203 355.461C259.032 355.461 276.673 350.873 292.222 342.205L296.026 340.085L292.6 337.384C268.803 318.669 253.37 290.806 250.233 260.953L249.74 256.22L245.762 258.834ZM353.013 259.022C350.676 289.368 335.765 317.87 312.084 337.225L308.701 339.983L312.549 342.031C327.649 350.074 344.665 354.314 361.797 354.314C377.405 354.314 392.461 350.946 406.53 344.296L408.287 343.468L408.185 341.522C406.458 306.603 387.467 274.907 357.384 256.743L353.347 254.303L352.984 259.008L353.013 259.022ZM241.188 145.218C183.228 145.218 136.071 192.378 136.071 250.34C136.071 286.9 155.584 321.413 187.003 340.39L191.04 342.829L191.403 338.125C194.263 300.853 215.504 267.56 248.215 249.076L249.653 248.263L249.696 246.608C250.437 213.852 265.464 183.129 290.93 162.308L294.313 159.549L290.466 157.502C275.38 149.458 258.35 145.218 241.217 145.218H241.188ZM361.812 144.071C343.983 144.071 326.342 148.659 310.792 157.327L306.988 159.447L310.415 162.148C336.055 182.316 351.663 212.429 353.246 244.793L353.333 246.463L354.814 247.232C388.454 264.728 410.871 297.557 414.806 335.047L415.3 339.78L419.278 337.166C449.129 317.609 466.944 284.722 466.944 249.193C466.944 191.231 419.786 144.071 361.826 144.071H361.812ZM303.213 241.671C287.605 241.671 272.549 245.04 258.48 251.69L256.723 252.518L256.825 254.463C258.422 286.522 274.379 315.736 300.614 334.597L302.342 335.845L304.041 334.567C330.088 315.068 345.478 285.288 346.247 252.866L346.291 250.906L344.491 250.136C331.409 244.532 317.514 241.686 303.213 241.686V241.671ZM298.945 164.979C274.974 182.911 259.729 210.222 257.115 239.9L256.694 244.633L261.094 242.848C274.524 237.388 288.694 234.615 303.213 234.615C316.44 234.615 329.391 236.909 341.718 241.425L346.131 243.051L345.594 238.375C342.255 209.061 326.487 182.301 302.371 164.965L300.643 163.716L298.945 164.994V164.979Z" fill="white" fill-opacity="0.4"/>
<path d="M303.213 283.72C300.832 283.72 298.901 281.789 298.901 279.408C298.901 277.027 300.832 275.095 303.213 275.095C305.594 275.095 307.525 277.027 307.525 279.408C307.525 281.789 305.594 283.72 303.213 283.72Z" fill="white" fill-opacity="0.4"/>
</g>
</g>
<defs>
<filter id="filter0_n_535_345" x="0" y="0" width="603" height="595" filterUnits="userSpaceOnUse" color-interpolation-filters="sRGB">
<feFlood flood-opacity="0" result="BackgroundImageFix"/>
<feBlend mode="normal" in="SourceGraphic" in2="BackgroundImageFix" result="shape"/>
<feTurbulence type="fractalNoise" baseFrequency="0.66666668653488159 0.66666668653488159" stitchTiles="stitch" numOctaves="3" result="noise" seed="2162" />
<feColorMatrix in="noise" type="luminanceToAlpha" result="alphaNoise" />
<feComponentTransfer in="alphaNoise" result="coloredNoise1">
<feFuncA type="discrete" tableValues="1 1 1 1 1 1 1 1 1 1 1 1 1 1 1 1 1 1 1 1 1 1 1 1 1 1 1 1 1 1 1 1 1 1 1 1 1 1 1 1 1 1 1 1 1 1 1 1 1 1 1 0 0 0 0 0 0 0 0 0 0 0 0 0 0 0 0 0 0 0 0 0 0 0 0 0 0 0 0 0 0 0 0 0 0 0 0 0 0 0 0 0 0 0 0 0 0 0 0 0 "/>
</feComponentTransfer>
<feComposite operator="in" in2="shape" in="coloredNoise1" result="noise1Clipped" />
<feFlood flood-color="rgba(0, 0, 0, 0.25)" result="color1Flood" />
<feComposite operator="in" in2="noise1Clipped" in="color1Flood" result="color1" />
<feMerge result="effect1_noise_535_345">
<feMergeNode in="shape" />
<feMergeNode in="color1" />
</feMerge>
</filter>
<clipPath id="paint0_diamond_535_345_clip_path"><ellipse cx="301.5" cy="297.5" rx="301.5" ry="297.5"/></clipPath><linearGradient id="paint0_diamond_535_345" x1="0" y1="0" x2="500" y2="500" gradientUnits="userSpaceOnUse">
<stop stop-color="#1641F2"/>
<stop offset="1" stop-opacity="0"/>
</linearGradient>
<clipPath id="clip0_535_345">
<rect width="603" height="595" fill="white"/>
</clipPath>
<clipPath id="clip1_535_345">
<rect width="345" height="322" fill="white" transform="translate(129 137)"/>
</clipPath>
</defs>
</svg>
