<svg width="603" height="595" viewBox="0 0 603 595" fill="none" xmlns="http://www.w3.org/2000/svg">
<g clip-path="url(#clip0_535_477)">
<g filter="url(#filter0_n_535_477)">
<g clip-path="url(#paint0_diamond_535_477_clip_path)" data-figma-skip-parse="true"><g transform="matrix(-0.1525 0.108 -0.0954309 -0.134752 301.5 297.5)"><rect x="0" y="0" width="2244.24" height="2534.05" fill="url(#paint0_diamond_535_477)" opacity="1" shape-rendering="crispEdges"/><rect x="0" y="0" width="2244.24" height="2534.05" transform="scale(1 -1)" fill="url(#paint0_diamond_535_477)" opacity="1" shape-rendering="crispEdges"/><rect x="0" y="0" width="2244.24" height="2534.05" transform="scale(-1 1)" fill="url(#paint0_diamond_535_477)" opacity="1" shape-rendering="crispEdges"/><rect x="0" y="0" width="2244.24" height="2534.05" transform="scale(-1)" fill="url(#paint0_diamond_535_477)" opacity="1" shape-rendering="crispEdges"/></g></g><ellipse cx="301.5" cy="297.5" rx="301.5" ry="297.5" data-figma-gradient-fill="{&#34;type&#34;:&#34;GRADIENT_DIAMOND&#34;,&#34;stops&#34;:[{&#34;color&#34;:{&#34;r&#34;:0.086274512112140656,&#34;g&#34;:0.25490197539329529,&#34;b&#34;:0.94901961088180542,&#34;a&#34;:1.0},&#34;position&#34;:0.0},{&#34;color&#34;:{&#34;r&#34;:0.0,&#34;g&#34;:0.0,&#34;b&#34;:0.0,&#34;a&#34;:0.0},&#34;position&#34;:1.0}],&#34;stopsVar&#34;:[{&#34;color&#34;:{&#34;r&#34;:0.086274512112140656,&#34;g&#34;:0.25490197539329529,&#34;b&#34;:0.94901961088180542,&#34;a&#34;:1.0},&#34;position&#34;:0.0},{&#34;color&#34;:{&#34;r&#34;:0.0,&#34;g&#34;:0.0,&#34;b&#34;:0.0,&#34;a&#34;:0.0},&#34;position&#34;:1.0}],&#34;transform&#34;:{&#34;m00&#34;:-304.99996948242188,&#34;m01&#34;:-190.861816406250,&#34;m02&#34;:549.4309082031250,&#34;m10&#34;:215.99996948242188,&#34;m11&#34;:-269.50393676757812,&#34;m12&#34;:324.25201416015625},&#34;opacity&#34;:1.0,&#34;blendMode&#34;:&#34;NORMAL&#34;,&#34;visible&#34;:true}"/>
</g>
<g clip-path="url(#clip1_535_477)">
<path d="M323.961 434.451H212.378C211.411 434.451 210.62 433.689 210.577 432.726C210.128 421.912 207.958 405.594 204.544 403.157C201.18 400.76 194.586 401.033 187.603 401.328C176.581 401.788 164.09 402.309 156.522 393.447C155.828 392.635 154.534 391.122 151.455 359.415C150.204 346.528 149.162 333.764 148.846 329.843C146.959 329.246 143.11 327.956 139.215 326.242C131.247 322.735 127.535 319.486 127.535 316.022C127.535 311.594 131.657 306.711 136.879 300.53C144.774 291.175 154.603 279.535 154.603 264.701C154.603 236.796 165.405 211.159 185.019 192.515C194.341 183.657 205.219 176.721 217.351 171.906C229.645 167.022 242.661 164.549 256.041 164.549C291.575 164.549 318.951 174.504 337.415 194.139C355.718 213.603 364.997 242.316 364.997 279.478C364.997 322.224 345.023 348.72 334.292 362.955C331.159 367.113 328.679 370.397 328.079 372.32C325.136 381.689 325.757 432.122 325.765 432.632C325.772 433.114 325.585 433.577 325.247 433.922C324.909 434.264 324.446 434.458 323.964 434.458L323.961 434.451ZM214.085 430.85H322.139C322.049 421.481 321.826 380.201 324.64 371.238C325.43 368.726 327.939 365.395 331.414 360.784C341.893 346.884 361.396 321.013 361.396 279.474C361.396 206.645 324.963 168.15 256.041 168.15C201.18 168.15 158.207 210.559 158.207 264.697C158.207 280.851 147.473 293.565 139.635 302.851C135.078 308.249 131.14 312.913 131.14 316.022C131.14 316.478 131.6 318.954 140.666 322.947C145.802 325.207 150.998 326.738 151.048 326.752C151.767 326.961 152.277 327.593 152.339 328.341C154.099 350.852 157.546 387.694 159.317 391.179C165.761 398.636 177.282 398.155 187.452 397.731C195.401 397.396 202.265 397.113 206.631 400.228C207.663 400.965 210.807 403.207 212.888 418.445C213.589 423.565 213.934 428.377 214.081 430.85H214.085Z" fill="white" fill-opacity="0.4"/>
<path d="M249.558 315.422C248.771 315.422 248.067 314.908 247.837 314.146L244.336 302.625L232.754 298.783L223.04 305.927C222.365 306.427 221.434 306.387 220.798 305.841L208.091 294.87C207.451 294.32 207.282 293.4 207.681 292.656L213.37 282.044L207.9 271.162L195.966 269.358C195.132 269.233 194.5 268.546 194.439 267.709L193.227 250.991C193.166 250.15 193.695 249.381 194.503 249.137L206.05 245.647L209.891 234.101L202.733 224.412C202.233 223.733 202.269 222.799 202.823 222.163L213.815 209.492C214.365 208.856 215.282 208.687 216.026 209.082L226.67 214.764L237.577 209.308L239.381 197.406C239.507 196.572 240.193 195.94 241.034 195.879L257.791 194.675C258.628 194.61 259.397 195.142 259.642 195.947L263.142 207.468L274.724 211.31L284.438 204.166C285.114 203.666 286.044 203.706 286.68 204.252L299.388 215.223C300.027 215.773 300.196 216.693 299.797 217.437L294.109 228.049L299.578 238.931L311.513 240.735C312.346 240.861 312.979 241.547 313.04 242.384L314.251 259.102C314.312 259.943 313.784 260.712 312.975 260.956L301.429 264.446L297.587 275.992L304.746 285.681C305.245 286.36 305.209 287.294 304.656 287.93L293.663 300.602C293.113 301.238 292.197 301.407 291.453 301.011L280.808 295.33L269.902 300.785L268.098 312.687C267.972 313.521 267.285 314.153 266.445 314.214L249.687 315.418C249.644 315.418 249.601 315.422 249.558 315.422ZM232.434 294.981C232.625 294.981 232.815 295.01 233.002 295.071L246.356 299.498C246.909 299.682 247.341 300.124 247.513 300.684L250.866 311.724L264.752 310.728L266.48 299.329C266.567 298.751 266.933 298.251 267.454 297.989L280.032 291.7C280.553 291.438 281.171 291.448 281.685 291.722L291.88 297.166L300.987 286.669L294.13 277.387C293.781 276.916 293.684 276.305 293.871 275.748L298.302 262.426C298.486 261.873 298.931 261.441 299.492 261.273L310.553 257.93L309.55 244.084L298.119 242.356C297.54 242.269 297.041 241.906 296.779 241.382L290.472 228.833C290.209 228.308 290.217 227.69 290.493 227.172L295.941 217.01L285.415 207.921L276.111 214.764C275.641 215.109 275.033 215.206 274.476 215.022L261.122 210.595C260.569 210.412 260.138 209.97 259.965 209.409L256.612 198.369L242.726 199.365L240.998 210.764C240.912 211.342 240.545 211.842 240.024 212.104L227.446 218.393C226.925 218.655 226.307 218.645 225.793 218.372L215.598 212.927L206.492 223.424L213.348 232.707C213.697 233.177 213.794 233.788 213.607 234.345L209.176 247.667C208.993 248.22 208.547 248.652 207.987 248.821L196.925 252.163L197.928 266.009L209.359 267.738C209.938 267.824 210.437 268.187 210.7 268.708L217.007 281.257C217.269 281.782 217.262 282.4 216.985 282.917L211.537 293.08L222.063 302.172L231.367 295.33C231.68 295.1 232.053 294.981 232.434 294.981ZM253.727 281.145C240.15 281.145 228.643 270.638 227.651 256.921C227.148 249.967 229.387 243.232 233.958 237.964C238.529 232.696 244.883 229.515 251.851 229.016C266.225 227.981 278.782 238.819 279.82 253.172C280.323 260.126 278.084 266.857 273.513 272.129C268.942 277.397 262.589 280.578 255.62 281.077C254.984 281.124 254.352 281.145 253.727 281.145ZM253.745 232.549C253.202 232.549 252.659 232.566 252.109 232.606C246.101 233.037 240.621 235.776 236.678 240.322C232.74 244.864 230.806 250.668 231.241 256.658C232.14 269.031 242.956 278.378 255.362 277.484C261.37 277.052 266.851 274.314 270.793 269.768C274.732 265.226 276.665 259.422 276.23 253.431C275.375 241.605 265.449 232.545 253.741 232.545L253.745 232.549Z" fill="white" fill-opacity="0.4"/>
<path d="M304.39 369.093C303.869 369.093 303.363 368.867 303.014 368.453L296.348 360.544L292.348 360.13L284.208 366.52C283.576 367.016 282.695 367.034 282.041 366.563L275.903 362.136C275.249 361.665 274.991 360.817 275.264 360.059L278.793 350.349L277.15 346.694L267.534 342.852C266.786 342.554 266.326 341.796 266.409 340.994L267.182 333.48C267.264 332.679 267.868 332.032 268.659 331.892L278.857 330.091L281.211 326.846L279.734 316.622C279.619 315.824 280.047 315.048 280.784 314.721L287.694 311.634C288.427 311.307 289.29 311.505 289.807 312.119L296.473 320.032L300.473 320.442L308.613 314.053C309.245 313.557 310.129 313.539 310.78 314.009L316.918 318.437C317.572 318.908 317.831 319.756 317.557 320.514L314.028 330.224L315.671 333.879L325.287 337.72C326.035 338.019 326.495 338.777 326.412 339.578L325.64 347.093C325.557 347.894 324.953 348.541 324.163 348.681L313.964 350.481L311.61 353.727L313.087 363.95C313.202 364.748 312.774 365.524 312.038 365.852L305.127 368.938C304.89 369.043 304.642 369.097 304.394 369.097L304.39 369.093ZM291.805 356.461C291.866 356.461 291.928 356.461 291.989 356.472L297.437 357.033C297.9 357.079 298.328 357.306 298.63 357.665L304.89 365.097L309.321 363.12L307.934 353.518C307.865 353.055 307.984 352.584 308.257 352.203L311.466 347.775C311.739 347.398 312.153 347.139 312.613 347.06L322.19 345.368L322.686 340.559L313.655 336.955C313.22 336.782 312.871 336.445 312.681 336.021L310.442 331.033C310.252 330.605 310.234 330.12 310.392 329.678L313.705 320.561L309.77 317.722L302.126 323.723C301.76 324.011 301.293 324.147 300.829 324.097L295.381 323.536C294.917 323.49 294.49 323.263 294.188 322.907L287.928 315.476L283.497 317.456L284.884 327.058C284.952 327.522 284.834 327.992 284.561 328.373L281.351 332.801C281.078 333.178 280.665 333.437 280.205 333.516L270.628 335.208L270.132 340.017L279.163 343.625C279.598 343.797 279.946 344.131 280.137 344.559L282.376 349.547C282.566 349.975 282.584 350.46 282.426 350.902L279.113 360.019L283.048 362.858L290.691 356.857C291.011 356.605 291.403 356.472 291.802 356.472L291.805 356.461ZM296.405 349.554C291.583 349.554 287.497 345.82 287.144 340.948C286.965 338.475 287.762 336.085 289.387 334.209C291.011 332.337 293.268 331.209 295.74 331.033C300.843 330.666 305.303 334.515 305.673 339.614C305.853 342.087 305.055 344.476 303.431 346.349C301.806 348.221 299.55 349.349 297.077 349.526C296.851 349.54 296.628 349.551 296.405 349.551V349.554ZM296.409 334.612C296.272 334.612 296.136 334.615 295.996 334.626C294.479 334.734 293.099 335.424 292.104 336.57C291.112 337.713 290.623 339.176 290.734 340.685C290.961 343.804 293.685 346.155 296.818 345.936C298.335 345.828 299.715 345.134 300.71 343.991C301.702 342.849 302.191 341.386 302.08 339.877C301.864 336.894 299.363 334.612 296.409 334.612Z" fill="white" fill-opacity="0.4"/>
</g>
</g>
<defs>
<filter id="filter0_n_535_477" x="0" y="0" width="603" height="595" filterUnits="userSpaceOnUse" color-interpolation-filters="sRGB">
<feFlood flood-opacity="0" result="BackgroundImageFix"/>
<feBlend mode="normal" in="SourceGraphic" in2="BackgroundImageFix" result="shape"/>
<feTurbulence type="fractalNoise" baseFrequency="0.66666668653488159 0.66666668653488159" stitchTiles="stitch" numOctaves="3" result="noise" seed="2162" />
<feColorMatrix in="noise" type="luminanceToAlpha" result="alphaNoise" />
<feComponentTransfer in="alphaNoise" result="coloredNoise1">
<feFuncA type="discrete" tableValues="1 1 1 1 1 1 1 1 1 1 1 1 1 1 1 1 1 1 1 1 1 1 1 1 1 1 1 1 1 1 1 1 1 1 1 1 1 1 1 1 1 1 1 1 1 1 1 1 1 1 1 0 0 0 0 0 0 0 0 0 0 0 0 0 0 0 0 0 0 0 0 0 0 0 0 0 0 0 0 0 0 0 0 0 0 0 0 0 0 0 0 0 0 0 0 0 0 0 0 0 "/>
</feComponentTransfer>
<feComposite operator="in" in2="shape" in="coloredNoise1" result="noise1Clipped" />
<feFlood flood-color="rgba(0, 0, 0, 0.25)" result="color1Flood" />
<feComposite operator="in" in2="noise1Clipped" in="color1Flood" result="color1" />
<feMerge result="effect1_noise_535_477">
<feMergeNode in="shape" />
<feMergeNode in="color1" />
</feMerge>
</filter>
<clipPath id="paint0_diamond_535_477_clip_path"><ellipse cx="301.5" cy="297.5" rx="301.5" ry="297.5"/></clipPath><linearGradient id="paint0_diamond_535_477" x1="0" y1="0" x2="500" y2="500" gradientUnits="userSpaceOnUse">
<stop stop-color="#1641F2"/>
<stop offset="1" stop-opacity="0"/>
</linearGradient>
<clipPath id="clip0_535_477">
<rect width="603" height="595" fill="white"/>
</clipPath>
<clipPath id="clip1_535_477">
<rect width="237.458" height="269.901" fill="white" transform="translate(127.542 164.549)"/>
</clipPath>
</defs>
</svg>
