<svg width="95" height="95" viewBox="0 0 95 95" fill="none" xmlns="http://www.w3.org/2000/svg">
<g clip-path="url(#clip0_980_820)">
<path d="M72.1239 29.4255C71.8312 29.0222 71.921 28.4566 72.3255 28.1639C72.7288 27.8713 73.2944 27.9611 73.587 28.3656C75.6317 31.1849 77.2523 34.3387 78.3515 37.731C79.4126 41.0041 79.9856 44.4923 79.9856 48.1084C79.9856 57.4037 76.217 65.82 70.1258 71.9123C64.0335 78.0047 55.6185 81.7721 46.3219 81.7721C37.0253 81.7721 28.6103 78.0035 22.5179 71.9123C16.4255 65.82 12.6582 57.4037 12.6582 48.1084C12.6582 38.813 16.4268 30.3968 22.5179 24.3044C28.6103 18.212 37.0265 14.4447 46.3219 14.4447C49.9613 14.4447 53.4704 15.025 56.7595 16.0972C60.1641 17.2075 63.3314 18.8465 66.1643 20.917C66.5663 21.2121 66.6536 21.7765 66.3585 22.1785C66.0634 22.5806 65.4991 22.6679 65.097 22.3728C62.4191 20.4154 59.4239 18.8649 56.2013 17.8149C53.0942 16.8017 49.7744 16.2546 46.3219 16.2546C37.5257 16.2546 29.562 19.8203 23.7966 25.5844C18.0325 31.3485 14.4669 39.3135 14.4669 48.1096C14.4669 56.9058 18.0325 64.8707 23.7966 70.6348C29.5607 76.3989 37.5245 79.9646 46.3219 79.9646C55.1193 79.9646 63.0818 76.3989 68.8471 70.6348C74.6112 64.8707 78.1769 56.907 78.1769 48.1096C78.1769 44.6755 77.6359 41.3729 76.6351 38.2843C75.5985 35.0838 74.0641 32.1022 72.1251 29.4279L72.1239 29.4255Z" fill="white"/>
<path d="M62.6626 38.7539C62.4142 38.3211 62.5655 37.7691 62.9983 37.5207C63.4311 37.2723 63.9831 37.4236 64.2315 37.8564C65.1094 39.3872 65.7979 41.0458 66.2639 42.8004C66.7152 44.4984 66.9562 46.2788 66.9562 48.1083C66.9562 53.806 64.6471 58.9652 60.9117 62.6993C57.1776 66.4334 52.0184 68.7437 46.3207 68.7437C40.623 68.7437 35.4639 66.4347 31.7297 62.7005C27.9956 58.9664 25.6853 53.8072 25.6853 48.1095C25.6853 42.4118 27.9956 37.2527 31.7297 33.5185C35.4639 29.7844 40.623 27.4753 46.3207 27.4753C48.1749 27.4753 49.9749 27.7212 51.6902 28.1836C53.4582 28.6594 55.1329 29.3651 56.6809 30.2652C57.1124 30.5148 57.2588 31.0668 57.0092 31.4984C56.7596 31.93 56.2075 32.0763 55.7759 31.8267C54.3656 31.0054 52.8373 30.3623 51.2229 29.9283C49.6626 29.509 48.0187 29.284 46.3195 29.284C41.121 29.284 36.4143 31.3914 33.0072 34.7973C29.6002 38.2043 27.494 42.911 27.494 48.1095C27.494 53.3081 29.6014 58.0147 33.0072 61.4218C36.4143 64.8289 41.1198 66.9351 46.3195 66.9351C51.5192 66.9351 56.2247 64.8277 59.6318 61.4206C63.0388 58.0135 65.1463 53.3068 65.1463 48.1083C65.1463 46.4263 64.9274 44.8021 64.518 43.2602C64.095 41.6692 63.4667 40.1569 62.6614 38.7552L62.6626 38.7539Z" fill="white"/>
<path d="M50.9303 49.676C51.0901 49.2038 51.6028 48.9506 52.075 49.1104C52.5471 49.2702 52.8004 49.783 52.6406 50.2551C52.1869 51.5904 51.3237 52.7351 50.2024 53.538C49.1081 54.3212 47.7679 54.7835 46.3207 54.7835C44.4776 54.7835 42.8091 54.036 41.6005 52.8285C40.3931 51.6211 39.6455 49.9514 39.6455 48.1083C39.6455 46.612 40.1422 45.2263 40.9808 44.1086C41.8366 42.9676 43.0501 42.1094 44.4567 41.7012C44.935 41.5622 45.4342 41.8376 45.5731 42.3159C45.7121 42.7942 45.4367 43.2934 44.9584 43.4324C43.9342 43.7299 43.0477 44.357 42.423 45.1906C41.8157 46.0009 41.4554 47.0103 41.4554 48.1083C41.4554 49.4522 42.0001 50.6695 42.8804 51.5498C43.7608 52.4302 44.9768 52.9749 46.3207 52.9749C47.3769 52.9749 48.3531 52.6392 49.1499 52.0687C49.97 51.481 50.6007 50.6473 50.9303 49.6772V49.676Z" fill="white"/>
<path d="M83.4737 23.5851C83.1983 23.1695 83.3126 22.6088 83.7282 22.3346C84.1438 22.0592 84.7045 22.1736 84.9787 22.5891C87.4415 26.3122 89.3817 30.4103 90.6924 34.7788C91.96 39.0023 92.6424 43.4779 92.6424 48.1083C92.6424 60.8993 87.4574 72.4803 79.0756 80.8621C70.6926 89.2452 59.1128 94.4289 46.3218 94.4289C33.5309 94.4289 21.951 89.2439 13.568 80.8621C5.18499 72.4791 0 60.8993 0 48.1083C0 35.3174 5.18499 23.7363 13.5668 15.3545C21.9498 6.97148 33.5297 1.7865 46.3206 1.7865C50.9732 1.7865 55.4684 2.47381 59.7079 3.75377C64.0949 5.07676 68.2089 7.03419 71.9406 9.51787C72.3562 9.79329 72.4705 10.3527 72.1951 10.7683C71.9197 11.1839 71.3603 11.2982 70.9447 11.0228C67.3581 8.63752 63.4076 6.75631 59.1927 5.48497C55.1204 4.25665 50.7986 3.59639 46.3218 3.59639C34.0301 3.59639 22.9027 8.5785 14.8467 16.6332C6.79077 24.688 1.80866 35.8166 1.80866 48.1083C1.80866 60.4001 6.79077 71.5287 14.8455 79.5834C22.9003 87.6382 34.0289 92.6203 46.3206 92.6203C58.6124 92.6203 69.7397 87.6382 77.7957 79.5834C85.8504 71.5287 90.8325 60.4001 90.8325 48.1083C90.8325 43.6512 90.1784 39.3491 88.9612 35.294C87.7009 31.0964 85.8381 27.1594 83.4737 23.5851Z" fill="white"/>
<path d="M73.9546 20.917C73.9964 20.9711 74.0444 21.0252 74.0973 21.0781V21.0805L74.101 21.0781C74.8104 21.7875 76.2182 22.1478 77.642 22.2105C79.0831 22.2744 80.4737 22.0383 81.1426 21.5576C81.1794 21.5318 81.2188 21.4961 81.2631 21.4531L91.5297 11.1864L85.2357 10.2655C84.825 10.2052 84.5201 9.87815 84.4697 9.48469L83.4947 2.81565L73.0608 13.2496C72.4952 13.8151 72.2763 15.2746 72.414 16.8435C72.5468 18.3509 73.0251 19.8903 73.8624 20.7965C73.8969 20.8346 73.9276 20.874 73.9546 20.9145V20.917ZM72.8235 22.3556C72.7104 22.2424 72.6058 22.1219 72.5087 21.9941C71.3984 20.7731 70.7738 18.8452 70.6115 17.0009C70.4308 14.9463 70.8328 12.9188 71.7808 11.9721L83.4873 0.264346C83.6213 0.131556 83.7959 0.0393398 83.9963 0.00983078C84.4894 -0.0627123 84.9492 0.279101 85.0205 0.773377L86.1616 8.57606L93.5278 9.65314C93.7294 9.67282 93.9261 9.75888 94.0798 9.91381C94.4327 10.2667 94.4327 10.8397 94.0798 11.1925L82.5406 22.7318C82.4471 22.8252 82.3303 22.9211 82.1938 23.0195C81.2028 23.7326 79.3696 24.0917 77.5621 24.0118C75.7375 23.9306 73.871 23.408 72.8198 22.3568H72.8222L72.8235 22.3556Z" fill="white"/>
<path d="M47.9866 47.6891C47.6337 48.0407 47.062 48.0382 46.7116 47.6854C46.3599 47.3325 46.3624 46.7608 46.7153 46.4103L72.5615 20.7707C72.9144 20.419 73.4861 20.4215 73.8365 20.7743C74.187 21.1272 74.1857 21.699 73.8329 22.0494L47.9866 47.6891Z" fill="white"/>
</g>
<defs>
<clipPath id="clip0_980_820">
<rect width="94.3454" height="94.429" fill="white"/>
</clipPath>
</defs>
</svg>
