<svg width="325" height="325" viewBox="0 0 325 325" fill="none" xmlns="http://www.w3.org/2000/svg">
<g clip-path="url(#clip0_527_249)">
<path d="M247.875 101.129C246.869 99.7431 247.178 97.7993 248.568 96.7936C249.954 95.7878 251.898 96.0963 252.904 97.4866C259.931 107.176 265.501 118.015 269.278 129.674C272.925 140.922 274.894 152.911 274.894 165.338C274.894 197.285 261.943 226.21 241.008 247.148C220.07 268.086 191.15 281.034 159.199 281.034C127.249 281.034 98.328 268.082 77.3897 247.148C56.4514 226.21 43.5039 197.285 43.5039 165.338C43.5039 133.392 56.4556 104.467 77.3897 83.5291C98.328 62.5908 127.253 49.6433 159.199 49.6433C171.707 49.6433 183.767 51.6378 195.071 55.3226C206.772 59.1384 217.657 64.7713 227.393 71.8873C228.775 72.9015 229.075 74.8411 228.061 76.2229C227.047 77.6047 225.107 77.9047 223.725 76.8906C214.522 70.1633 204.228 64.8347 193.153 61.2259C182.474 57.744 171.065 55.8635 159.199 55.8635C128.968 55.8635 101.599 68.118 81.7844 87.9281C61.9744 107.738 49.7199 135.112 49.7199 165.343C49.7199 195.573 61.9744 222.947 81.7844 242.757C101.594 262.567 128.964 274.822 159.199 274.822C189.434 274.822 216.799 262.567 236.614 242.757C256.424 222.947 268.678 195.578 268.678 165.343C268.678 153.54 266.819 142.19 263.379 131.575C259.817 120.576 254.543 110.328 247.879 101.138L247.875 101.129Z" fill="white" fill-opacity="0.3"/>
<path d="M215.36 133.19C214.506 131.702 215.026 129.805 216.514 128.951C218.001 128.098 219.898 128.617 220.752 130.105C223.769 135.366 226.136 141.066 227.737 147.096C229.288 152.932 230.116 159.051 230.116 165.339C230.116 184.92 222.18 202.651 209.343 215.485C196.509 228.318 178.778 236.258 159.196 236.258C139.615 236.258 121.884 228.322 109.05 215.489C96.2167 202.656 88.2766 184.925 88.2766 165.343C88.2766 145.761 96.2167 128.03 109.05 115.197C121.884 102.363 139.615 94.4272 159.196 94.4272C165.569 94.4272 171.755 95.2724 177.65 96.8612C183.727 98.4966 189.482 100.922 194.802 104.015C196.285 104.873 196.788 106.77 195.93 108.254C195.072 109.737 193.175 110.24 191.692 109.382C186.845 106.559 181.593 104.349 176.044 102.857C170.682 101.417 165.032 100.643 159.192 100.643C141.326 100.643 125.15 107.886 113.441 119.591C101.731 131.301 94.4926 147.477 94.4926 165.343C94.4926 183.209 101.735 199.385 113.441 211.094C125.15 222.804 141.322 230.042 159.192 230.042C177.063 230.042 193.234 222.799 204.944 211.09C216.653 199.381 223.896 183.205 223.896 165.339C223.896 159.558 223.144 153.976 221.737 148.677C220.283 143.209 218.124 138.011 215.356 133.194L215.36 133.19Z" fill="white" fill-opacity="0.3"/>
<path d="M175.038 170.726C175.587 169.103 177.349 168.233 178.972 168.782C180.594 169.332 181.465 171.094 180.916 172.716C179.356 177.306 176.39 181.24 172.536 183.999C168.775 186.691 164.169 188.28 159.195 188.28C152.861 188.28 147.127 185.71 142.973 181.561C138.823 177.411 136.254 171.673 136.254 165.338C136.254 160.196 137.961 155.433 140.843 151.592C143.784 147.671 147.955 144.721 152.789 143.318C154.433 142.841 156.149 143.787 156.626 145.431C157.104 147.075 156.157 148.791 154.513 149.268C150.993 150.291 147.947 152.446 145.8 155.311C143.713 158.096 142.474 161.565 142.474 165.338C142.474 169.957 144.346 174.141 147.372 177.166C150.398 180.192 154.577 182.064 159.195 182.064C162.825 182.064 166.181 180.91 168.919 178.949C171.737 176.929 173.905 174.064 175.038 170.73V170.726Z" fill="white" fill-opacity="0.3"/>
<path d="M286.882 81.0574C285.936 79.6291 286.329 77.7022 287.757 76.7599C289.185 75.8133 291.112 76.2063 292.055 77.6346C300.519 90.43 307.187 104.514 311.691 119.528C316.048 134.043 318.393 149.425 318.393 165.339C318.393 209.299 300.574 249.1 271.767 277.907C242.956 306.718 203.159 324.533 159.199 324.533C115.239 324.533 75.4414 306.713 46.6307 277.907C17.8199 249.096 0.000183105 209.299 0.000183105 165.339C0.000183105 121.379 17.8199 81.5772 46.6264 52.7706C75.4372 23.9599 115.235 6.14014 159.195 6.14014C175.185 6.14014 190.634 8.5023 205.204 12.9012C220.281 17.4481 234.42 24.1754 247.245 32.7113C248.674 33.6578 249.067 35.5805 248.12 37.0088C247.173 38.4371 245.251 38.8301 243.822 37.8835C231.496 29.6857 217.919 23.2204 203.433 18.851C189.438 14.6295 174.585 12.3604 159.199 12.3604C116.955 12.3604 78.7121 29.4828 51.0254 57.1653C23.3387 84.8478 6.21617 123.095 6.21617 165.339C6.21617 207.583 23.3387 245.83 51.0212 273.512C78.7037 301.195 116.95 318.317 159.195 318.317C201.439 318.317 239.681 301.195 267.368 273.512C295.051 245.83 312.173 207.583 312.173 165.339C312.173 150.021 309.925 135.235 305.742 121.299C301.41 106.872 295.008 93.3415 286.882 81.0574Z" fill="white" fill-opacity="0.3"/>
<path d="M254.167 71.8877C254.311 72.0737 254.476 72.2596 254.657 72.4413V72.4498L254.67 72.4413C257.108 74.8795 261.947 76.1177 266.84 76.3332C271.792 76.5529 276.572 75.7416 278.871 74.0893C278.997 74.0006 279.133 73.878 279.285 73.7301L314.569 38.4456L292.938 35.2806C291.526 35.0735 290.479 33.9495 290.305 32.5973L286.954 9.67712L251.095 45.5363C249.151 47.4802 248.399 52.496 248.872 57.888C249.329 63.0687 250.973 68.3593 253.85 71.4736C253.969 71.6046 254.074 71.7398 254.167 71.8793V71.8877ZM250.28 76.8318C249.891 76.443 249.532 76.0289 249.198 75.5894C245.382 71.3933 243.235 64.7674 242.677 58.4289C242.056 51.3678 243.438 44.3996 246.696 41.1458L286.929 0.908817C287.39 0.452443 287.99 0.135516 288.678 0.0340993C290.373 -0.215216 291.953 0.959525 292.198 2.65825L296.12 29.4745L321.436 33.1762C322.129 33.2438 322.805 33.5396 323.333 34.072C324.546 35.2848 324.546 37.254 323.333 38.4668L283.675 78.1249C283.354 78.446 282.953 78.7756 282.484 79.1137C279.078 81.5646 272.777 82.7985 266.565 82.5238C260.294 82.2449 253.88 80.449 250.267 76.836H250.275L250.28 76.8318Z" fill="white" fill-opacity="0.3"/>
<path d="M164.92 163.898C163.708 165.106 161.743 165.098 160.538 163.885C159.33 162.672 159.338 160.707 160.551 159.503L249.379 71.3846C250.592 70.176 252.557 70.1845 253.761 71.3973C254.966 72.61 254.961 74.575 253.749 75.7793L164.92 163.898Z" fill="white" fill-opacity="0.3"/>
</g>
<defs>
<clipPath id="clip0_527_249">
<rect width="324.246" height="324.533" fill="white"/>
</clipPath>
</defs>
</svg>
