<svg width="603" height="595" viewBox="0 0 603 595" fill="none" xmlns="http://www.w3.org/2000/svg">
<g clip-path="url(#clip0_535_426)">
<g filter="url(#filter0_n_535_426)">
<g clip-path="url(#paint0_diamond_535_426_clip_path)" data-figma-skip-parse="true"><g transform="matrix(-0.1525 0.108 -0.0954309 -0.134752 301.5 297.5)"><rect x="0" y="0" width="2244.24" height="2534.05" fill="url(#paint0_diamond_535_426)" opacity="1" shape-rendering="crispEdges"/><rect x="0" y="0" width="2244.24" height="2534.05" transform="scale(1 -1)" fill="url(#paint0_diamond_535_426)" opacity="1" shape-rendering="crispEdges"/><rect x="0" y="0" width="2244.24" height="2534.05" transform="scale(-1 1)" fill="url(#paint0_diamond_535_426)" opacity="1" shape-rendering="crispEdges"/><rect x="0" y="0" width="2244.24" height="2534.05" transform="scale(-1)" fill="url(#paint0_diamond_535_426)" opacity="1" shape-rendering="crispEdges"/></g></g><ellipse cx="301.5" cy="297.5" rx="301.5" ry="297.5" data-figma-gradient-fill="{&#34;type&#34;:&#34;GRADIENT_DIAMOND&#34;,&#34;stops&#34;:[{&#34;color&#34;:{&#34;r&#34;:0.086274512112140656,&#34;g&#34;:0.25490197539329529,&#34;b&#34;:0.94901961088180542,&#34;a&#34;:1.0},&#34;position&#34;:0.0},{&#34;color&#34;:{&#34;r&#34;:0.0,&#34;g&#34;:0.0,&#34;b&#34;:0.0,&#34;a&#34;:0.0},&#34;position&#34;:1.0}],&#34;stopsVar&#34;:[{&#34;color&#34;:{&#34;r&#34;:0.086274512112140656,&#34;g&#34;:0.25490197539329529,&#34;b&#34;:0.94901961088180542,&#34;a&#34;:1.0},&#34;position&#34;:0.0},{&#34;color&#34;:{&#34;r&#34;:0.0,&#34;g&#34;:0.0,&#34;b&#34;:0.0,&#34;a&#34;:0.0},&#34;position&#34;:1.0}],&#34;transform&#34;:{&#34;m00&#34;:-304.99996948242188,&#34;m01&#34;:-190.861816406250,&#34;m02&#34;:549.4309082031250,&#34;m10&#34;:215.99996948242188,&#34;m11&#34;:-269.50393676757812,&#34;m12&#34;:324.25201416015625},&#34;opacity&#34;:1.0,&#34;blendMode&#34;:&#34;NORMAL&#34;,&#34;visible&#34;:true}"/>
</g>
<g clip-path="url(#clip1_535_426)">
<path d="M147.261 430.91C136.087 430.91 127 421.818 127 410.649V184.963C127 173.794 136.092 164.702 147.261 164.702H456.734C467.908 164.702 476.995 173.794 476.995 184.963V410.644C476.995 421.818 467.903 430.906 456.734 430.906H147.261V430.91ZM454.27 424.113C455.245 424.353 456.235 424.471 457.21 424.471C460.616 424.471 463.904 423.01 466.457 420.363C469.288 417.423 470.9 413.292 470.763 409.297C470.749 339.902 470.753 285.054 470.777 236.697C470.777 234.832 469.265 233.31 467.404 233.31H136.657C134.829 233.31 133.341 234.803 133.341 236.641C133.378 336.218 133.36 396.257 133.289 401.364C133.176 409.16 133.84 413.998 135.376 416.58C138.33 421.531 142.923 424.042 149.018 424.042C179.728 424.051 208.507 424.056 235.363 424.056C262.219 424.056 285.953 424.056 308.513 424.051C327.94 424.051 346.02 424.047 362.753 424.047C393.242 424.047 427.946 424.056 454.266 424.113H454.27ZM132.992 224.421L133.562 225.043C134.33 225.872 134.622 226.178 163.174 226.432C179.05 226.574 201.309 226.64 231.218 226.64C273.101 226.64 321.863 226.503 364.887 226.385C397.901 226.296 426.411 226.216 445.249 226.216C460.272 226.216 465.68 226.267 467.31 226.324L467.366 226.38H468.144C469.604 226.38 470.791 225.193 470.791 223.733V187.577C470.791 178.778 463.541 171.617 454.628 171.617H149.207C140.294 171.617 133.044 178.778 133.044 187.577V222.183C133.044 222.814 133.044 223.271 133.058 223.62V223.601L132.992 224.421Z" fill="white" fill-opacity="0.4"/>
<path d="M283.563 379.85C283.228 379.85 282.903 379.789 282.592 379.661L281.104 379.063C280.458 378.804 279.954 378.314 279.681 377.673C279.408 377.028 279.398 376.321 279.657 375.676L319.973 275.392C320.373 274.398 321.325 273.757 322.394 273.757C322.728 273.757 323.053 273.819 323.364 273.946L324.853 274.544C325.498 274.803 326.002 275.293 326.276 275.934C326.549 276.579 326.558 277.286 326.299 277.936L285.984 378.22C285.583 379.214 284.632 379.854 283.563 379.854V379.85Z" fill="white" fill-opacity="0.4"/>
<path d="M255.536 365.161C254.698 365.161 253.906 364.836 253.317 364.243C238.069 349.055 227.771 338.677 223.536 334.221C219.932 330.4 216.884 327.588 214.486 325.864C214.171 324.545 214.293 323.857 214.496 323.654C218.099 320.079 221.736 316.4 225.255 312.843C234.102 303.902 243.246 294.655 252.696 286.147C253.341 285.567 254.18 285.247 255.046 285.247C256.012 285.247 256.912 285.629 257.581 286.326L257.647 286.392L257.915 286.646C258.485 287.207 258.806 287.984 258.801 288.818C258.796 289.652 258.457 290.434 257.854 291.013L225.924 321.454C225.09 322.255 224.614 323.367 224.61 324.521C224.61 325.689 225.062 326.778 225.896 327.588L257.896 358.651C258.627 359.353 259.032 360.3 259.046 361.313C259.06 362.354 258.66 363.338 257.925 364.083L257.878 364.13C257.27 364.789 256.436 365.152 255.536 365.152V365.161Z" fill="white" fill-opacity="0.4"/>
<path d="M346.873 365.981C346.054 365.981 345.262 365.741 344.579 365.284L344.532 365.256C343.863 364.836 343.434 364.144 343.35 363.362C343.265 362.599 343.529 361.854 344.075 361.322L376.848 328.86C377.545 328.163 377.922 327.244 377.918 326.274C377.918 325.308 377.531 324.399 376.839 323.725L343.726 290.599C343.307 290.179 343.109 289.614 343.189 289.03C343.265 288.446 343.604 287.942 344.113 287.65L346.298 286.387C346.722 286.142 347.198 286.01 347.679 286.01C348.395 286.01 349.078 286.288 349.591 286.788C359.705 296.548 367.45 304.251 372.613 309.687C374.135 311.293 376.773 313.733 380.447 316.942C382.925 319.123 385.233 321.624 387.301 324.366C387.65 324.827 387.711 325.459 387.462 325.972C386.647 327.654 385.639 329.067 384.39 330.292C382.346 332.294 369.74 344.858 349.803 364.771C349.021 365.552 347.98 365.986 346.878 365.986L346.873 365.981Z" fill="white" fill-opacity="0.4"/>
</g>
</g>
<defs>
<filter id="filter0_n_535_426" x="0" y="0" width="603" height="595" filterUnits="userSpaceOnUse" color-interpolation-filters="sRGB">
<feFlood flood-opacity="0" result="BackgroundImageFix"/>
<feBlend mode="normal" in="SourceGraphic" in2="BackgroundImageFix" result="shape"/>
<feTurbulence type="fractalNoise" baseFrequency="0.66666668653488159 0.66666668653488159" stitchTiles="stitch" numOctaves="3" result="noise" seed="2162" />
<feColorMatrix in="noise" type="luminanceToAlpha" result="alphaNoise" />
<feComponentTransfer in="alphaNoise" result="coloredNoise1">
<feFuncA type="discrete" tableValues="1 1 1 1 1 1 1 1 1 1 1 1 1 1 1 1 1 1 1 1 1 1 1 1 1 1 1 1 1 1 1 1 1 1 1 1 1 1 1 1 1 1 1 1 1 1 1 1 1 1 1 0 0 0 0 0 0 0 0 0 0 0 0 0 0 0 0 0 0 0 0 0 0 0 0 0 0 0 0 0 0 0 0 0 0 0 0 0 0 0 0 0 0 0 0 0 0 0 0 0 "/>
</feComponentTransfer>
<feComposite operator="in" in2="shape" in="coloredNoise1" result="noise1Clipped" />
<feFlood flood-color="rgba(0, 0, 0, 0.25)" result="color1Flood" />
<feComposite operator="in" in2="noise1Clipped" in="color1Flood" result="color1" />
<feMerge result="effect1_noise_535_426">
<feMergeNode in="shape" />
<feMergeNode in="color1" />
</feMerge>
</filter>
<clipPath id="paint0_diamond_535_426_clip_path"><ellipse cx="301.5" cy="297.5" rx="301.5" ry="297.5"/></clipPath><linearGradient id="paint0_diamond_535_426" x1="0" y1="0" x2="500" y2="500" gradientUnits="userSpaceOnUse">
<stop stop-color="#1641F2"/>
<stop offset="1" stop-opacity="0"/>
</linearGradient>
<clipPath id="clip0_535_426">
<rect width="603" height="595" fill="white"/>
</clipPath>
<clipPath id="clip1_535_426">
<rect width="350" height="266.209" fill="white" transform="translate(127 164.702)"/>
</clipPath>
</defs>
</svg>
