<svg width="412" height="324" viewBox="0 0 412 324" fill="none" xmlns="http://www.w3.org/2000/svg">
<g clip-path="url(#clip0_535_401)">
<path d="M81.2567 317C64.9205 317 51.6401 303.72 51.6401 287.383V37.2564C51.6401 20.9202 64.9205 7.63989 81.2567 7.63989H331.384C347.72 7.63989 361 20.9202 361 37.2564V287.383C361 303.72 347.72 317 331.384 317H81.2567ZM57.1665 233.334V287.383C57.1665 300.664 67.9764 311.474 81.2567 311.474H331.384C344.664 311.474 355.474 300.664 355.474 287.383V150.553L307.036 109.484L203.464 199.176C202.964 199.605 202.322 199.847 201.651 199.847C201.208 199.847 200.537 199.733 199.908 199.233L158.768 165.747L57.1665 233.334ZM81.2567 13.1662C67.9764 13.1662 57.1665 23.9761 57.1665 37.2564V226.694L157.411 160.021C157.868 159.721 158.397 159.55 158.939 159.55C159.568 159.55 160.196 159.764 160.682 160.164L201.593 193.464L305.209 103.744C305.708 103.301 306.351 103.073 307.008 103.073C307.665 103.073 308.293 103.301 308.793 103.729L355.46 143.299V37.2564C355.46 23.9761 344.65 13.1662 331.369 13.1662H81.2567Z" fill="white" fill-opacity="0.3"/>
<path d="M129.038 118.152C111.816 118.152 97.7935 104.144 97.7935 86.9078C97.7935 69.6719 111.802 55.6633 129.038 55.6633C146.274 55.6633 160.282 69.6719 160.282 86.9078C160.282 104.144 146.274 118.152 129.038 118.152ZM129.038 61.2039C114.858 61.2039 103.32 72.7421 103.32 86.9221C103.32 101.102 114.858 112.64 129.038 112.64C143.218 112.64 154.756 101.102 154.756 86.9221C154.756 72.7421 143.218 61.2039 129.038 61.2039Z" fill="white" fill-opacity="0.3"/>
</g>
<defs>
<clipPath id="clip0_535_401">
<rect width="309.36" height="309.36" fill="white" transform="translate(51.6399 7.63989)"/>
</clipPath>
</defs>
</svg>
