<svg width="603" height="595" viewBox="0 0 603 595" fill="none" xmlns="http://www.w3.org/2000/svg">
<g clip-path="url(#clip0_533_296)">
<g filter="url(#filter0_n_533_296)">
<g clip-path="url(#paint0_diamond_533_296_clip_path)" data-figma-skip-parse="true"><g transform="matrix(-0.1525 0.108 -0.0954309 -0.134752 301.5 297.5)"><rect x="0" y="0" width="2244.24" height="2534.05" fill="url(#paint0_diamond_533_296)" opacity="1" shape-rendering="crispEdges"/><rect x="0" y="0" width="2244.24" height="2534.05" transform="scale(1 -1)" fill="url(#paint0_diamond_533_296)" opacity="1" shape-rendering="crispEdges"/><rect x="0" y="0" width="2244.24" height="2534.05" transform="scale(-1 1)" fill="url(#paint0_diamond_533_296)" opacity="1" shape-rendering="crispEdges"/><rect x="0" y="0" width="2244.24" height="2534.05" transform="scale(-1)" fill="url(#paint0_diamond_533_296)" opacity="1" shape-rendering="crispEdges"/></g></g><ellipse cx="301.5" cy="297.5" rx="301.5" ry="297.5" data-figma-gradient-fill="{&#34;type&#34;:&#34;GRADIENT_DIAMOND&#34;,&#34;stops&#34;:[{&#34;color&#34;:{&#34;r&#34;:0.086274512112140656,&#34;g&#34;:0.25490197539329529,&#34;b&#34;:0.94901961088180542,&#34;a&#34;:1.0},&#34;position&#34;:0.0},{&#34;color&#34;:{&#34;r&#34;:0.0,&#34;g&#34;:0.0,&#34;b&#34;:0.0,&#34;a&#34;:0.0},&#34;position&#34;:1.0}],&#34;stopsVar&#34;:[{&#34;color&#34;:{&#34;r&#34;:0.086274512112140656,&#34;g&#34;:0.25490197539329529,&#34;b&#34;:0.94901961088180542,&#34;a&#34;:1.0},&#34;position&#34;:0.0},{&#34;color&#34;:{&#34;r&#34;:0.0,&#34;g&#34;:0.0,&#34;b&#34;:0.0,&#34;a&#34;:0.0},&#34;position&#34;:1.0}],&#34;transform&#34;:{&#34;m00&#34;:-304.99996948242188,&#34;m01&#34;:-190.861816406250,&#34;m02&#34;:549.4309082031250,&#34;m10&#34;:215.99996948242188,&#34;m11&#34;:-269.50393676757812,&#34;m12&#34;:324.25201416015625},&#34;opacity&#34;:1.0,&#34;blendMode&#34;:&#34;NORMAL&#34;,&#34;visible&#34;:true}"/>
</g>
<g clip-path="url(#clip1_533_296)">
<path d="M415.989 361.095C415.599 361.095 415.203 361.016 414.832 360.86C383.022 347.472 349.456 339.623 315.07 337.532C284.42 335.671 253.732 338.443 223.848 345.778C222.281 346.16 220.69 345.234 220.27 343.687L194.504 248.422C194.084 246.875 194.993 245.284 196.545 244.838C226.122 236.386 254.102 223.587 279.705 206.791C308.432 187.944 333.541 164.523 354.329 137.17C355.012 136.274 356.153 135.838 357.265 136.054C358.377 136.269 359.272 137.092 359.564 138.179L418.856 357.398C419.147 358.485 418.792 359.64 417.936 360.375C417.388 360.85 416.691 361.095 415.989 361.095ZM296.56 331.093C302.847 331.093 309.139 331.284 315.431 331.666C348.487 333.673 380.802 340.906 411.57 353.167L355.392 145.451C334.934 171.31 310.602 193.575 282.982 211.693C257.686 228.287 230.111 241.058 200.984 249.676L225.252 339.398C248.68 333.879 272.588 331.098 296.565 331.098L296.56 331.093Z" fill="white" fill-opacity="0.4"/>
<path d="M153.621 364.086C149.4 364.086 145.525 361.29 144.379 357.064L122.028 274.428C121.365 271.985 121.707 269.429 122.982 267.24C124.257 265.046 126.318 263.479 128.789 262.828L196.593 244.828C198.174 244.407 199.8 245.337 200.226 246.904L225.992 342.164C226.417 343.731 225.478 345.342 223.896 345.763L156.093 363.763C155.267 363.983 154.437 364.086 153.621 364.086ZM195.268 251.257L130.327 268.499C128.394 269.013 127.242 270.986 127.761 272.906L150.112 355.542C150.631 357.456 152.628 358.597 154.56 358.088L219.502 340.847L195.273 251.262L195.268 251.257Z" fill="white" fill-opacity="0.4"/>
<path d="M119.28 353.421C117.149 353.421 115.049 352.868 113.156 351.786C110.314 350.16 108.277 347.536 107.432 344.392L96.4247 303.701C95.5746 300.562 96.0095 297.281 97.6505 294.466C99.2914 291.65 101.941 289.633 105.114 288.795L127.39 282.88C128.972 282.459 130.598 283.389 131.023 284.956L146.855 343.491C147.28 345.058 146.341 346.669 144.759 347.09L122.482 353.005C121.425 353.284 120.347 353.426 119.28 353.426V353.421ZM126.061 289.314L106.651 294.466C105.01 294.901 103.641 295.944 102.791 297.399C101.941 298.858 101.718 300.552 102.158 302.178L113.165 342.869C113.605 344.495 114.658 345.851 116.126 346.693C117.599 347.536 119.309 347.761 120.95 347.32L140.36 342.169L126.066 289.309L126.061 289.314Z" fill="white" fill-opacity="0.4"/>
<path d="M394.718 282.469C393.408 282.469 392.212 281.602 391.856 280.29C391.431 278.723 392.37 277.112 393.952 276.691L402.068 274.536C409.655 272.524 415.996 267.7 419.93 260.963C423.855 254.22 424.898 246.366 422.866 238.854C418.67 223.337 402.513 214.092 386.844 218.254L378.729 220.408C377.147 220.825 375.521 219.899 375.096 218.332C374.671 216.765 375.61 215.154 377.191 214.733L385.307 212.579C404.134 207.584 423.549 218.69 428.59 237.336C431.032 246.366 429.781 255.802 425.066 263.906C420.336 272.005 412.714 277.797 403.6 280.216L395.484 282.371C395.227 282.439 394.97 282.474 394.713 282.474L394.718 282.469Z" fill="white" fill-opacity="0.4"/>
<path d="M479.792 226.676C478.482 226.676 477.286 225.81 476.93 224.497C476.505 222.93 477.444 221.319 479.026 220.898L504.268 214.2C505.849 213.779 507.476 214.709 507.901 216.276C508.326 217.843 507.387 219.454 505.805 219.875L480.563 226.574C480.306 226.642 480.049 226.676 479.792 226.676Z" fill="white" fill-opacity="0.4"/>
<path d="M459.888 192.527C459.127 192.527 458.371 192.238 457.792 191.665C456.636 190.519 456.636 188.659 457.792 187.508L476.273 169.199C477.43 168.053 479.308 168.053 480.469 169.199C481.631 170.345 481.626 172.206 480.469 173.356L461.989 191.665C461.41 192.238 460.649 192.527 459.893 192.527H459.888Z" fill="white" fill-opacity="0.4"/>
<path d="M505.039 272.813C504.787 272.813 504.525 272.779 504.268 272.71L479.026 266.011C477.444 265.59 476.505 263.979 476.93 262.412C477.355 260.845 478.981 259.915 480.563 260.336L505.805 267.035C507.387 267.456 508.326 269.067 507.901 270.634C507.545 271.946 506.349 272.813 505.039 272.813Z" fill="white" fill-opacity="0.4"/>
<path d="M196.804 459.439C194.155 459.439 191.545 458.749 189.187 457.402C185.653 455.38 183.123 452.119 182.07 448.216L158.251 360.145C157.826 358.578 158.765 356.967 160.347 356.546C161.929 356.13 163.555 357.055 163.98 358.622L187.798 446.693C188.446 449.083 189.988 451.076 192.153 452.315C194.318 453.549 196.834 453.882 199.241 453.24L225.308 446.321C227.72 445.68 229.732 444.152 230.982 442.007C232.233 439.862 232.564 437.37 231.917 434.985L208.098 346.914C207.673 345.347 208.612 343.736 210.194 343.315C211.775 342.899 213.401 343.824 213.826 345.391L237.645 433.463C238.703 437.365 238.159 441.444 236.118 444.945C234.076 448.446 230.785 450.953 226.84 451.996L200.773 458.915C199.458 459.263 198.124 459.439 196.799 459.439H196.804Z" fill="white" fill-opacity="0.4"/>
</g>
</g>
<defs>
<filter id="filter0_n_533_296" x="0" y="0" width="603" height="595" filterUnits="userSpaceOnUse" color-interpolation-filters="sRGB">
<feFlood flood-opacity="0" result="BackgroundImageFix"/>
<feBlend mode="normal" in="SourceGraphic" in2="BackgroundImageFix" result="shape"/>
<feTurbulence type="fractalNoise" baseFrequency="0.66666668653488159 0.66666668653488159" stitchTiles="stitch" numOctaves="3" result="noise" seed="2162" />
<feColorMatrix in="noise" type="luminanceToAlpha" result="alphaNoise" />
<feComponentTransfer in="alphaNoise" result="coloredNoise1">
<feFuncA type="discrete" tableValues="1 1 1 1 1 1 1 1 1 1 1 1 1 1 1 1 1 1 1 1 1 1 1 1 1 1 1 1 1 1 1 1 1 1 1 1 1 1 1 1 1 1 1 1 1 1 1 1 1 1 1 0 0 0 0 0 0 0 0 0 0 0 0 0 0 0 0 0 0 0 0 0 0 0 0 0 0 0 0 0 0 0 0 0 0 0 0 0 0 0 0 0 0 0 0 0 0 0 0 0 "/>
</feComponentTransfer>
<feComposite operator="in" in2="shape" in="coloredNoise1" result="noise1Clipped" />
<feFlood flood-color="rgba(0, 0, 0, 0.25)" result="color1Flood" />
<feComposite operator="in" in2="noise1Clipped" in="color1Flood" result="color1" />
<feMerge result="effect1_noise_533_296">
<feMergeNode in="shape" />
<feMergeNode in="color1" />
</feMerge>
</filter>
<clipPath id="paint0_diamond_533_296_clip_path"><ellipse cx="301.5" cy="297.5" rx="301.5" ry="297.5"/></clipPath><linearGradient id="paint0_diamond_533_296" x1="0" y1="0" x2="500" y2="500" gradientUnits="userSpaceOnUse">
<stop stop-color="#1641F2"/>
<stop offset="1" stop-opacity="0"/>
</linearGradient>
<clipPath id="clip0_533_296">
<rect width="603" height="595" fill="white"/>
</clipPath>
<clipPath id="clip1_533_296">
<rect width="412" height="323.439" fill="white" transform="translate(96 136)"/>
</clipPath>
</defs>
</svg>
