<svg width="350" height="268" viewBox="0 0 350 268" fill="none" xmlns="http://www.w3.org/2000/svg">
<path d="M197.796 266.999V214.543H184.991V266.999H180.275V214.543H173.868C172.566 214.543 171.506 213.485 171.506 212.186V170.828H165.1C163.797 170.828 162.738 169.771 162.738 168.472V144.597H103.768C92.8156 144.58 83.9014 135.686 83.8853 124.757V37.3446C83.9014 26.416 92.8156 17.5214 103.768 17.5052H105.791V2.37954C105.791 1.08005 106.85 0.0227051 108.153 0.0227051H143.203C144.505 0.0227051 145.565 1.08005 145.565 2.37954V17.5133H197.569L198.16 16.9402C209.299 6.02778 224.029 0.0227051 239.633 0.0227051C255.511 0.0388478 270.387 6.19728 281.566 17.3761C292.746 28.5549 298.901 43.4062 298.885 59.1937C298.885 74.7553 292.875 89.429 281.939 100.527L281.356 101.116V124.765C281.34 135.694 272.426 144.589 261.473 144.605H220.025V168.48C220.025 169.779 218.965 170.837 217.663 170.837H211.256V183.613H233.161V187.867L236.81 182.935C237.991 181.337 239.398 179.933 241 178.755C244.446 176.22 248.523 174.88 252.785 174.88C259.079 174.88 265.065 177.891 268.802 182.944C275.314 191.741 273.429 204.187 264.612 210.685C261.166 213.219 257.089 214.559 252.826 214.559C246.533 214.559 240.547 211.548 236.81 206.496L233.161 201.564V205.818H211.256V212.21C211.256 213.51 210.196 214.567 208.894 214.567H202.488V267.023H197.772L197.796 266.999ZM252.721 179.578C244.357 179.578 237.554 186.366 237.554 194.712C237.554 203.057 244.357 209.845 252.721 209.845C261.085 209.845 267.888 203.057 267.888 194.712C267.888 186.366 261.085 179.578 252.721 179.578ZM176.222 209.837H206.548V170.828H176.222V209.837ZM211.272 201.096H233.736L233.242 198.675C232.7 196.043 232.7 193.372 233.242 190.74L233.736 188.319H211.272V201.096ZM167.462 166.131H215.317V144.613H167.462V166.131ZM103.776 22.2108C95.4122 22.2108 88.6093 28.9988 88.6093 37.3446V124.765C88.6093 133.111 95.4122 139.899 103.776 139.899H261.481C269.845 139.899 276.648 133.111 276.648 124.765V105.475L273.469 107.694C263.463 114.684 251.718 118.381 239.495 118.381C227.272 118.381 215.535 114.684 205.521 107.694C178.77 89.0012 172.242 52.0829 190.969 25.3829L193.193 22.2108H103.768H103.776ZM239.576 4.7283C209.509 4.76058 185.015 29.1925 184.983 59.2018C184.983 89.2433 209.468 113.675 239.576 113.675C269.684 113.675 294.169 89.2433 294.169 59.2018C294.169 29.1603 269.684 4.7283 239.576 4.7283ZM110.515 17.5052H140.841V4.7283H110.515V17.5052Z" fill="white" fill-opacity="0.3"/>
<path d="M239.385 101.015C216.531 100.99 197.909 82.1447 197.885 59.0146C197.885 35.8601 216.498 17.0227 239.385 17.0227C262.272 17.0227 280.885 35.8601 280.885 59.0227C280.885 82.1853 262.272 101.015 239.393 101.023L239.385 101.015ZM239.377 21.7544C219.101 21.7788 202.593 38.4861 202.569 59.0064C202.569 79.5512 219.085 96.2666 239.385 96.2666C259.685 96.2666 276.202 79.5512 276.202 59.0064C276.202 38.4617 259.685 21.7463 239.385 21.7463L239.377 21.7544Z" fill="white" fill-opacity="0.3"/>
<path d="M104.261 127.023C102.951 127.023 101.885 125.963 101.885 124.661V98.3843C101.885 97.0822 102.951 96.0227 104.261 96.0227H139.51C140.82 96.0227 141.885 97.0822 141.885 98.3843V124.661C141.885 125.963 140.82 127.023 139.51 127.023H104.261ZM106.628 122.308H137.126V100.746H106.628V122.308Z" fill="white" fill-opacity="0.3"/>
<path d="M239.385 75.0227C230.834 75.0227 223.885 68.0655 223.885 59.5227C223.885 50.9799 230.842 44.0227 239.385 44.0227C247.928 44.0227 254.885 50.9799 254.885 59.5227C254.885 68.0655 247.928 75.0227 239.385 75.0227ZM239.385 48.739C233.439 48.739 228.602 53.5767 228.602 59.5227C228.602 65.4687 233.439 70.3064 239.385 70.3064C245.331 70.3064 250.169 65.4687 250.169 59.5227C250.169 53.5767 245.331 48.739 239.385 48.739Z" fill="white" fill-opacity="0.3"/>
<path d="M42.974 267.015C36.8611 267.015 31.8853 262.034 31.8853 255.916V185.972C31.8853 179.854 36.8611 174.873 42.974 174.873H85.6756L106.821 153.709C107.264 153.265 107.853 153.023 108.482 153.023C109.78 153.023 110.837 154.08 110.837 155.38V174.882H147.797C153.909 174.882 158.885 179.862 158.885 185.98V255.924C158.885 262.042 153.909 267.023 147.797 267.023H42.974V267.015ZM42.974 179.587C39.4578 179.587 36.5869 182.453 36.5869 185.98V255.924C36.5869 259.443 39.4498 262.317 42.974 262.317H147.797C151.313 262.317 154.184 259.451 154.184 255.924V185.98C154.184 182.461 151.321 179.587 147.797 179.587H108.49C107.192 179.587 106.135 178.53 106.135 177.23V161.054L88.3127 178.893C87.8691 179.337 87.2804 179.579 86.6514 179.579H42.974V179.587Z" fill="white" fill-opacity="0.3"/>
<path d="M60.2531 249.023C58.9475 249.023 57.8853 247.969 57.8853 246.673V194.373C57.8853 193.077 58.9475 192.023 60.2531 192.023H130.517C131.823 192.023 132.885 193.077 132.885 194.373V246.673C132.885 247.969 131.823 249.023 130.517 249.023H60.2531ZM62.6209 244.331H128.158V214.161H62.6209V244.331ZM105.485 209.462H128.158V196.722H118.33L105.493 209.462H105.485ZM79.1308 209.462H98.7951L111.632 196.722H91.9673L79.1308 209.462ZM62.6209 209.462H72.449L85.2855 196.722H62.6128V209.462H62.6209Z" fill="white" fill-opacity="0.3"/>
</svg>
