<svg width="412" height="324" viewBox="0 0 412 324" fill="none" xmlns="http://www.w3.org/2000/svg">
<g clip-path="url(#clip0_533_289)">
<g clip-path="url(#clip1_533_289)">
<path d="M319.989 225.095C319.599 225.095 319.203 225.016 318.832 224.86C287.022 211.472 253.456 203.623 219.07 201.532C188.42 199.671 157.732 202.443 127.848 209.778C126.281 210.16 124.69 209.234 124.27 207.687L98.5037 112.422C98.0836 110.875 98.993 109.284 100.545 108.838C130.122 100.386 158.102 87.5866 183.705 70.7911C212.432 51.9438 237.541 28.5231 258.329 1.17031C259.012 0.274217 260.153 -0.161586 261.265 0.0538674C262.377 0.269321 263.272 1.09196 263.564 2.17902L322.856 221.398C323.147 222.485 322.792 223.64 321.936 224.375C321.388 224.85 320.691 225.095 319.989 225.095ZM200.56 195.093C206.847 195.093 213.139 195.284 219.431 195.666C252.487 197.673 284.802 204.906 315.57 217.167L259.392 9.45056C238.934 35.3098 214.602 57.575 186.982 75.6926C161.686 92.2874 134.111 105.058 104.984 113.676L129.252 203.398C152.68 197.879 176.588 195.098 200.565 195.098L200.56 195.093Z" fill="white" fill-opacity="0.3"/>
<path d="M57.6213 228.086C53.4002 228.086 49.5252 225.29 48.3785 221.064L26.0278 138.428C25.3655 135.985 25.7065 133.429 26.9817 131.24C28.257 129.046 30.318 127.479 32.7894 126.828L100.593 108.828C102.174 108.407 103.8 109.337 104.226 110.904L129.992 206.164C130.417 207.731 129.478 209.342 127.896 209.763L60.0926 227.763C59.2672 227.983 58.4368 228.086 57.6213 228.086ZM99.2681 115.257L34.3265 132.499C32.394 133.013 31.2423 134.986 31.7613 136.906L54.112 219.542C54.631 221.456 56.6278 222.597 58.5604 222.088L123.502 204.847L99.273 115.262L99.2681 115.257Z" fill="white" fill-opacity="0.3"/>
<path d="M23.2795 217.421C21.1493 217.421 19.0486 216.868 17.1556 215.786C14.3136 214.16 12.2772 211.536 11.432 208.392L0.424705 167.701C-0.425432 164.562 0.00952211 161.281 1.65048 158.466C3.29145 155.65 5.94071 153.633 9.11389 152.795L31.3904 146.88C32.9721 146.459 34.5982 147.389 35.0233 148.956L50.8546 207.491C51.2797 209.058 50.3406 210.669 48.7589 211.09L26.4824 217.005C25.4247 217.284 24.3472 217.426 23.2795 217.426V217.421ZM30.0609 153.314L10.6511 158.466C9.0101 158.901 7.64098 159.944 6.79085 161.399C5.94071 162.858 5.71829 164.552 6.15819 166.178L17.1655 206.869C17.6054 208.495 18.6582 209.851 20.1261 210.693C21.599 211.536 23.3092 211.761 24.9502 211.32L44.36 206.169L30.0658 153.309L30.0609 153.314Z" fill="white" fill-opacity="0.3"/>
<path d="M298.718 146.469C297.408 146.469 296.212 145.602 295.856 144.29C295.431 142.723 296.37 141.112 297.952 140.691L306.068 138.536C313.655 136.524 319.996 131.7 323.93 124.963C327.855 118.22 328.898 110.366 326.866 102.854C322.67 87.3367 306.513 78.0918 290.844 82.254L282.729 84.4085C281.147 84.8247 279.521 83.8992 279.096 82.3323C278.671 80.7654 279.61 79.1544 281.191 78.7333L289.307 76.5787C308.134 71.5841 327.549 82.6898 332.59 101.336C335.032 110.366 333.781 119.802 329.066 127.906C324.336 136.005 316.714 141.797 307.6 144.216L299.484 146.371C299.227 146.439 298.97 146.474 298.713 146.474L298.718 146.469Z" fill="white" fill-opacity="0.3"/>
<path d="M383.792 90.6764C382.482 90.6764 381.286 89.8097 380.93 88.4974C380.505 86.9304 381.444 85.3194 383.026 84.8983L408.268 78.1997C409.849 77.7786 411.476 78.7089 411.901 80.2759C412.326 81.8428 411.387 83.4538 409.805 83.8749L384.563 90.5736C384.306 90.6421 384.049 90.6764 383.792 90.6764Z" fill="white" fill-opacity="0.3"/>
<path d="M363.888 56.5269C363.127 56.5269 362.371 56.238 361.792 55.6651C360.636 54.5193 360.636 52.6585 361.792 51.5078L380.273 33.1992C381.43 32.0534 383.308 32.0534 384.469 33.1992C385.631 34.345 385.626 36.2058 384.469 37.3565L365.989 55.6651C365.41 56.238 364.649 56.5269 363.893 56.5269H363.888Z" fill="white" fill-opacity="0.3"/>
<path d="M409.039 136.813C408.787 136.813 408.525 136.779 408.268 136.71L383.026 130.011C381.444 129.59 380.505 127.979 380.93 126.412C381.355 124.845 382.981 123.915 384.563 124.336L409.805 131.035C411.387 131.456 412.326 133.067 411.901 134.634C411.545 135.946 410.349 136.813 409.039 136.813Z" fill="white" fill-opacity="0.3"/>
<path d="M100.804 323.439C98.1546 323.439 95.5449 322.749 93.1873 321.402C89.6533 319.38 87.1226 316.119 86.0698 312.216L62.2512 224.145C61.8261 222.578 62.7652 220.967 64.3469 220.546C65.9285 220.13 67.5546 221.055 67.9797 222.622L91.7984 310.693C92.4459 313.083 93.988 315.076 96.1528 316.315C98.3177 317.549 100.834 317.882 103.241 317.24L129.308 310.321C131.72 309.68 133.732 308.152 134.982 306.007C136.233 303.862 136.564 301.37 135.917 298.985L112.098 210.914C111.673 209.347 112.612 207.736 114.194 207.315C115.775 206.899 117.401 207.824 117.826 209.391L141.645 297.463C142.703 301.365 142.159 305.444 140.118 308.945C138.076 312.446 134.785 314.953 130.84 315.996L104.773 322.915C103.458 323.263 102.124 323.439 100.799 323.439H100.804Z" fill="white" fill-opacity="0.3"/>
</g>
</g>
<defs>
<clipPath id="clip0_533_289">
<rect width="412" height="324" fill="white"/>
</clipPath>
<clipPath id="clip1_533_289">
<rect width="412" height="323.439" fill="white"/>
</clipPath>
</defs>
</svg>
