<svg width="412" height="324" viewBox="0 0 412 324" fill="none" xmlns="http://www.w3.org/2000/svg">
<g clip-path="url(#clip0_535_335)">
<path d="M207.523 322.885C147.618 322.885 98.4132 276.045 95.4803 216.253L95.3932 214.584L93.9123 213.814C56.5404 194.358 33.3101 156.201 33.3101 114.225C33.3101 52.3713 83.6328 2.03205 145.498 2.03205C165.926 2.03205 185.948 7.60756 203.4 18.1633L204.939 19.0925L206.449 18.1342C224.336 6.85254 244.968 0.88501 266.122 0.88501C327.987 0.88501 378.31 51.2098 378.31 113.078C378.31 153.427 356.401 190.873 321.134 210.809L319.697 211.622L319.653 213.277C318.986 242.65 307.007 270.194 285.94 290.84C264.844 311.516 236.982 322.9 207.523 322.9V322.885ZM103.103 222.671C109.157 275.769 154.05 315.814 207.523 315.814C260.997 315.814 307.472 273.722 312.205 219.985L312.626 215.252L308.227 217.038C294.797 222.497 280.626 225.27 266.107 225.27C245.679 225.27 225.658 219.695 208.206 209.139L206.667 208.21L205.157 209.168C187.269 220.45 166.638 226.417 145.484 226.417C132.257 226.417 119.306 224.123 106.979 219.607L102.566 217.981L103.103 222.657V222.671ZM150.072 122.719C121.092 141.71 103.292 173.653 102.478 208.166L102.435 210.126L104.235 210.896C117.317 216.5 131.212 219.346 145.513 219.346C163.342 219.346 180.983 214.758 196.532 206.09L200.336 203.97L196.91 201.269C173.113 182.554 157.68 154.691 154.544 124.838L154.05 120.105L150.072 122.719ZM257.323 122.907C254.986 153.253 240.075 181.755 216.394 201.11L213.011 203.868L216.859 205.916C231.959 213.959 248.975 218.199 266.107 218.199C281.715 218.199 296.771 214.831 310.84 208.181L312.597 207.353L312.496 205.407C310.768 170.488 291.777 138.792 261.694 120.628L257.657 118.188L257.294 122.893L257.323 122.907ZM145.498 9.10307C87.5384 9.10307 40.3808 56.2626 40.3808 114.225C40.3808 150.785 59.8943 185.298 91.3134 204.275L95.3497 206.714L95.7126 202.01C98.5729 164.738 119.814 131.445 152.525 112.961L153.963 112.148L154.006 110.493C154.747 77.737 169.774 47.0136 195.24 26.1926L198.623 23.4339L194.776 21.3866C179.69 13.3428 162.66 9.10307 145.527 9.10307H145.498ZM266.122 7.95603C248.293 7.95603 230.652 12.5442 215.102 21.2124L211.298 23.3322L214.725 26.0329C240.365 46.2005 255.973 76.3141 257.556 108.678L257.643 110.348L259.124 111.117C292.764 128.613 315.182 161.442 319.116 198.932L319.61 203.665L323.588 201.051C353.439 181.494 371.254 148.607 371.254 113.078C371.254 55.1155 324.096 7.95603 266.136 7.95603H266.122ZM207.523 105.556C191.915 105.556 176.859 108.925 162.79 115.575L161.034 116.403L161.135 118.348C162.732 150.407 178.689 179.621 204.924 198.482L206.652 199.73L208.351 198.452C234.398 178.953 249.788 149.173 250.558 116.751L250.601 114.791L248.801 114.021C235.719 108.417 221.824 105.571 207.523 105.571V105.556ZM203.255 28.8642C179.284 46.7958 164.039 74.1071 161.426 103.785L161.004 108.518L165.404 106.733C178.834 101.273 193.004 98.4999 207.523 98.4999C220.75 98.4999 233.701 100.794 246.028 105.31L250.441 106.936L249.904 102.26C246.565 72.9455 230.797 46.186 206.681 28.8497L204.953 27.601L203.255 28.8787V28.8642Z" fill="white" fill-opacity="0.3"/>
<path d="M207.523 147.605C205.142 147.605 203.211 145.674 203.211 143.293C203.211 140.912 205.142 138.98 207.523 138.98C209.904 138.98 211.835 140.912 211.835 143.293C211.835 145.674 209.904 147.605 207.523 147.605Z" fill="white" fill-opacity="0.3"/>
</g>
<defs>
<clipPath id="clip0_535_335">
<rect width="345" height="322" fill="white" transform="translate(33.3101 0.88501)"/>
</clipPath>
</defs>
</svg>
