<svg width="350" height="268" viewBox="0 0 350 268" fill="none" xmlns="http://www.w3.org/2000/svg">
<g clip-path="url(#clip0_535_422)">
<path d="M20.2612 266.91C9.08718 266.91 0 257.818 0 246.649V20.9629C0 9.79355 9.09189 0.70166 20.2612 0.70166H329.734C340.908 0.70166 349.995 9.79355 349.995 20.9629V246.644C349.995 257.818 340.903 266.906 329.734 266.906H20.2612V266.91ZM327.27 260.113C328.245 260.353 329.235 260.471 330.21 260.471C333.616 260.471 336.904 259.01 339.457 256.363C342.288 253.423 343.9 249.292 343.763 245.297C343.749 175.902 343.753 121.054 343.777 72.6972C343.777 70.8317 342.265 69.3101 340.404 69.3101H9.65719C7.82939 69.3101 6.34077 70.8034 6.34077 72.6406C6.37845 172.218 6.35961 232.257 6.28895 237.364C6.17589 245.16 6.84012 249.998 8.37584 252.58C11.3295 257.531 15.9226 260.042 22.0184 260.042C52.7282 260.051 81.5067 260.056 108.363 260.056C135.219 260.056 158.953 260.056 181.513 260.051C200.94 260.051 219.02 260.047 235.753 260.047C266.242 260.047 300.946 260.056 327.266 260.113H327.27ZM5.99217 60.4208L6.56218 61.0426C7.33004 61.8717 7.62211 62.1779 36.1744 62.4323C52.0499 62.5736 74.3085 62.6396 104.218 62.6396C146.101 62.6396 194.863 62.503 237.887 62.3852C270.901 62.2957 299.411 62.2156 318.249 62.2156C333.272 62.2156 338.68 62.2674 340.31 62.3239L340.366 62.3805H341.144C342.604 62.3805 343.791 61.1933 343.791 59.733V23.5774C343.791 14.7776 336.541 7.61715 327.628 7.61715H22.2068C13.2939 7.61715 6.04399 14.7776 6.04399 23.5774V58.1831C6.04399 58.8144 6.04399 59.2713 6.05812 59.6199V59.6011L5.99217 60.4208Z" fill="white" fill-opacity="0.3"/>
<path d="M156.563 215.85C156.228 215.85 155.903 215.789 155.592 215.661L154.104 215.063C153.458 214.804 152.954 214.314 152.681 213.673C152.408 213.028 152.398 212.321 152.657 211.676L192.973 111.392C193.373 110.398 194.325 109.757 195.394 109.757C195.728 109.757 196.053 109.819 196.364 109.946L197.853 110.544C198.498 110.803 199.002 111.293 199.276 111.934C199.549 112.579 199.558 113.286 199.299 113.936L158.984 214.22C158.583 215.214 157.632 215.854 156.563 215.854V215.85Z" fill="white" fill-opacity="0.3"/>
<path d="M128.536 201.161C127.698 201.161 126.906 200.836 126.317 200.243C111.069 185.055 100.771 174.677 96.5356 170.221C92.9318 166.4 89.8839 163.588 87.4861 161.864C87.1705 160.545 87.293 159.857 87.4955 159.654C91.0993 156.079 94.7361 152.4 98.2551 148.843C107.102 139.902 116.246 130.655 125.696 122.147C126.341 121.567 127.18 121.247 128.046 121.247C129.012 121.247 129.912 121.629 130.581 122.326L130.647 122.392L130.915 122.646C131.485 123.207 131.806 123.984 131.801 124.818C131.796 125.652 131.457 126.434 130.854 127.013L98.924 157.454C98.0902 158.255 97.6144 159.367 97.6097 160.521C97.6097 161.689 98.0619 162.778 98.8957 163.588L130.896 194.651C131.627 195.353 132.032 196.3 132.046 197.313C132.06 198.354 131.66 199.338 130.925 200.083L130.878 200.13C130.27 200.789 129.436 201.152 128.536 201.152V201.161Z" fill="white" fill-opacity="0.3"/>
<path d="M219.873 201.981C219.054 201.981 218.262 201.741 217.579 201.284L217.532 201.256C216.863 200.836 216.434 200.144 216.35 199.362C216.265 198.599 216.529 197.854 217.075 197.322L249.848 164.86C250.545 164.163 250.922 163.244 250.918 162.274C250.918 161.308 250.531 160.399 249.839 159.725L216.726 126.599C216.307 126.179 216.109 125.614 216.189 125.03C216.265 124.446 216.604 123.942 217.113 123.65L219.298 122.387C219.722 122.142 220.198 122.01 220.679 122.01C221.395 122.01 222.078 122.288 222.591 122.788C232.705 132.548 240.45 140.251 245.613 145.687C247.135 147.293 249.773 149.733 253.447 152.942C255.925 155.123 258.233 157.624 260.301 160.366C260.65 160.827 260.711 161.459 260.462 161.972C259.647 163.654 258.639 165.067 257.39 166.292C255.346 168.294 242.74 180.858 222.803 200.771C222.021 201.552 220.98 201.986 219.878 201.986L219.873 201.981Z" fill="white" fill-opacity="0.3"/>
</g>
<defs>
<clipPath id="clip0_535_422">
<rect width="350" height="266.209" fill="white" transform="translate(0 0.70166)"/>
</clipPath>
</defs>
</svg>
