<svg width="100" height="94" viewBox="0 0 100 94" fill="none" xmlns="http://www.w3.org/2000/svg">
<g clip-path="url(#clip0_980_845)">
<path d="M50.4966 93.3333C33.1327 93.3333 18.8705 79.7565 18.0204 62.4256L17.9951 61.9417L17.5659 61.7186C6.73344 56.0791 0 45.019 0 32.8521C0 14.9236 14.5863 0.332477 32.5183 0.332477C38.4395 0.332477 44.2429 1.94857 49.3014 5.00819L49.7475 5.27754L50.1852 4.99977C55.3699 1.72972 61.3501 0 67.4817 0C85.4137 0 100 14.5869 100 32.5196C100 44.2152 93.6495 55.0691 83.4273 60.8474L83.0107 61.0831L82.9981 61.5629C82.8045 70.0768 79.3326 78.0605 73.2262 84.045C67.1114 90.038 59.0354 93.3375 50.4966 93.3375V93.3333ZM20.2298 64.2858C21.9847 79.6765 34.9971 91.2838 50.4966 91.2838C65.9961 91.2838 79.4672 79.0831 80.8391 63.5072L80.9612 62.1353L79.6861 62.6529C75.7933 64.2353 71.6859 65.0392 67.4775 65.0392C61.5563 65.0392 55.7529 63.4231 50.6944 60.3634L50.2483 60.0941L49.8106 60.3719C44.6259 63.6419 38.6457 65.3716 32.5141 65.3716C28.6802 65.3716 24.9264 64.7067 21.3534 63.3978L20.0741 62.9265L20.2298 64.2816V64.2858ZM33.844 35.3141C25.444 40.8189 20.2845 50.0777 20.0488 60.0815L20.0362 60.6496L20.558 60.8727C24.3498 62.4972 28.3772 63.3221 32.5225 63.3221C37.6904 63.3221 42.8036 61.9922 47.3108 59.4796L48.4134 58.8652L47.4202 58.0824C40.5227 52.6576 36.0492 44.5813 35.1401 35.9285L34.9971 34.5565L33.844 35.3141ZM64.9314 35.3688C64.2538 44.1647 59.9318 52.4261 53.0679 58.0361L52.0874 58.8357L53.2026 59.4291C57.5793 61.7607 62.5116 62.9896 67.4775 62.9896C72.0015 62.9896 76.3656 62.0132 80.4436 60.0857L80.9528 59.8458L80.9233 59.2818C80.4225 49.1602 74.9179 39.9729 66.1981 34.708L65.0282 34.001L64.923 35.3646L64.9314 35.3688ZM32.5183 2.38205C15.7184 2.38205 2.04949 16.0515 2.04949 32.8521C2.04949 43.4492 7.70558 53.453 16.8126 58.9536L17.9825 59.6606L18.0877 58.297C18.9168 47.4937 25.0736 37.8434 34.5552 32.4859L34.9718 32.2502L34.9844 31.7705C35.1991 22.2759 39.5547 13.3706 46.9363 7.33553L47.9168 6.5359L46.8016 5.94249C42.4291 3.61095 37.4926 2.38205 32.5267 2.38205H32.5183ZM67.4817 2.04957C62.3138 2.04957 57.2006 3.37948 52.6934 5.89199L51.5908 6.50644L52.584 7.28923C60.016 13.1349 64.54 21.8635 64.9987 31.2444L65.024 31.7284L65.4532 31.9514C75.2041 37.0227 81.7019 46.5383 82.8424 57.4048L82.9854 58.7768L84.1385 58.0193C92.791 52.3503 97.9547 42.8179 97.9547 32.5196C97.9547 15.719 84.2858 2.04957 67.4859 2.04957H67.4817ZM50.4966 30.3395C45.9726 30.3395 41.6085 31.3159 37.5305 33.2435L37.0213 33.4833L37.0508 34.0473C37.5137 43.3398 42.1387 51.8074 49.7433 57.2744L50.2441 57.6363L50.7365 57.2659C58.2863 51.6138 62.7472 42.9821 62.9703 33.5843L62.9829 33.0162L62.4611 32.7931C58.6693 31.1686 54.6419 30.3438 50.4966 30.3438V30.3395ZM49.2593 8.1099C42.3113 13.3075 37.8924 21.2238 37.1349 29.8261L37.0129 31.1981L38.288 30.6804C42.1808 29.098 46.2882 28.2942 50.4966 28.2942C54.3304 28.2942 58.0843 28.9591 61.6573 30.268L62.9366 30.7394L62.7809 29.3842C61.813 20.8871 57.2427 13.1307 50.2525 8.1057L49.7517 7.74376L49.2593 8.11411V8.1099Z" fill="white"/>
<path d="M50.4965 42.5276C49.8063 42.5276 49.2466 41.9679 49.2466 41.2777C49.2466 40.5874 49.8063 40.0277 50.4965 40.0277C51.1867 40.0277 51.7464 40.5874 51.7464 41.2777C51.7464 41.9679 51.1867 42.5276 50.4965 42.5276Z" fill="white"/>
</g>
<defs>
<clipPath id="clip0_980_845">
<rect width="100" height="93.3333" fill="white"/>
</clipPath>
</defs>
</svg>
