<svg width="603" height="595" viewBox="0 0 603 595" fill="none" xmlns="http://www.w3.org/2000/svg">
<g clip-path="url(#clip0_527_251)">
<g filter="url(#filter0_n_527_251)">
<g clip-path="url(#paint0_diamond_527_251_clip_path)" data-figma-skip-parse="true"><g transform="matrix(-0.1525 0.108 -0.0954309 -0.134752 301.5 297.5)"><rect x="0" y="0" width="2244.24" height="2534.05" fill="url(#paint0_diamond_527_251)" opacity="1" shape-rendering="crispEdges"/><rect x="0" y="0" width="2244.24" height="2534.05" transform="scale(1 -1)" fill="url(#paint0_diamond_527_251)" opacity="1" shape-rendering="crispEdges"/><rect x="0" y="0" width="2244.24" height="2534.05" transform="scale(-1 1)" fill="url(#paint0_diamond_527_251)" opacity="1" shape-rendering="crispEdges"/><rect x="0" y="0" width="2244.24" height="2534.05" transform="scale(-1)" fill="url(#paint0_diamond_527_251)" opacity="1" shape-rendering="crispEdges"/></g></g><ellipse cx="301.5" cy="297.5" rx="301.5" ry="297.5" data-figma-gradient-fill="{&#34;type&#34;:&#34;GRADIENT_DIAMOND&#34;,&#34;stops&#34;:[{&#34;color&#34;:{&#34;r&#34;:0.086274512112140656,&#34;g&#34;:0.25490197539329529,&#34;b&#34;:0.94901961088180542,&#34;a&#34;:1.0},&#34;position&#34;:0.0},{&#34;color&#34;:{&#34;r&#34;:0.0,&#34;g&#34;:0.0,&#34;b&#34;:0.0,&#34;a&#34;:0.0},&#34;position&#34;:1.0}],&#34;stopsVar&#34;:[{&#34;color&#34;:{&#34;r&#34;:0.086274512112140656,&#34;g&#34;:0.25490197539329529,&#34;b&#34;:0.94901961088180542,&#34;a&#34;:1.0},&#34;position&#34;:0.0},{&#34;color&#34;:{&#34;r&#34;:0.0,&#34;g&#34;:0.0,&#34;b&#34;:0.0,&#34;a&#34;:0.0},&#34;position&#34;:1.0}],&#34;transform&#34;:{&#34;m00&#34;:-304.99996948242188,&#34;m01&#34;:-190.861816406250,&#34;m02&#34;:549.4309082031250,&#34;m10&#34;:215.99996948242188,&#34;m11&#34;:-269.50393676757812,&#34;m12&#34;:324.25201416015625},&#34;opacity&#34;:1.0,&#34;blendMode&#34;:&#34;NORMAL&#34;,&#34;visible&#34;:true}"/>
</g>
<path d="M387.875 233.662C386.869 232.276 387.178 230.332 388.568 229.327C389.954 228.321 391.898 228.629 392.904 230.02C399.931 239.709 405.501 250.548 409.278 262.207C412.925 273.455 414.894 285.444 414.894 297.871C414.894 329.818 401.943 358.743 381.008 379.681C360.07 400.619 331.15 413.567 299.199 413.567C267.249 413.567 238.328 400.615 217.39 379.681C196.451 358.743 183.504 329.818 183.504 297.871C183.504 265.925 196.456 237 217.39 216.062C238.328 195.124 267.253 182.176 299.199 182.176C311.707 182.176 323.767 184.171 335.071 187.856C346.772 191.671 357.657 197.304 367.393 204.42C368.775 205.434 369.075 207.374 368.061 208.756C367.047 210.138 365.107 210.438 363.725 209.424C354.522 202.696 344.228 197.368 333.153 193.759C322.474 190.277 311.065 188.396 299.199 188.396C268.968 188.396 241.599 200.651 221.784 220.461C201.974 240.271 189.72 267.645 189.72 297.876C189.72 328.106 201.974 355.48 221.784 375.29C241.594 395.1 268.964 407.355 299.199 407.355C329.434 407.355 356.799 395.1 376.614 375.29C396.424 355.48 408.678 328.11 408.678 297.876C408.678 286.073 406.819 274.723 403.379 264.108C399.817 253.109 394.543 242.861 387.879 233.671L387.875 233.662Z" fill="white" fill-opacity="0.4"/>
<path d="M355.36 265.723C354.506 264.235 355.026 262.338 356.514 261.484C358.001 260.631 359.898 261.151 360.752 262.638C363.769 267.899 366.136 273.599 367.737 279.629C369.288 285.465 370.116 291.584 370.116 297.872C370.116 317.454 362.18 335.185 349.343 348.018C336.509 360.851 318.778 368.792 299.196 368.792C279.615 368.792 261.884 360.856 249.05 348.022C236.217 335.189 228.277 317.458 228.277 297.876C228.277 278.294 236.217 260.563 249.05 247.73C261.884 234.896 279.615 226.96 299.196 226.96C305.569 226.96 311.755 227.806 317.65 229.394C323.727 231.03 329.482 233.455 334.802 236.549C336.285 237.406 336.788 239.304 335.93 240.787C335.072 242.27 333.175 242.773 331.692 241.915C326.845 239.092 321.593 236.882 316.044 235.391C310.682 233.95 305.032 233.176 299.192 233.176C281.326 233.176 265.15 240.419 253.441 252.124C241.731 263.834 234.493 280.01 234.493 297.876C234.493 315.742 241.735 331.918 253.441 343.628C265.15 355.337 281.322 362.576 299.192 362.576C317.063 362.576 333.234 355.333 344.944 343.623C356.653 331.914 363.896 315.738 363.896 297.872C363.896 292.091 363.144 286.509 361.737 281.21C360.283 275.742 358.124 270.544 355.356 265.727L355.36 265.723Z" fill="white" fill-opacity="0.4"/>
<path d="M315.038 303.259C315.587 301.636 317.349 300.766 318.972 301.315C320.594 301.865 321.465 303.627 320.916 305.249C319.356 309.839 316.39 313.773 312.536 316.532C308.775 319.224 304.169 320.813 299.195 320.813C292.861 320.813 287.127 318.243 282.973 314.094C278.823 309.944 276.254 304.206 276.254 297.871C276.254 292.729 277.961 287.966 280.843 284.125C283.784 280.204 287.955 277.254 292.789 275.851C294.433 275.374 296.149 276.32 296.626 277.964C297.104 279.608 296.157 281.324 294.513 281.801C290.993 282.824 287.947 284.979 285.8 287.844C283.713 290.629 282.474 294.098 282.474 297.871C282.474 302.49 284.346 306.673 287.372 309.699C290.398 312.725 294.577 314.597 299.195 314.597C302.825 314.597 306.181 313.443 308.919 311.482C311.737 309.462 313.905 306.597 315.038 303.263V303.259Z" fill="white" fill-opacity="0.4"/>
<path d="M426.882 213.59C425.936 212.162 426.329 210.235 427.757 209.293C429.185 208.346 431.112 208.739 432.055 210.168C440.519 222.963 447.187 237.047 451.691 252.061C456.048 266.576 458.393 281.958 458.393 297.872C458.393 341.832 440.574 381.633 411.767 410.44C382.956 439.251 343.159 457.066 299.199 457.066C255.239 457.066 215.441 439.246 186.631 410.44C157.82 381.629 140 341.832 140 297.872C140 253.912 157.82 214.11 186.626 185.304C215.437 156.493 255.235 138.673 299.195 138.673C315.185 138.673 330.634 141.035 345.204 145.434C360.281 149.981 374.42 156.708 387.245 165.244C388.674 166.191 389.067 168.113 388.12 169.542C387.173 170.97 385.251 171.363 383.822 170.416C371.496 162.219 357.919 155.753 343.433 151.384C329.438 147.163 314.585 144.893 299.199 144.893C256.955 144.893 218.712 162.016 191.025 189.698C163.339 217.381 146.216 255.628 146.216 297.872C146.216 340.116 163.339 378.363 191.021 406.045C218.704 433.728 256.95 450.85 299.195 450.85C341.439 450.85 379.681 433.728 407.368 406.045C435.051 378.363 452.173 340.116 452.173 297.872C452.173 282.554 449.925 267.768 445.742 253.832C441.41 239.405 435.008 225.874 426.882 213.59Z" fill="white" fill-opacity="0.4"/>
<path d="M394.167 204.421C394.311 204.607 394.476 204.793 394.657 204.974V204.983L394.67 204.974C397.108 207.412 401.947 208.651 406.84 208.866C411.792 209.086 416.572 208.275 418.871 206.622C418.997 206.534 419.133 206.411 419.285 206.263L454.569 170.979L432.938 167.814C431.526 167.606 430.479 166.482 430.305 165.13L426.954 142.21L391.095 178.069C389.151 180.013 388.399 185.029 388.872 190.421C389.329 195.602 390.973 200.892 393.85 204.007C393.969 204.138 394.074 204.273 394.167 204.412V204.421ZM390.28 209.365C389.891 208.976 389.532 208.562 389.198 208.122C385.382 203.926 383.235 197.3 382.677 190.962C382.056 183.901 383.438 176.933 386.696 173.679L426.929 133.442C427.39 132.985 427.99 132.668 428.678 132.567C430.373 132.318 431.953 133.492 432.198 135.191L436.12 162.007L461.436 165.709C462.129 165.777 462.805 166.073 463.333 166.605C464.546 167.818 464.546 169.787 463.333 171L423.675 210.658C423.354 210.979 422.953 211.309 422.484 211.647C419.078 214.098 412.777 215.331 406.565 215.057C400.294 214.778 393.88 212.982 390.267 209.369H390.275L390.28 209.365Z" fill="white" fill-opacity="0.4"/>
<path d="M304.92 296.431C303.708 297.639 301.743 297.631 300.538 296.418C299.33 295.205 299.338 293.24 300.551 292.036L389.379 203.918C390.592 202.709 392.557 202.717 393.761 203.93C394.966 205.143 394.961 207.108 393.749 208.312L304.92 296.431Z" fill="white" fill-opacity="0.4"/>
</g>
<defs>
<filter id="filter0_n_527_251" x="0" y="0" width="603" height="595" filterUnits="userSpaceOnUse" color-interpolation-filters="sRGB">
<feFlood flood-opacity="0" result="BackgroundImageFix"/>
<feBlend mode="normal" in="SourceGraphic" in2="BackgroundImageFix" result="shape"/>
<feTurbulence type="fractalNoise" baseFrequency="0.66666668653488159 0.66666668653488159" stitchTiles="stitch" numOctaves="3" result="noise" seed="2162" />
<feColorMatrix in="noise" type="luminanceToAlpha" result="alphaNoise" />
<feComponentTransfer in="alphaNoise" result="coloredNoise1">
<feFuncA type="discrete" tableValues="1 1 1 1 1 1 1 1 1 1 1 1 1 1 1 1 1 1 1 1 1 1 1 1 1 1 1 1 1 1 1 1 1 1 1 1 1 1 1 1 1 1 1 1 1 1 1 1 1 1 1 0 0 0 0 0 0 0 0 0 0 0 0 0 0 0 0 0 0 0 0 0 0 0 0 0 0 0 0 0 0 0 0 0 0 0 0 0 0 0 0 0 0 0 0 0 0 0 0 0 "/>
</feComponentTransfer>
<feComposite operator="in" in2="shape" in="coloredNoise1" result="noise1Clipped" />
<feFlood flood-color="rgba(0, 0, 0, 0.25)" result="color1Flood" />
<feComposite operator="in" in2="noise1Clipped" in="color1Flood" result="color1" />
<feMerge result="effect1_noise_527_251">
<feMergeNode in="shape" />
<feMergeNode in="color1" />
</feMerge>
</filter>
<clipPath id="paint0_diamond_527_251_clip_path"><ellipse cx="301.5" cy="297.5" rx="301.5" ry="297.5"/></clipPath><linearGradient id="paint0_diamond_527_251" x1="0" y1="0" x2="500" y2="500" gradientUnits="userSpaceOnUse">
<stop stop-color="#1641F2"/>
<stop offset="1" stop-opacity="0"/>
</linearGradient>
<clipPath id="clip0_527_251">
<rect width="603" height="595" fill="white"/>
</clipPath>
</defs>
</svg>
