<svg width="350" height="268" viewBox="0 0 350 268" fill="none" xmlns="http://www.w3.org/2000/svg">
<g clip-path="url(#clip0_1414_40)">
<path d="M20.2613 266.91C9.08718 266.91 0 257.818 0 246.649V20.9628C0 9.79346 9.09189 0.701569 20.2613 0.701569H329.734C340.908 0.701569 349.995 9.79346 349.995 20.9628V246.644C349.995 257.818 340.903 266.905 329.734 266.905H20.2613V266.91ZM327.27 260.112C328.245 260.353 329.235 260.47 330.21 260.47C333.616 260.47 336.904 259.01 339.457 256.363C342.288 253.423 343.9 249.292 343.763 245.297C343.749 175.902 343.753 121.054 343.777 72.6971C343.777 70.8316 342.265 69.31 340.404 69.31H9.65719C7.82939 69.31 6.34077 70.8033 6.34077 72.6406C6.37845 172.218 6.35961 232.257 6.28895 237.364C6.17589 245.16 6.84012 249.998 8.37584 252.58C11.3295 257.531 15.9226 260.042 22.0184 260.042C52.7282 260.051 81.5067 260.056 108.363 260.056C135.219 260.056 158.953 260.056 181.513 260.051C200.94 260.051 219.02 260.047 235.753 260.047C266.242 260.047 300.946 260.056 327.266 260.112H327.27ZM5.99217 60.4207L6.56218 61.0425C7.33004 61.8716 7.62211 62.1778 36.1744 62.4322C52.0499 62.5735 74.3085 62.6395 104.218 62.6395C146.101 62.6395 194.863 62.5029 237.887 62.3851C270.901 62.2956 299.411 62.2155 318.249 62.2155C333.272 62.2155 338.68 62.2673 340.31 62.3238L340.366 62.3804H341.144C342.604 62.3804 343.791 61.1932 343.791 59.7329V23.5773C343.791 14.7775 336.541 7.61706 327.628 7.61706H22.2068C13.2939 7.61706 6.04399 14.7775 6.04399 23.5773V58.183C6.04399 58.8143 6.04399 59.2712 6.05812 59.6198V59.601L5.99217 60.4207Z" fill="white"/>
<path d="M156.562 215.85C156.228 215.85 155.903 215.788 155.592 215.661L154.103 215.063C153.458 214.804 152.954 214.314 152.681 213.673C152.407 213.028 152.398 212.321 152.657 211.676L192.972 111.392C193.373 110.398 194.324 109.757 195.394 109.757C195.728 109.757 196.053 109.818 196.364 109.946L197.853 110.544C198.498 110.803 199.002 111.293 199.275 111.934C199.549 112.579 199.558 113.286 199.299 113.936L158.984 214.22C158.583 215.214 157.632 215.854 156.562 215.854V215.85Z" fill="white"/>
<path d="M128.536 201.161C127.698 201.161 126.906 200.836 126.318 200.243C111.069 185.055 100.771 174.677 96.5357 170.221C92.932 166.4 89.8841 163.588 87.4863 161.864C87.1706 160.545 87.2931 159.857 87.4957 159.654C91.0994 156.079 94.7362 152.4 98.2552 148.843C107.102 139.902 116.246 130.655 125.696 122.147C126.341 121.567 127.18 121.247 128.046 121.247C129.012 121.247 129.912 121.629 130.581 122.326L130.647 122.392L130.915 122.646C131.485 123.207 131.806 123.984 131.801 124.818C131.796 125.652 131.457 126.434 130.854 127.013L98.9241 157.454C98.0903 158.255 97.6145 159.367 97.6098 160.521C97.6098 161.689 98.062 162.778 98.8959 163.588L130.896 194.651C131.627 195.353 132.032 196.3 132.046 197.313C132.06 198.354 131.66 199.338 130.925 200.083L130.878 200.13C130.27 200.789 129.436 201.152 128.536 201.152V201.161Z" fill="white"/>
<path d="M219.873 201.981C219.054 201.981 218.262 201.741 217.579 201.284L217.532 201.256C216.863 200.836 216.435 200.144 216.35 199.362C216.265 198.599 216.529 197.854 217.075 197.322L249.848 164.86C250.546 164.163 250.922 163.244 250.918 162.273C250.918 161.308 250.531 160.399 249.839 159.725L216.727 126.598C216.307 126.179 216.11 125.614 216.19 125.03C216.265 124.446 216.604 123.941 217.113 123.649L219.299 122.387C219.723 122.142 220.199 122.01 220.679 122.01C221.395 122.01 222.078 122.288 222.592 122.787C232.706 132.548 240.45 140.25 245.613 145.687C247.135 147.293 249.773 149.733 253.447 152.941C255.925 155.122 258.234 157.624 260.302 160.366C260.65 160.827 260.712 161.458 260.462 161.972C259.647 163.654 258.639 165.067 257.39 166.292C255.346 168.294 242.74 180.858 222.804 200.77C222.022 201.552 220.98 201.986 219.878 201.986L219.873 201.981Z" fill="white"/>
</g>
<defs>
<clipPath id="clip0_1414_40">
<rect width="350" height="266.209" fill="white" transform="translate(0 0.701569)"/>
</clipPath>
</defs>
</svg>
