<svg width="603" height="595" viewBox="0 0 603 595" fill="none" xmlns="http://www.w3.org/2000/svg">
<g clip-path="url(#clip0_535_385)">
<g filter="url(#filter0_n_535_385)">
<g clip-path="url(#paint0_diamond_535_385_clip_path)" data-figma-skip-parse="true"><g transform="matrix(-0.1525 0.108 -0.0954309 -0.134752 301.5 297.5)"><rect x="0" y="0" width="2244.24" height="2534.05" fill="url(#paint0_diamond_535_385)" opacity="1" shape-rendering="crispEdges"/><rect x="0" y="0" width="2244.24" height="2534.05" transform="scale(1 -1)" fill="url(#paint0_diamond_535_385)" opacity="1" shape-rendering="crispEdges"/><rect x="0" y="0" width="2244.24" height="2534.05" transform="scale(-1 1)" fill="url(#paint0_diamond_535_385)" opacity="1" shape-rendering="crispEdges"/><rect x="0" y="0" width="2244.24" height="2534.05" transform="scale(-1)" fill="url(#paint0_diamond_535_385)" opacity="1" shape-rendering="crispEdges"/></g></g><ellipse cx="301.5" cy="297.5" rx="301.5" ry="297.5" data-figma-gradient-fill="{&#34;type&#34;:&#34;GRADIENT_DIAMOND&#34;,&#34;stops&#34;:[{&#34;color&#34;:{&#34;r&#34;:0.086274512112140656,&#34;g&#34;:0.25490197539329529,&#34;b&#34;:0.94901961088180542,&#34;a&#34;:1.0},&#34;position&#34;:0.0},{&#34;color&#34;:{&#34;r&#34;:0.0,&#34;g&#34;:0.0,&#34;b&#34;:0.0,&#34;a&#34;:0.0},&#34;position&#34;:1.0}],&#34;stopsVar&#34;:[{&#34;color&#34;:{&#34;r&#34;:0.086274512112140656,&#34;g&#34;:0.25490197539329529,&#34;b&#34;:0.94901961088180542,&#34;a&#34;:1.0},&#34;position&#34;:0.0},{&#34;color&#34;:{&#34;r&#34;:0.0,&#34;g&#34;:0.0,&#34;b&#34;:0.0,&#34;a&#34;:0.0},&#34;position&#34;:1.0}],&#34;transform&#34;:{&#34;m00&#34;:-304.99996948242188,&#34;m01&#34;:-190.861816406250,&#34;m02&#34;:549.4309082031250,&#34;m10&#34;:215.99996948242188,&#34;m11&#34;:-269.50393676757812,&#34;m12&#34;:324.25201416015625},&#34;opacity&#34;:1.0,&#34;blendMode&#34;:&#34;NORMAL&#34;,&#34;visible&#34;:true}"/>
</g>
<g clip-path="url(#clip1_535_385)">
<path d="M196.364 453C195.622 453 194.937 452.715 194.409 452.187L147.813 405.591C147.285 405.063 147 404.378 147 403.636C147 402.894 147.285 402.209 147.813 401.681L251.008 298.486L155.962 203.468C151.624 199.13 149.241 193.35 149.241 187.199C149.241 181.048 151.624 175.268 155.962 170.93L173.915 152.977C178.268 148.624 184.048 146.226 190.185 146.226C196.321 146.226 202.115 148.624 206.454 152.977L301.486 248.008L404.695 144.813C405.223 144.285 405.908 144 406.65 144C407.392 144 408.077 144.285 408.605 144.813L455.201 191.409C455.729 191.937 456.014 192.622 456.014 193.364C456.014 194.106 455.729 194.791 455.201 195.319L352.02 298.5L451.034 397.514C451.191 397.671 451.319 397.828 451.419 397.985L451.447 398.056L451.676 398.527C451.733 398.655 451.79 398.926 451.819 399.226L451.861 399.654L451.89 399.74L454.858 448.918C454.901 449.703 454.616 450.474 454.059 451.031C453.531 451.559 452.846 451.844 452.104 451.844H451.918L402.669 448.861C402.483 448.804 402.297 448.776 402.112 448.747C401.884 448.719 401.712 448.676 401.555 448.619C401.441 448.576 401.327 448.519 401.227 448.476C401.099 448.405 400.97 448.348 400.842 448.29C400.742 448.219 400.642 448.134 400.556 448.034L400.185 447.677L301.514 349.006L198.319 452.201C197.791 452.729 197.106 453.014 196.364 453.014V453ZM153.665 403.65L196.364 446.35L297.604 345.11L254.905 302.41L237.651 319.664L263.624 345.638C264.152 346.166 264.438 346.851 264.438 347.593C264.438 348.335 264.152 349.02 263.624 349.548C263.096 350.076 262.411 350.362 261.669 350.362C260.927 350.362 260.242 350.076 259.714 349.548L233.74 323.574L216.486 340.828L231.685 356.027C232.213 356.555 232.499 357.24 232.499 357.982C232.499 358.724 232.213 359.409 231.685 359.938C231.157 360.466 230.472 360.751 229.73 360.751C228.988 360.751 228.303 360.466 227.775 359.938L212.576 344.739L195.322 361.993L210.521 377.191C211.049 377.719 211.335 378.404 211.335 379.147C211.335 379.889 211.049 380.574 210.521 381.102C209.993 381.63 209.308 381.915 208.566 381.915C207.824 381.915 207.139 381.63 206.611 381.102L191.412 365.903L174.158 383.157L200.132 409.13C200.66 409.658 200.945 410.343 200.945 411.085C200.945 411.828 200.66 412.513 200.132 413.041C199.604 413.569 198.919 413.854 198.177 413.854C197.434 413.854 196.749 413.569 196.221 413.041L170.248 387.067L153.622 403.693L153.665 403.65ZM422.677 419.662L407.335 443.61L449.15 446.136L446.624 404.321L422.677 419.662ZM173.816 213.515L402.012 441.697L417.168 418.036L193.224 194.106L173.816 213.501V213.515ZM197.12 190.21L421.064 414.139L444.711 398.998L345.983 300.284H345.955L299.959 254.259L216.515 170.816L197.12 190.21ZM305.41 251.905L348.11 294.604L449.35 193.364L406.65 150.665L390.039 167.276L416.012 193.25C416.54 193.778 416.826 194.463 416.826 195.205C416.826 195.947 416.54 196.632 416.012 197.16C415.484 197.688 414.799 197.974 414.057 197.974C413.315 197.974 412.63 197.688 412.102 197.16L386.128 171.187L368.874 188.441L384.073 203.639C384.601 204.167 384.887 204.852 384.887 205.594C384.887 206.337 384.601 207.022 384.073 207.55C383.545 208.078 382.86 208.363 382.118 208.363C381.376 208.363 380.691 208.078 380.163 207.55L364.964 192.351L347.71 209.605L362.909 224.804C363.437 225.332 363.722 226.017 363.722 226.759C363.722 227.501 363.437 228.186 362.909 228.714C362.395 229.242 361.696 229.527 360.954 229.527C360.212 229.527 359.527 229.242 358.999 228.714L343.8 213.515L326.546 230.769L352.52 256.742C353.048 257.271 353.333 257.956 353.333 258.698C353.333 259.44 353.048 260.125 352.52 260.653C351.991 261.181 351.306 261.466 350.564 261.466C349.822 261.466 349.137 261.181 348.609 260.653L322.636 234.679L305.382 251.933L305.41 251.905ZM190.199 151.878C185.504 151.878 180.994 153.69 177.826 156.873L159.873 174.826C153.051 181.647 153.051 192.75 159.873 199.572L169.92 209.619L212.619 166.92L202.572 156.873C199.404 153.704 194.894 151.878 190.199 151.878Z" fill="white" fill-opacity="0.4"/>
</g>
</g>
<defs>
<filter id="filter0_n_535_385" x="0" y="0" width="603" height="595" filterUnits="userSpaceOnUse" color-interpolation-filters="sRGB">
<feFlood flood-opacity="0" result="BackgroundImageFix"/>
<feBlend mode="normal" in="SourceGraphic" in2="BackgroundImageFix" result="shape"/>
<feTurbulence type="fractalNoise" baseFrequency="0.66666668653488159 0.66666668653488159" stitchTiles="stitch" numOctaves="3" result="noise" seed="2162" />
<feColorMatrix in="noise" type="luminanceToAlpha" result="alphaNoise" />
<feComponentTransfer in="alphaNoise" result="coloredNoise1">
<feFuncA type="discrete" tableValues="1 1 1 1 1 1 1 1 1 1 1 1 1 1 1 1 1 1 1 1 1 1 1 1 1 1 1 1 1 1 1 1 1 1 1 1 1 1 1 1 1 1 1 1 1 1 1 1 1 1 1 0 0 0 0 0 0 0 0 0 0 0 0 0 0 0 0 0 0 0 0 0 0 0 0 0 0 0 0 0 0 0 0 0 0 0 0 0 0 0 0 0 0 0 0 0 0 0 0 0 "/>
</feComponentTransfer>
<feComposite operator="in" in2="shape" in="coloredNoise1" result="noise1Clipped" />
<feFlood flood-color="rgba(0, 0, 0, 0.25)" result="color1Flood" />
<feComposite operator="in" in2="noise1Clipped" in="color1Flood" result="color1" />
<feMerge result="effect1_noise_535_385">
<feMergeNode in="shape" />
<feMergeNode in="color1" />
</feMerge>
</filter>
<clipPath id="paint0_diamond_535_385_clip_path"><ellipse cx="301.5" cy="297.5" rx="301.5" ry="297.5"/></clipPath><linearGradient id="paint0_diamond_535_385" x1="0" y1="0" x2="500" y2="500" gradientUnits="userSpaceOnUse">
<stop stop-color="#1641F2"/>
<stop offset="1" stop-opacity="0"/>
</linearGradient>
<clipPath id="clip0_535_385">
<rect width="603" height="595" fill="white"/>
</clipPath>
<clipPath id="clip1_535_385">
<rect width="309" height="309" fill="white" transform="translate(147 144)"/>
</clipPath>
</defs>
</svg>
