<svg width="94" height="94" viewBox="0 0 94 94" fill="none" xmlns="http://www.w3.org/2000/svg">
<g clip-path="url(#clip0_980_850)">
<path d="M58.4853 94V75.5308H53.9866V94H52.3298V75.5308H50.0791C49.6216 75.5308 49.2493 75.1585 49.2493 74.701V60.1393H46.9985C46.541 60.1393 46.1687 59.767 46.1687 59.3095V50.9033H25.4516C21.6037 50.8976 18.472 47.7659 18.4663 43.918V13.1407C18.472 9.29286 21.6037 6.16114 25.4516 6.15546H26.162V0.829821C26.162 0.372283 26.5343 0 26.9919 0H39.3056C39.7632 0 40.1354 0.372283 40.1354 0.829821V6.1583H58.4057L58.6132 5.95653C62.5264 2.11434 67.7014 0 73.1834 0C78.7619 0.00568371 83.9881 2.17402 87.9155 6.10999C91.843 10.046 94.0056 15.275 93.9999 20.8336C93.9999 26.3127 91.8884 31.4792 88.0463 35.3868L87.8416 35.5942V43.9209C87.836 47.7687 84.7042 50.9004 80.8564 50.9061H66.2947V59.3123C66.2947 59.7699 65.9224 60.1422 65.4649 60.1422H63.2141V64.6408H70.9099V66.1385L72.1916 64.4021C72.6065 63.8394 73.1009 63.3449 73.6636 62.93C74.8743 62.0377 76.3066 61.5659 77.8042 61.5659C80.0152 61.5659 82.1181 62.6259 83.4311 64.4049C85.7188 67.5026 85.0566 71.8847 81.959 74.1724C80.7484 75.0647 79.3161 75.5365 77.8184 75.5365C75.6075 75.5365 73.5045 74.4765 72.1916 72.6975L70.9099 70.9611V72.4587H63.2141V74.7095C63.2141 75.167 62.8419 75.5393 62.3843 75.5393H60.1336V94.0085H58.4768L58.4853 94ZM77.7815 63.2199C74.843 63.2199 72.453 65.6099 72.453 68.5484C72.453 71.4868 74.843 73.8768 77.7815 73.8768C80.72 73.8768 83.11 71.4868 83.11 68.5484C83.11 65.6099 80.72 63.2199 77.7815 63.2199ZM50.9061 73.874H61.5602V60.1393H50.9061V73.874ZM63.2198 70.7963H71.1116L70.9383 69.9437C70.7479 69.0173 70.7479 68.0766 70.9383 67.1502L71.1116 66.2976H63.2198V70.7963ZM47.8283 58.4854H64.6408V50.909H47.8283V58.4854ZM25.4544 7.81226C22.5159 7.81226 20.126 10.2023 20.126 13.1407V43.9209C20.126 46.8593 22.5159 49.2493 25.4544 49.2493H80.8592C83.7977 49.2493 86.1877 46.8593 86.1877 43.9209V37.1288L85.0708 37.9103C81.5555 40.3714 77.4291 41.6729 73.135 41.6729C68.841 41.6729 64.7175 40.3714 61.1993 37.9103C51.8013 31.3286 49.5079 18.33 56.0868 8.9291L56.8683 7.81226H25.4516H25.4544ZM73.1635 1.6568C62.6003 1.66817 53.9952 10.2705 53.9838 20.8365C53.9838 31.4139 62.5861 40.0161 73.1635 40.0161C83.7409 40.0161 92.3431 31.4139 92.3431 20.8365C92.3431 10.2591 83.7409 1.6568 73.1635 1.6568ZM27.8217 6.15546H38.4758V1.6568H27.8217V6.15546Z" fill="white"/>
<path d="M73.1664 35.5175C65.0813 35.509 58.4939 28.9216 58.4854 20.8365C58.4854 12.7429 65.0699 6.15833 73.1664 6.15833C81.2628 6.15833 87.8474 12.7429 87.8474 20.8393C87.8474 28.9358 81.2628 35.5175 73.1692 35.5204L73.1664 35.5175ZM73.1635 7.81228C65.9907 7.82081 60.1507 13.6608 60.1422 20.8337C60.1422 28.015 65.985 33.8579 73.1664 33.8579C80.3477 33.8579 86.1906 28.015 86.1906 20.8337C86.1906 13.6523 80.3477 7.80944 73.1664 7.80944L73.1635 7.81228Z" fill="white"/>
<path d="M25.4543 44.7507C24.9968 44.7507 24.6245 44.3785 24.6245 43.9209V34.6877C24.6245 34.2302 24.9968 33.8579 25.4543 33.8579H37.7681C38.2256 33.8579 38.5979 34.2302 38.5979 34.6877V43.9209C38.5979 44.3785 38.2256 44.7507 37.7681 44.7507H25.4543ZM26.2813 43.0939H36.9354V35.5176H26.2813V43.0939Z" fill="white"/>
<path d="M73.1637 26.2815C70.1599 26.2815 67.7188 23.8375 67.7188 20.8365C67.7188 17.8355 70.1627 15.3915 73.1637 15.3915C76.1647 15.3915 78.6087 17.8355 78.6087 20.8365C78.6087 23.8375 76.1647 26.2815 73.1637 26.2815ZM73.1637 17.0483C71.075 17.0483 69.3756 18.7477 69.3756 20.8365C69.3756 22.9252 71.075 24.6247 73.1637 24.6247C75.2525 24.6247 76.9519 22.9252 76.9519 20.8365C76.9519 18.7477 75.2525 17.0483 73.1637 17.0483Z" fill="white"/>
<path d="M3.90755 94C1.75342 94 0 92.2465 0 90.0924V65.4678C0 63.3136 1.75342 61.5602 3.90755 61.5602H18.9552L26.4065 54.1089C26.5628 53.9526 26.7703 53.8673 26.9919 53.8673C27.4495 53.8673 27.8217 54.2396 27.8217 54.6971V61.5631H40.846C43.0001 61.5631 44.7535 63.3165 44.7535 65.4706V90.0953C44.7535 92.2494 43.0001 94.0028 40.846 94.0028H3.90755V94ZM3.90755 63.2199C2.6685 63.2199 1.6568 64.2287 1.6568 65.4706V90.0953C1.6568 91.3343 2.66566 92.346 3.90755 92.346H40.846C42.085 92.346 43.0967 91.3372 43.0967 90.0953V65.4706C43.0967 64.2316 42.0879 63.2199 40.846 63.2199H26.9948C26.5372 63.2199 26.1649 62.8476 26.1649 62.39V56.695L19.8845 62.9755C19.7281 63.1318 19.5207 63.217 19.299 63.217H3.90755V63.2199Z" fill="white"/>
<path d="M10.0632 87.8445C9.60568 87.8445 9.2334 87.4723 9.2334 87.0147V68.5455C9.2334 68.088 9.60568 67.7157 10.0632 67.7157H34.6879C35.1454 67.7157 35.5177 68.088 35.5177 68.5455V87.0147C35.5177 87.4723 35.1454 87.8445 34.6879 87.8445H10.0632ZM10.893 86.1877H33.8609V75.5336H10.893V86.1877ZM25.9151 73.874H33.8609V69.3753H30.4166L25.9179 73.874H25.9151ZM16.6791 73.874H23.5706L28.0692 69.3753H21.1777L16.6791 73.874ZM10.893 73.874H14.3374L18.836 69.3753H10.8902V73.874H10.893Z" fill="white"/>
</g>
<defs>
<clipPath id="clip0_980_850">
<rect width="94" height="94" fill="white"/>
</clipPath>
</defs>
</svg>
