<svg width="603" height="595" viewBox="0 0 603 595" fill="none" xmlns="http://www.w3.org/2000/svg">
<g clip-path="url(#clip0_549_306)">
<g filter="url(#filter0_n_549_306)">
<g clip-path="url(#paint0_diamond_549_306_clip_path)" data-figma-skip-parse="true"><g transform="matrix(-0.1525 0.108 -0.0954309 -0.134752 301.5 297.5)"><rect x="0" y="0" width="2244.24" height="2534.05" fill="url(#paint0_diamond_549_306)" opacity="1" shape-rendering="crispEdges"/><rect x="0" y="0" width="2244.24" height="2534.05" transform="scale(1 -1)" fill="url(#paint0_diamond_549_306)" opacity="1" shape-rendering="crispEdges"/><rect x="0" y="0" width="2244.24" height="2534.05" transform="scale(-1 1)" fill="url(#paint0_diamond_549_306)" opacity="1" shape-rendering="crispEdges"/><rect x="0" y="0" width="2244.24" height="2534.05" transform="scale(-1)" fill="url(#paint0_diamond_549_306)" opacity="1" shape-rendering="crispEdges"/></g></g><ellipse cx="301.5" cy="297.5" rx="301.5" ry="297.5" data-figma-gradient-fill="{&#34;type&#34;:&#34;GRADIENT_DIAMOND&#34;,&#34;stops&#34;:[{&#34;color&#34;:{&#34;r&#34;:0.086274512112140656,&#34;g&#34;:0.25490197539329529,&#34;b&#34;:0.94901961088180542,&#34;a&#34;:1.0},&#34;position&#34;:0.0},{&#34;color&#34;:{&#34;r&#34;:0.0,&#34;g&#34;:0.0,&#34;b&#34;:0.0,&#34;a&#34;:0.0},&#34;position&#34;:1.0}],&#34;stopsVar&#34;:[{&#34;color&#34;:{&#34;r&#34;:0.086274512112140656,&#34;g&#34;:0.25490197539329529,&#34;b&#34;:0.94901961088180542,&#34;a&#34;:1.0},&#34;position&#34;:0.0},{&#34;color&#34;:{&#34;r&#34;:0.0,&#34;g&#34;:0.0,&#34;b&#34;:0.0,&#34;a&#34;:0.0},&#34;position&#34;:1.0}],&#34;transform&#34;:{&#34;m00&#34;:-304.99996948242188,&#34;m01&#34;:-190.861816406250,&#34;m02&#34;:549.4309082031250,&#34;m10&#34;:215.99996948242188,&#34;m11&#34;:-269.50393676757812,&#34;m12&#34;:324.25201416015625},&#34;opacity&#34;:1.0,&#34;blendMode&#34;:&#34;NORMAL&#34;,&#34;visible&#34;:true}"/>
</g>
<g clip-path="url(#clip1_549_306)">
<path d="M324.796 430.999V378.543H311.991V430.999H307.275V378.543H300.868C299.566 378.543 298.506 377.485 298.506 376.186V334.828H292.1C290.797 334.828 289.738 333.771 289.738 332.472V308.597H230.768C219.816 308.58 210.901 299.686 210.885 288.757V201.345C210.901 190.416 219.816 181.521 230.768 181.505H232.791V166.38C232.791 165.08 233.85 164.023 235.153 164.023H270.203C271.505 164.023 272.565 165.08 272.565 166.38V181.513H324.569L325.16 180.94C336.299 170.028 351.029 164.023 366.633 164.023C382.511 164.039 397.387 170.197 408.566 181.376C419.746 192.555 425.901 207.406 425.885 223.194C425.885 238.755 419.875 253.429 408.939 264.527L408.356 265.116V288.765C408.34 299.694 399.426 308.589 388.473 308.605H347.025V332.48C347.025 333.779 345.965 334.837 344.663 334.837H338.256V347.613H360.161V351.867L363.81 346.935C364.991 345.337 366.398 343.933 368 342.755C371.446 340.22 375.523 338.88 379.785 338.88C386.079 338.88 392.065 341.891 395.802 346.944C402.314 355.741 400.429 368.187 391.612 374.685C388.166 377.219 384.089 378.559 379.826 378.559C373.533 378.559 367.547 375.548 363.81 370.496L360.161 365.564V369.818H338.256V376.21C338.256 377.51 337.196 378.567 335.894 378.567H329.488V431.023H324.772L324.796 430.999ZM379.721 343.578C371.357 343.578 364.554 350.366 364.554 358.712C364.554 367.057 371.357 373.845 379.721 373.845C388.085 373.845 394.888 367.057 394.888 358.712C394.888 350.366 388.085 343.578 379.721 343.578ZM303.222 373.837H333.548V334.828H303.222V373.837ZM338.272 365.096H360.736L360.242 362.675C359.7 360.043 359.7 357.372 360.242 354.74L360.736 352.319H338.272V365.096ZM294.462 330.131H342.317V308.613H294.462V330.131ZM230.776 186.211C222.412 186.211 215.609 192.999 215.609 201.345V288.765C215.609 297.111 222.412 303.899 230.776 303.899H388.481C396.845 303.899 403.648 297.111 403.648 288.765V269.475L400.469 271.694C390.463 278.684 378.718 282.381 366.495 282.381C354.272 282.381 342.535 278.684 332.521 271.694C305.77 253.001 299.242 216.083 317.969 189.383L320.193 186.211H230.768H230.776ZM366.576 168.728C336.509 168.761 312.015 193.193 311.983 223.202C311.983 253.243 336.468 277.675 366.576 277.675C396.684 277.675 421.169 253.243 421.169 223.202C421.169 193.16 396.684 168.728 366.576 168.728ZM237.515 181.505H267.841V168.728H237.515V181.505Z" fill="white" fill-opacity="0.4"/>
<path d="M366.385 265.015C343.531 264.99 324.909 246.145 324.885 223.015C324.885 199.86 343.498 181.023 366.385 181.023C389.272 181.023 407.885 199.86 407.885 223.023C407.885 246.185 389.272 265.015 366.393 265.023L366.385 265.015ZM366.377 185.754C346.101 185.779 329.593 202.486 329.569 223.006C329.569 243.551 346.085 260.267 366.385 260.267C386.685 260.267 403.202 243.551 403.202 223.006C403.202 202.462 386.685 185.746 366.385 185.746L366.377 185.754Z" fill="white" fill-opacity="0.4"/>
<path d="M231.261 291.023C229.951 291.023 228.885 289.963 228.885 288.661V262.384C228.885 261.082 229.951 260.023 231.261 260.023H266.51C267.82 260.023 268.885 261.082 268.885 262.384V288.661C268.885 289.963 267.82 291.023 266.51 291.023H231.261ZM233.628 286.308H264.126V264.746H233.628V286.308Z" fill="white" fill-opacity="0.4"/>
<path d="M366.385 239.023C357.834 239.023 350.885 232.066 350.885 223.523C350.885 214.98 357.842 208.023 366.385 208.023C374.928 208.023 381.885 214.98 381.885 223.523C381.885 232.066 374.928 239.023 366.385 239.023ZM366.385 212.739C360.439 212.739 355.602 217.577 355.602 223.523C355.602 229.469 360.439 234.306 366.385 234.306C372.331 234.306 377.169 229.469 377.169 223.523C377.169 217.577 372.331 212.739 366.385 212.739Z" fill="white" fill-opacity="0.4"/>
<path d="M169.974 431.015C163.861 431.015 158.885 426.034 158.885 419.916V349.972C158.885 343.854 163.861 338.873 169.974 338.873H212.676L233.821 317.709C234.264 317.265 234.853 317.023 235.482 317.023C236.78 317.023 237.837 318.08 237.837 319.38V338.882H274.797C280.909 338.882 285.885 343.862 285.885 349.98V419.924C285.885 426.042 280.909 431.023 274.797 431.023H169.974V431.015ZM169.974 343.587C166.458 343.587 163.587 346.453 163.587 349.98V419.924C163.587 423.443 166.45 426.317 169.974 426.317H274.797C278.313 426.317 281.184 423.451 281.184 419.924V349.98C281.184 346.461 278.321 343.587 274.797 343.587H235.49C234.192 343.587 233.135 342.53 233.135 341.23V325.054L215.313 342.893C214.869 343.337 214.28 343.579 213.651 343.579H169.974V343.587Z" fill="white" fill-opacity="0.4"/>
<path d="M187.253 413.023C185.948 413.023 184.885 411.969 184.885 410.673V358.373C184.885 357.077 185.948 356.023 187.253 356.023H257.517C258.823 356.023 259.885 357.077 259.885 358.373V410.673C259.885 411.969 258.823 413.023 257.517 413.023H187.253ZM189.621 408.331H255.158V378.161H189.621V408.331ZM232.485 373.462H255.158V360.722H245.33L232.493 373.462H232.485ZM206.131 373.462H225.795L238.632 360.722H218.967L206.131 373.462ZM189.621 373.462H199.449L212.286 360.722H189.613V373.462H189.621Z" fill="white" fill-opacity="0.4"/>
</g>
</g>
<defs>
<filter id="filter0_n_549_306" x="0" y="0" width="603" height="595" filterUnits="userSpaceOnUse" color-interpolation-filters="sRGB">
<feFlood flood-opacity="0" result="BackgroundImageFix"/>
<feBlend mode="normal" in="SourceGraphic" in2="BackgroundImageFix" result="shape"/>
<feTurbulence type="fractalNoise" baseFrequency="0.66666668653488159 0.66666668653488159" stitchTiles="stitch" numOctaves="3" result="noise" seed="2162" />
<feColorMatrix in="noise" type="luminanceToAlpha" result="alphaNoise" />
<feComponentTransfer in="alphaNoise" result="coloredNoise1">
<feFuncA type="discrete" tableValues="1 1 1 1 1 1 1 1 1 1 1 1 1 1 1 1 1 1 1 1 1 1 1 1 1 1 1 1 1 1 1 1 1 1 1 1 1 1 1 1 1 1 1 1 1 1 1 1 1 1 1 0 0 0 0 0 0 0 0 0 0 0 0 0 0 0 0 0 0 0 0 0 0 0 0 0 0 0 0 0 0 0 0 0 0 0 0 0 0 0 0 0 0 0 0 0 0 0 0 0 "/>
</feComponentTransfer>
<feComposite operator="in" in2="shape" in="coloredNoise1" result="noise1Clipped" />
<feFlood flood-color="rgba(0, 0, 0, 0.25)" result="color1Flood" />
<feComposite operator="in" in2="noise1Clipped" in="color1Flood" result="color1" />
<feMerge result="effect1_noise_549_306">
<feMergeNode in="shape" />
<feMergeNode in="color1" />
</feMerge>
</filter>
<clipPath id="paint0_diamond_549_306_clip_path"><ellipse cx="301.5" cy="297.5" rx="301.5" ry="297.5"/></clipPath><linearGradient id="paint0_diamond_549_306" x1="0" y1="0" x2="500" y2="500" gradientUnits="userSpaceOnUse">
<stop stop-color="#1641F2"/>
<stop offset="1" stop-opacity="0"/>
</linearGradient>
<clipPath id="clip0_549_306">
<rect width="603" height="595" fill="white"/>
</clipPath>
<clipPath id="clip1_549_306">
<rect width="350" height="267.045" fill="white" transform="translate(127 164)"/>
</clipPath>
</defs>
</svg>
