<svg width="412" height="324" viewBox="0 0 412 324" fill="none" xmlns="http://www.w3.org/2000/svg">
<g clip-path="url(#clip0_535_381)">
<path d="M101.364 317C100.622 317 99.9372 316.715 99.4092 316.187L52.8137 269.591C52.2857 269.063 52.0002 268.378 52.0002 267.636C52.0002 266.894 52.2857 266.209 52.8137 265.681L156.009 162.486L60.9626 67.4681C56.6241 63.1296 54.2408 57.3498 54.2408 51.1989C54.2408 45.048 56.6241 39.2682 60.9626 34.9298L78.9157 16.9766C83.2684 12.6239 89.0483 10.2263 95.1849 10.2263C101.322 10.2263 107.116 12.6239 111.454 16.9766L206.486 112.008L309.695 8.81346C310.223 8.28542 310.908 8 311.65 8C312.393 8 313.078 8.28542 313.606 8.81346L360.201 55.4089C360.729 55.937 361.014 56.622 361.014 57.3641C361.014 58.1062 360.729 58.7912 360.201 59.3192L257.02 162.5L356.034 261.514C356.191 261.671 356.319 261.828 356.419 261.985L356.448 262.056L356.676 262.527C356.733 262.655 356.79 262.926 356.819 263.226L356.862 263.654L356.89 263.74L359.859 312.918C359.901 313.703 359.616 314.474 359.059 315.031C358.531 315.559 357.846 315.844 357.104 315.844H356.919L307.669 312.861C307.483 312.804 307.298 312.776 307.112 312.747C306.884 312.719 306.713 312.676 306.556 312.619C306.441 312.576 306.327 312.519 306.227 312.476C306.099 312.405 305.97 312.348 305.842 312.29C305.742 312.219 305.642 312.134 305.557 312.034L305.186 311.677L206.515 213.006L103.319 316.201C102.791 316.729 102.106 317.014 101.364 317.014V317ZM58.6649 267.65L101.364 310.35L202.604 209.11L159.905 166.41L142.651 183.664L168.624 209.638C169.153 210.166 169.438 210.851 169.438 211.593C169.438 212.335 169.153 213.02 168.624 213.548C168.096 214.076 167.411 214.362 166.669 214.362C165.927 214.362 165.242 214.076 164.714 213.548L138.741 187.574L121.487 204.828L136.686 220.027C137.214 220.555 137.499 221.24 137.499 221.982C137.499 222.724 137.214 223.409 136.686 223.938C136.158 224.466 135.472 224.751 134.73 224.751C133.988 224.751 133.303 224.466 132.775 223.938L117.576 208.739L100.323 225.993L115.521 241.191C116.049 241.719 116.335 242.404 116.335 243.147C116.335 243.889 116.049 244.574 115.521 245.102C114.993 245.63 114.308 245.915 113.566 245.915C112.824 245.915 112.139 245.63 111.611 245.102L96.4122 229.903L79.1583 247.157L105.132 273.13C105.66 273.658 105.945 274.343 105.945 275.085C105.945 275.828 105.66 276.513 105.132 277.041C104.604 277.569 103.919 277.854 103.177 277.854C102.435 277.854 101.75 277.569 101.222 277.041L75.248 251.067L58.6221 267.693L58.6649 267.65ZM327.677 283.662L312.335 307.61L354.15 310.136L351.624 268.321L327.677 283.662ZM78.8158 77.515L307.012 305.697L322.168 282.036L98.2247 58.1062L78.8158 77.5007V77.515ZM102.121 54.2101L326.064 278.139L349.712 262.998L250.984 164.284H250.955L204.959 118.259L121.515 34.8156L102.121 54.2101ZM210.411 115.905L253.11 158.604L354.35 57.3641L311.65 14.6646L295.039 31.2763L321.012 57.2499C321.54 57.7779 321.826 58.463 321.826 59.2051C321.826 59.9472 321.54 60.6322 321.012 61.1602C320.484 61.6882 319.799 61.9737 319.057 61.9737C318.315 61.9737 317.63 61.6882 317.102 61.1602L291.128 35.1866L273.875 52.4405L289.073 67.6393C289.601 68.1674 289.887 68.8524 289.887 69.5945C289.887 70.3366 289.601 71.0216 289.073 71.5496C288.545 72.0777 287.86 72.3631 287.118 72.3631C286.376 72.3631 285.691 72.0777 285.163 71.5496L269.964 56.3508L252.71 73.6047L267.909 88.8035C268.437 89.3316 268.723 90.0166 268.723 90.7587C268.723 91.5008 268.437 92.1858 267.909 92.7138C267.395 93.2419 266.696 93.5273 265.954 93.5273C265.212 93.5273 264.527 93.2419 263.999 92.7138L248.8 77.515L231.546 94.7689L257.52 120.742C258.048 121.271 258.333 121.956 258.333 122.698C258.333 123.44 258.048 124.125 257.52 124.653C256.992 125.181 256.307 125.466 255.565 125.466C254.823 125.466 254.138 125.181 253.609 124.653L227.636 98.6792L210.382 115.933L210.411 115.905ZM95.1992 15.8777C90.5039 15.8777 85.9942 17.6901 82.826 20.8726L64.8729 38.8258C58.0512 45.6474 58.0512 56.7504 64.8729 63.572L74.9198 73.619L117.619 30.9195L107.572 20.8726C104.404 17.7044 99.8944 15.8777 95.1992 15.8777Z" fill="white" fill-opacity="0.3"/>
</g>
<defs>
<clipPath id="clip0_535_381">
<rect width="309" height="309" fill="white" transform="translate(52.0002 8)"/>
</clipPath>
</defs>
</svg>
