<svg width="100" height="100" viewBox="0 0 100 100" fill="none" xmlns="http://www.w3.org/2000/svg">
<g clip-path="url(#clip0_980_848)">
<path d="M15.9754 100C15.7353 100 15.5136 99.9076 15.3427 99.7367L0.263255 84.6573C0.0923702 84.4864 0 84.2647 0 84.0246C0 83.7844 0.0923702 83.5627 0.263255 83.3918L33.6597 49.9954L2.90042 19.2453C1.4964 17.8413 0.725106 15.9708 0.725106 13.9802C0.725106 11.9897 1.4964 10.1192 2.90042 8.71513L8.71051 2.90504C10.1192 1.4964 11.9897 0.720488 13.9756 0.720488C15.9616 0.720488 17.8367 1.4964 19.2407 2.90504L49.9954 33.6597L83.3965 0.263255C83.5673 0.0923702 83.789 0 84.0292 0C84.2693 0 84.491 0.0923702 84.6619 0.263255L99.7414 15.3427C99.9122 15.5136 100.005 15.7353 100.005 15.9754C100.005 16.2156 99.9122 16.4373 99.7414 16.6082L66.3495 50L98.3928 82.0432C98.4436 82.094 98.4851 82.1448 98.5175 82.1956L98.5267 82.2187L98.6006 82.3711C98.6191 82.4127 98.6375 82.5005 98.6468 82.5975L98.6606 82.736L98.6699 82.7637L99.6305 98.6791C99.6444 98.9331 99.552 99.1825 99.3719 99.3626C99.201 99.5335 98.9793 99.6259 98.7391 99.6259H98.6791L82.7406 98.6606C82.6806 98.6422 82.6205 98.6329 82.5605 98.6237C82.4866 98.6144 82.4312 98.6006 82.3804 98.5821C82.3434 98.5683 82.3065 98.5498 82.2742 98.5359C82.2326 98.5128 82.191 98.4944 82.1495 98.4759C82.1171 98.4528 82.0848 98.4251 82.0571 98.3928L81.937 98.2773L50.0046 66.3449L16.6082 99.7414C16.4373 99.9122 16.2156 100.005 15.9754 100.005V100ZM2.15684 84.0292L15.9754 97.8478L48.7391 65.0841L34.9206 51.2655L29.3368 56.8493L37.7425 65.2549C37.9134 65.4258 38.0057 65.6475 38.0057 65.8877C38.0057 66.1278 37.9134 66.3495 37.7425 66.5204C37.5716 66.6913 37.3499 66.7837 37.1097 66.7837C36.8696 66.7837 36.6479 66.6913 36.477 66.5204L28.0713 58.1147L22.4875 63.6985L27.4062 68.6172C27.5771 68.7881 27.6695 69.0098 27.6695 69.25C27.6695 69.4901 27.5771 69.7118 27.4062 69.8827C27.2354 70.0536 27.0137 70.1459 26.7735 70.1459C26.5333 70.1459 26.3117 70.0536 26.1408 69.8827L21.2221 64.964L15.6383 70.5478L20.557 75.4665C20.7279 75.6374 20.8202 75.859 20.8202 76.0992C20.8202 76.3394 20.7279 76.5611 20.557 76.7319C20.3861 76.9028 20.1644 76.9952 19.9243 76.9952C19.6841 76.9952 19.4624 76.9028 19.2915 76.7319L14.3728 71.8132L8.78903 77.397L17.1947 85.8027C17.3656 85.9736 17.458 86.1953 17.458 86.4354C17.458 86.6756 17.3656 86.8973 17.1947 87.0682C17.0238 87.2391 16.8021 87.3314 16.562 87.3314C16.3218 87.3314 16.1001 87.2391 15.9292 87.0682L7.52355 78.6625L2.14299 84.043L2.15684 84.0292ZM89.2158 89.2112L84.2509 96.961L97.7831 97.7785L96.9656 84.2463L89.2158 89.2112ZM8.67818 22.4968L82.5282 96.3421L87.433 88.6846L14.9594 16.2156L8.67818 22.4921V22.4968ZM16.2202 14.9547L88.6939 87.4238L96.3468 82.5236L64.3959 50.5773H64.3867L49.5012 35.6826L22.4968 8.67818L16.2202 14.9547ZM51.2655 34.9206L65.0841 48.7391L97.8478 15.9754L84.0292 2.15684L78.6532 7.53279L87.0589 15.9385C87.2298 16.1094 87.3222 16.3311 87.3222 16.5712C87.3222 16.8114 87.2298 17.0331 87.0589 17.204C86.888 17.3748 86.6664 17.4672 86.4262 17.4672C86.186 17.4672 85.9643 17.3748 85.7935 17.204L77.3878 8.79826L71.804 14.382L76.7227 19.3008C76.8936 19.4716 76.986 19.6933 76.986 19.9335C76.986 20.1737 76.8936 20.3953 76.7227 20.5662C76.5518 20.7371 76.3301 20.8295 76.09 20.8295C75.8498 20.8295 75.6281 20.7371 75.4572 20.5662L70.5385 15.6475L64.9547 21.2313L69.8735 26.15C70.0443 26.3209 70.1367 26.5426 70.1367 26.7827C70.1367 27.0229 70.0443 27.2446 69.8735 27.4155C69.7072 27.5864 69.4809 27.6787 69.2407 27.6787C69.0005 27.6787 68.7789 27.5864 68.608 27.4155L63.6893 22.4968L58.1055 28.0805L66.5112 36.4862C66.6821 36.6571 66.7744 36.8788 66.7744 37.119C66.7744 37.3591 66.6821 37.5808 66.5112 37.7517C66.3403 37.9226 66.1186 38.015 65.8784 38.015C65.6383 38.015 65.4166 37.9226 65.2457 37.7517L56.84 29.346L51.2562 34.9298L51.2655 34.9206ZM13.9802 2.54942C12.4607 2.54942 11.0013 3.13597 9.97598 4.1659L4.1659 9.97598C1.95825 12.1836 1.95825 15.7768 4.1659 17.9845L7.41733 21.2359L21.2359 7.41733L17.9845 4.1659C16.9592 3.14059 15.4997 2.54942 13.9802 2.54942Z" fill="white"/>
</g>
<defs>
<clipPath id="clip0_980_848">
<rect width="100" height="100" fill="white"/>
</clipPath>
</defs>
</svg>
