<svg width="238" height="271" viewBox="0 0 238 271" fill="none" xmlns="http://www.w3.org/2000/svg">
<g clip-path="url(#clip0_535_471)">
<path d="M196.961 270.451H85.3777C84.411 270.451 83.6204 269.689 83.5773 268.726C83.1281 257.912 80.9575 241.594 77.5436 239.157C74.1799 236.76 67.5855 237.033 60.6031 237.328C49.5813 237.788 37.0898 238.309 29.5216 229.447C28.828 228.635 27.5343 227.122 24.4545 195.415C23.2039 182.528 22.1618 169.764 21.8455 165.843C19.9589 165.246 16.1101 163.956 12.2145 162.242C4.2474 158.735 0.535156 155.486 0.535156 152.022C0.535156 147.594 4.65708 142.711 9.87866 136.53C17.7739 127.175 27.6026 115.535 27.6026 100.701C27.6026 72.7961 38.4051 47.159 58.0192 28.5151C67.3412 19.6568 78.2192 12.721 90.3513 7.90552C102.645 3.02175 115.661 0.549316 129.041 0.549316C164.575 0.549316 191.951 10.5037 210.415 30.1395C228.718 49.6027 237.997 78.316 237.997 115.478C237.997 158.224 218.023 184.72 207.292 198.955C204.159 203.113 201.679 206.397 201.079 208.32C198.136 217.689 198.757 268.122 198.765 268.632C198.772 269.114 198.585 269.577 198.247 269.922C197.909 270.264 197.446 270.458 196.964 270.458L196.961 270.451ZM87.0847 266.85H195.139C195.049 257.481 194.826 216.201 197.64 207.238C198.43 204.726 200.939 201.395 204.414 196.784C214.893 182.884 234.396 157.013 234.396 115.474C234.396 42.6454 197.963 4.15016 129.041 4.15016C74.1799 4.15016 31.207 46.5589 31.207 100.697C31.207 116.851 20.4727 129.565 12.635 138.851C8.07823 144.249 4.13959 148.913 4.13959 152.022C4.13959 152.478 4.59958 154.954 13.6664 158.947C18.8017 161.207 23.9981 162.738 24.0484 162.752C24.7672 162.961 25.2775 163.593 25.3386 164.341C27.0994 186.852 30.5458 223.694 32.3174 227.179C38.7608 234.636 50.2821 234.155 60.4521 233.731C68.4013 233.396 75.2652 233.113 79.6315 236.228C80.6628 236.965 83.8073 239.207 85.888 254.445C86.5888 259.565 86.9338 264.377 87.0811 266.85H87.0847Z" fill="white" fill-opacity="0.3"/>
<path d="M122.558 151.422C121.771 151.422 121.067 150.908 120.837 150.146L117.336 138.625L105.754 134.783L96.0404 141.927C95.3648 142.427 94.434 142.387 93.798 141.841L81.0908 130.87C80.4511 130.32 80.2822 129.4 80.6811 128.656L86.3699 118.044L80.9003 107.162L68.9658 105.358C68.1321 105.233 67.4996 104.546 67.4385 103.709L66.2274 86.9911C66.1664 86.1502 66.6946 85.3812 67.5032 85.1368L79.0496 81.6474L82.8912 70.101L75.7327 60.4125C75.2332 59.7333 75.2691 58.7989 75.8225 58.1628L86.8155 45.4916C87.3653 44.8555 88.2817 44.6866 89.0256 45.0819L99.67 50.7635L110.577 45.3083L112.381 33.4062C112.507 32.5724 113.193 31.94 114.034 31.8789L130.791 30.675C131.628 30.6103 132.397 31.1422 132.642 31.9471L136.142 43.4684L147.724 47.31L157.438 40.1658C158.114 39.6663 159.044 39.7058 159.68 40.2521L172.388 51.2235C173.027 51.7733 173.196 52.6933 172.797 53.4372L167.109 64.0492L172.578 74.9308L184.513 76.7348C185.346 76.8606 185.979 77.547 186.04 78.3843L187.251 95.102C187.312 95.9429 186.784 96.712 185.975 96.9563L174.429 100.446L170.587 111.992L177.746 121.681C178.245 122.36 178.209 123.294 177.656 123.93L166.663 136.602C166.113 137.238 165.197 137.407 164.453 137.011L153.808 131.33L142.902 136.785L141.098 148.687C140.972 149.521 140.285 150.153 139.445 150.214L122.687 151.418C122.644 151.418 122.601 151.422 122.558 151.422ZM105.434 130.981C105.625 130.981 105.815 131.01 106.002 131.071L119.356 135.498C119.909 135.682 120.341 136.124 120.513 136.684L123.866 147.724L137.752 146.728L139.48 135.329C139.567 134.751 139.933 134.251 140.454 133.989L153.032 127.7C153.553 127.438 154.171 127.448 154.685 127.722L164.88 133.166L173.987 122.669L167.13 113.387C166.781 112.916 166.684 112.305 166.871 111.748L171.302 98.4261C171.486 97.8727 171.931 97.4415 172.492 97.2726L183.553 93.9305L182.55 80.0841L171.119 78.3556C170.54 78.2693 170.041 77.9064 169.779 77.3817L163.472 64.8327C163.209 64.308 163.217 63.6899 163.493 63.1724L168.941 53.0095L158.415 43.9212L149.111 50.7635C148.641 51.1085 148.033 51.2055 147.476 51.0223L134.122 46.5949C133.569 46.4116 133.138 45.9696 132.965 45.409L129.612 34.3693L115.726 35.3647L113.998 46.7638C113.912 47.3424 113.545 47.8419 113.024 48.1042L100.446 54.3931C99.9251 54.6554 99.307 54.6447 98.7931 54.3715L88.5979 48.9272L79.4916 59.4242L86.3483 68.7066C86.6969 69.1774 86.7939 69.7883 86.6071 70.3453L82.1761 83.667C81.9928 84.2204 81.5472 84.6517 80.9866 84.8206L69.9253 88.1627L70.9279 102.009L82.3594 103.738C82.9379 103.824 83.4375 104.187 83.6998 104.708L90.0067 117.257C90.269 117.782 90.2618 118.4 89.9851 118.917L84.5371 129.08L95.0629 138.172L104.367 131.33C104.68 131.1 105.053 130.981 105.434 130.981ZM126.727 117.145C113.15 117.145 101.643 106.638 100.651 92.9207C100.148 85.9669 102.387 79.2324 106.958 73.9641C111.529 68.6958 117.883 65.5155 124.851 65.0159C139.225 63.981 151.782 74.8194 152.82 89.1725C153.323 96.1262 151.084 102.857 146.513 108.129C141.942 113.397 135.589 116.578 128.62 117.077C127.984 117.124 127.352 117.145 126.727 117.145ZM126.745 68.5485C126.202 68.5485 125.659 68.5665 125.109 68.606C119.101 69.0372 113.621 71.7756 109.678 76.3216C105.74 80.864 103.806 86.6677 104.241 92.6583C105.14 105.031 115.956 114.378 128.362 113.484C134.37 113.052 139.851 110.314 143.793 105.768C147.732 101.226 149.665 95.4218 149.23 89.4312C148.375 77.6045 138.449 68.5449 126.741 68.5449L126.745 68.5485Z" fill="white" fill-opacity="0.3"/>
<path d="M177.39 205.093C176.869 205.093 176.363 204.867 176.014 204.453L169.348 196.544L165.348 196.13L157.208 202.52C156.576 203.016 155.695 203.034 155.041 202.563L148.903 198.136C148.249 197.665 147.991 196.817 148.264 196.059L151.793 186.349L150.15 182.694L140.534 178.852C139.786 178.554 139.326 177.796 139.409 176.994L140.182 169.48C140.264 168.679 140.868 168.032 141.659 167.892L151.857 166.091L154.211 162.846L152.734 152.622C152.619 151.824 153.047 151.048 153.784 150.721L160.694 147.634C161.427 147.307 162.29 147.505 162.807 148.119L169.473 156.032L173.473 156.442L181.613 150.053C182.245 149.557 183.129 149.539 183.78 150.009L189.918 154.437C190.572 154.908 190.831 155.756 190.557 156.514L187.028 166.224L188.671 169.879L198.287 173.72C199.035 174.019 199.495 174.777 199.412 175.578L198.64 183.093C198.557 183.894 197.953 184.541 197.163 184.681L186.964 186.481L184.61 189.727L186.087 199.95C186.202 200.748 185.774 201.524 185.038 201.852L178.127 204.938C177.89 205.043 177.642 205.097 177.394 205.097L177.39 205.093ZM164.805 192.461C164.866 192.461 164.928 192.461 164.989 192.472L170.437 193.033C170.9 193.079 171.328 193.306 171.63 193.665L177.89 201.097L182.321 199.12L180.934 189.518C180.865 189.055 180.984 188.584 181.257 188.203L184.466 183.775C184.739 183.398 185.153 183.139 185.613 183.06L195.19 181.368L195.686 176.559L186.655 172.955C186.22 172.782 185.871 172.445 185.681 172.021L183.442 167.033C183.252 166.605 183.234 166.12 183.392 165.678L186.705 156.561L182.77 153.722L175.126 159.723C174.76 160.011 174.293 160.147 173.829 160.097L168.381 159.536C167.917 159.49 167.49 159.263 167.188 158.907L160.928 151.476L156.497 153.456L157.884 163.058C157.952 163.522 157.834 163.992 157.561 164.373L154.351 168.801C154.078 169.178 153.665 169.437 153.205 169.516L143.628 171.208L143.132 176.017L152.163 179.625C152.598 179.797 152.946 180.131 153.137 180.559L155.376 185.547C155.566 185.975 155.584 186.46 155.426 186.902L152.113 196.019L156.048 198.858L163.691 192.857C164.011 192.605 164.403 192.472 164.802 192.472L164.805 192.461ZM169.405 185.554C164.583 185.554 160.497 181.82 160.144 176.948C159.965 174.475 160.762 172.085 162.387 170.209C164.011 168.337 166.268 167.209 168.74 167.033C173.843 166.666 178.303 170.515 178.673 175.614C178.853 178.087 178.055 180.476 176.431 182.349C174.806 184.221 172.55 185.349 170.077 185.526C169.851 185.54 169.628 185.551 169.405 185.551V185.554ZM169.409 170.612C169.272 170.612 169.136 170.615 168.996 170.626C167.479 170.734 166.099 171.424 165.104 172.57C164.112 173.713 163.623 175.176 163.734 176.685C163.961 179.804 166.685 182.155 169.818 181.936C171.335 181.828 172.715 181.134 173.71 179.991C174.702 178.849 175.191 177.386 175.08 175.877C174.864 172.894 172.363 170.612 169.409 170.612Z" fill="white" fill-opacity="0.3"/>
</g>
<defs>
<clipPath id="clip0_535_471">
<rect width="237.458" height="269.901" fill="white" transform="translate(0.541992 0.549316)"/>
</clipPath>
</defs>
</svg>
