<svg width="330" height="140" viewBox="0 0 330 140" fill="none" xmlns="http://www.w3.org/2000/svg">
<path d="M95.8682 46.599C92.3741 46.599 89.3958 45.9834 86.9333 44.7521C84.504 43.4876 82.6405 41.5408 81.3427 38.9119C80.0449 36.283 79.396 32.9387 79.396 28.8788C79.396 22.8889 80.8435 18.4464 83.7387 15.5513C86.6671 12.6229 90.7269 11.1587 95.9182 11.1587C98.78 11.1587 101.342 11.6412 103.605 12.6062C105.901 13.5713 107.698 15.0188 108.996 16.9489C110.327 18.8457 110.993 21.275 110.993 24.2366H105.302C105.302 22.4064 104.92 20.8756 104.154 19.6444C103.389 18.4131 102.291 17.4813 100.86 16.8491C99.4622 16.2168 97.8316 15.9007 95.9681 15.9007C93.6387 15.9007 91.6587 16.3666 90.0281 17.2983C88.4308 18.1968 87.2161 19.5612 86.3842 21.3914C85.5855 23.2217 85.1862 25.5511 85.1862 28.3797V29.4778C85.1862 32.3064 85.5855 34.6358 86.3842 36.466C87.2161 38.2963 88.4308 39.6607 90.0281 40.5592C91.6254 41.4244 93.6054 41.857 95.9681 41.857C97.8982 41.857 99.5787 41.5575 101.01 40.9585C102.441 40.3262 103.539 39.3945 104.304 38.1632C105.103 36.9319 105.502 35.4012 105.502 33.5709H110.993C110.993 36.5326 110.327 38.9785 108.996 40.9086C107.698 42.8387 105.901 44.2696 103.605 45.2013C101.342 46.1331 98.7634 46.599 95.8682 46.599ZM113.469 46L126.896 11.7576H134.034L147.512 46H141.522L138.477 38.0634H122.254L119.209 46H113.469ZM124.051 33.3213H136.63L132.787 23.2882C132.687 22.9887 132.537 22.5728 132.337 22.0403C132.138 21.5079 131.921 20.9255 131.688 20.2933C131.489 19.661 131.272 19.0287 131.039 18.3965C130.84 17.7309 130.657 17.1319 130.49 16.5995H130.191C129.991 17.2318 129.742 17.9805 129.442 18.8457C129.143 19.7109 128.843 20.5429 128.544 21.3415C128.277 22.1402 128.045 22.7891 127.845 23.2882L124.051 33.3213ZM164.599 46.599C162.735 46.599 160.938 46.3993 159.208 46C157.477 45.6339 155.947 45.035 154.615 44.203C153.284 43.3378 152.236 42.2563 151.471 40.9585C150.705 39.6274 150.323 38.0467 150.323 36.2165C150.323 36.0168 150.323 35.8338 150.323 35.6674C150.356 35.4677 150.373 35.3013 150.373 35.1682H155.963C155.963 35.2681 155.947 35.4178 155.913 35.6175C155.913 35.8171 155.913 35.9835 155.913 36.1166C155.913 37.3479 156.279 38.3961 157.011 39.2613C157.743 40.1266 158.758 40.7755 160.056 41.2081C161.387 41.6407 162.901 41.857 164.599 41.857C165.53 41.857 166.429 41.8071 167.294 41.7072C168.159 41.5741 168.941 41.3911 169.64 41.1582C170.372 40.8919 171.005 40.5758 171.537 40.2097C172.069 39.8104 172.485 39.3445 172.785 38.8121C173.084 38.2797 173.234 37.664 173.234 36.9652C173.234 35.9003 172.918 35.0185 172.286 34.3197C171.687 33.6208 170.855 33.0385 169.79 32.5726C168.758 32.1067 167.577 31.6908 166.246 31.3247C164.948 30.9587 163.6 30.5926 162.203 30.2266C160.805 29.8605 159.441 29.4279 158.11 28.9287C156.812 28.4296 155.63 27.8306 154.566 27.1318C153.534 26.3997 152.702 25.5012 152.07 24.4363C151.471 23.3382 151.171 22.0071 151.171 20.443C151.171 18.9455 151.487 17.6145 152.12 16.4497C152.752 15.285 153.667 14.32 154.865 13.5546C156.063 12.756 157.494 12.157 159.158 11.7576C160.822 11.3583 162.702 11.1587 164.798 11.1587C166.595 11.1587 168.292 11.3583 169.89 11.7576C171.487 12.1237 172.885 12.706 174.083 13.5047C175.281 14.3034 176.212 15.3183 176.878 16.5496C177.577 17.7808 177.926 19.245 177.926 20.9422V21.5412H172.386V20.8923C172.386 19.8274 172.069 18.9289 171.437 18.1968C170.805 17.4647 169.923 16.899 168.792 16.4997C167.66 16.1003 166.346 15.9007 164.848 15.9007C163.085 15.9007 161.604 16.0837 160.406 16.4497C159.208 16.7825 158.293 17.265 157.66 17.8973C157.061 18.4963 156.762 19.2284 156.762 20.0936C156.762 21.0587 157.078 21.8573 157.71 22.4896C158.342 23.0886 159.174 23.6044 160.206 24.037C161.271 24.4696 162.452 24.8689 163.75 25.235C165.081 25.5677 166.429 25.9338 167.793 26.3331C169.191 26.6992 170.539 27.1318 171.836 27.6309C173.168 28.1301 174.349 28.7457 175.38 29.4778C176.445 30.2099 177.294 31.125 177.926 32.2232C178.558 33.2881 178.875 34.6025 178.875 36.1666C178.875 38.6291 178.259 40.6424 177.028 42.2064C175.796 43.7371 174.099 44.8519 171.936 45.5508C169.807 46.2496 167.361 46.599 164.599 46.599ZM200.884 46.599C197.356 46.599 194.295 45.9501 191.699 44.6523C189.137 43.3545 187.157 41.3911 185.759 38.7622C184.395 36.1333 183.713 32.8388 183.713 28.8788C183.713 24.8855 184.395 21.5911 185.759 18.9955C187.157 16.3666 189.137 14.4032 191.699 13.1054C194.295 11.8076 197.356 11.1587 200.884 11.1587C204.478 11.1587 207.556 11.8076 210.118 13.1054C212.68 14.4032 214.644 16.3666 216.008 18.9955C217.406 21.5911 218.105 24.8855 218.105 28.8788C218.105 32.8388 217.406 36.1333 216.008 38.7622C214.644 41.3911 212.68 43.3545 210.118 44.6523C207.556 45.9501 204.478 46.599 200.884 46.599ZM200.884 41.857C202.714 41.857 204.328 41.6074 205.725 41.1082C207.156 40.6091 208.354 39.8437 209.319 38.8121C210.318 37.7805 211.066 36.4827 211.566 34.9187C212.098 33.3546 212.364 31.541 212.364 29.4778V28.3797C212.364 26.2499 212.098 24.403 211.566 22.839C211.066 21.275 210.318 19.9771 209.319 18.9455C208.354 17.9139 207.156 17.1486 205.725 16.6494C204.328 16.1503 202.714 15.9007 200.884 15.9007C199.087 15.9007 197.473 16.1503 196.042 16.6494C194.644 17.1486 193.446 17.9139 192.448 18.9455C191.483 19.9771 190.751 21.275 190.252 22.839C189.752 24.403 189.503 26.2499 189.503 28.3797V29.4778C189.503 31.541 189.752 33.3546 190.252 34.9187C190.751 36.4827 191.483 37.7805 192.448 38.8121C193.446 39.8437 194.644 40.6091 196.042 41.1082C197.473 41.6074 199.087 41.857 200.884 41.857ZM237.23 46.599C235.367 46.599 233.57 46.3993 231.839 46C230.109 45.6339 228.578 45.035 227.247 44.203C225.916 43.3378 224.868 42.2563 224.102 40.9585C223.337 39.6274 222.954 38.0467 222.954 36.2165C222.954 36.0168 222.954 35.8338 222.954 35.6674C222.988 35.4677 223.004 35.3013 223.004 35.1682H228.595C228.595 35.2681 228.578 35.4178 228.545 35.6175C228.545 35.8171 228.545 35.9835 228.545 36.1166C228.545 37.3479 228.911 38.3961 229.643 39.2613C230.375 40.1266 231.39 40.7755 232.688 41.2081C234.019 41.6407 235.533 41.857 237.23 41.857C238.162 41.857 239.061 41.8071 239.926 41.7072C240.791 41.5741 241.573 41.3911 242.272 41.1582C243.004 40.8919 243.636 40.5758 244.169 40.2097C244.701 39.8104 245.117 39.3445 245.416 38.8121C245.716 38.2797 245.866 37.664 245.866 36.9652C245.866 35.9003 245.55 35.0185 244.917 34.3197C244.318 33.6208 243.486 33.0385 242.422 32.5726C241.39 32.1067 240.209 31.6908 238.877 31.3247C237.58 30.9587 236.232 30.5926 234.834 30.2266C233.437 29.8605 232.072 29.4279 230.741 28.9287C229.443 28.4296 228.262 27.8306 227.197 27.1318C226.166 26.3997 225.334 25.5012 224.701 24.4363C224.102 23.3382 223.803 22.0071 223.803 20.443C223.803 18.9455 224.119 17.6145 224.751 16.4497C225.384 15.285 226.299 14.32 227.497 13.5546C228.695 12.756 230.126 12.157 231.789 11.7576C233.453 11.3583 235.333 11.1587 237.43 11.1587C239.227 11.1587 240.924 11.3583 242.521 11.7576C244.119 12.1237 245.516 12.706 246.714 13.5047C247.912 14.3034 248.844 15.3183 249.51 16.5496C250.208 17.7808 250.558 19.245 250.558 20.9422V21.5412H245.017V20.8923C245.017 19.8274 244.701 18.9289 244.069 18.1968C243.436 17.4647 242.555 16.899 241.423 16.4997C240.292 16.1003 238.977 15.9007 237.48 15.9007C235.716 15.9007 234.235 16.0837 233.037 16.4497C231.839 16.7825 230.924 17.265 230.292 17.8973C229.693 18.4963 229.393 19.2284 229.393 20.0936C229.393 21.0587 229.71 21.8573 230.342 22.4896C230.974 23.0886 231.806 23.6044 232.838 24.037C233.903 24.4696 235.084 24.8689 236.382 25.235C237.713 25.5677 239.061 25.9338 240.425 26.3331C241.823 26.6992 243.17 27.1318 244.468 27.6309C245.799 28.1301 246.981 28.7457 248.012 29.4778C249.077 30.2099 249.926 31.125 250.558 32.2232C251.19 33.2881 251.506 34.6025 251.506 36.1666C251.506 38.6291 250.891 40.6424 249.659 42.2064C248.428 43.7371 246.731 44.8519 244.568 45.5508C242.438 46.2496 239.992 46.599 237.23 46.599Z" fill="white"/>
<rect x="1.38655" y="68.6346" width="327.227" height="53.3824" rx="26.6912" stroke="#F15268" stroke-width="2.77311"/>
<path d="M31.3949 68.1614C30.2788 68.1614 29.3402 67.7809 28.5792 67.0199C27.8182 66.2589 27.4377 65.3203 27.4377 64.2042C27.4377 63.0373 27.8182 62.0988 28.5792 61.3885C29.3402 60.6275 30.2788 60.247 31.3949 60.247C32.5618 60.247 33.5004 60.6275 34.2107 61.3885C34.9717 62.0988 35.3522 63.0373 35.3522 64.2042C35.3522 65.3203 34.9717 66.2589 34.2107 67.0199C33.5004 67.7809 32.5618 68.1614 31.3949 68.1614ZM23.2522 113.67C21.8824 113.67 20.7155 113.061 19.7516 111.843C18.8384 110.626 18.3818 108.799 18.3818 106.364C18.3818 105.248 18.534 103.929 18.8384 102.407C19.1428 100.834 19.4979 99.5656 19.9038 98.6016L24.7742 87.2627C25.0279 86.7046 25.2815 85.969 25.5352 85.0558C25.8396 84.1425 25.9918 83.3815 25.9918 82.7727C25.9918 82.0625 25.8396 81.479 25.5352 81.0224C25.2815 80.5658 24.8757 80.3375 24.3176 80.3375C22.5926 80.3375 20.9184 81.6566 19.295 84.2947C17.7222 86.9329 16.3778 89.774 15.2616 92.818L13.7396 92.3614C15.1094 88.3027 16.7836 84.9036 18.7623 82.1639C20.7409 79.4243 22.8717 78.0545 25.1547 78.0545C26.4738 78.0545 27.5899 78.6887 28.5031 79.957C29.4671 81.2254 29.949 83.0264 29.949 85.3602C29.949 86.4763 29.7968 87.8461 29.4924 89.4696C29.188 91.0423 28.8329 92.2599 28.427 93.1224L23.5566 104.461C23.3029 105.019 23.0239 105.755 22.7195 106.668C22.4658 107.582 22.339 108.343 22.339 108.951C22.339 109.662 22.4912 110.245 22.7956 110.702C23.1 111.158 23.5312 111.387 24.0893 111.387C25.8142 111.387 27.4631 110.067 29.0358 107.429C30.6086 104.791 31.953 101.95 33.0692 98.906L34.5912 99.3627C33.2214 103.472 31.5471 106.897 29.5685 109.636C27.6407 112.325 25.5352 113.67 23.2522 113.67ZM66.7805 113.67C65.4107 113.67 64.2438 113.061 63.2799 111.843C62.3667 110.626 61.9101 108.799 61.9101 106.364C61.9101 105.248 62.0623 103.929 62.3667 102.407C62.6711 100.834 63.0262 99.5656 63.4321 98.6016L68.3025 87.2627C68.5562 86.7046 68.8099 85.969 69.0635 85.0558C69.3679 84.1425 69.5201 83.3815 69.5201 82.7727C69.5201 82.0625 69.3679 81.479 69.0635 81.0224C68.8099 80.5658 68.404 80.3375 67.8459 80.3375C64.8019 80.3375 61.5803 83.204 58.1811 88.9369C56.1518 92.3868 54.3254 95.8113 52.7019 99.2105C51.1292 102.61 50.013 105.451 49.3535 107.734L47.8315 112.756H42.8088L49.2013 89.1652C49.9623 86.1212 50.3428 83.965 50.3428 82.6966C50.3428 81.9864 50.2413 81.479 50.0384 81.1746C49.8355 80.8195 49.4549 80.6419 48.8969 80.6419C47.4763 80.6419 46.0304 81.8342 44.5591 84.2186C43.1386 86.5524 41.8449 89.4188 40.678 92.818L39.156 92.3614C42.5044 82.8235 46.2334 78.0545 50.3428 78.0545C53.2853 78.0545 54.7566 80.6419 54.7566 85.8168C54.7566 86.8314 54.503 88.4042 53.9956 90.535C53.539 92.6151 53.1331 94.1117 52.778 95.0249L53.0063 95.2532L54.0717 93.3507C56.304 89.0383 58.5616 85.4109 60.8447 82.4683C63.1784 79.5258 65.7405 78.0545 68.5308 78.0545C70.0528 78.0545 71.2451 78.6887 72.1075 79.957C73.0207 81.1746 73.4774 82.9757 73.4774 85.3602C73.4774 86.4763 73.3251 87.8461 73.0207 89.4696C72.7163 91.0423 72.3612 92.2599 71.9553 93.1224L67.0849 104.461C66.8312 105.019 66.5522 105.755 66.2478 106.668C65.9941 107.582 65.8673 108.343 65.8673 108.951C65.8673 109.662 66.0195 110.245 66.3239 110.702C66.6283 111.158 67.0595 111.387 67.6176 111.387C69.3426 111.387 70.9914 110.067 72.5641 107.429C74.1369 104.791 75.4813 101.95 76.5975 98.906L78.1195 99.3627C76.7497 103.472 75.0755 106.897 73.0968 109.636C71.169 112.325 69.0635 113.67 66.7805 113.67ZM91.6856 113.67C88.9967 113.67 86.8913 112.731 85.3692 110.854C83.898 108.926 83.1623 106.389 83.1623 103.244C83.1623 100.2 83.7204 97.2065 84.8365 94.2639C86.0034 91.2706 87.2464 88.7339 88.5655 86.6539C90.2397 83.965 92.2183 81.8595 94.5013 80.3375C96.8351 78.8155 99.1688 78.0545 101.503 78.0545C103.025 78.0545 104.394 78.6379 105.612 79.8048C106.83 80.9717 107.641 82.6205 108.047 84.7513L108.352 84.9036L114.516 62.0734L114.592 61.5407C114.592 60.7797 114.161 60.3992 113.298 60.3992H106.601L107.134 58.5728H120.604L108.58 102.939C107.87 105.78 107.515 107.81 107.515 109.027C107.515 109.738 107.616 110.27 107.819 110.626C108.022 110.93 108.377 111.082 108.884 111.082C110.254 111.082 111.675 109.941 113.146 107.658C114.668 105.375 116.012 102.457 117.179 98.906L118.701 99.3627C117.281 103.32 115.632 106.694 113.755 109.484C111.928 112.274 109.848 113.67 107.515 113.67C104.572 113.67 103.101 111.082 103.101 105.907C103.101 105.248 103.101 104.766 103.101 104.461C103.151 104.106 103.177 103.903 103.177 103.853L102.948 103.7C101.883 105.983 100.31 108.216 98.2302 110.397C96.2009 112.579 94.0193 113.67 91.6856 113.67ZM92.1422 111.843C94.0193 111.843 95.8204 110.905 97.5453 109.027C99.2703 107.1 100.868 104.537 102.34 101.341C103.354 99.0583 104.242 96.5216 105.003 93.7312C105.764 90.9409 106.145 88.6578 106.145 86.8822C106.145 84.6499 105.688 82.9249 104.775 81.7073C103.862 80.4897 102.619 79.8809 101.046 79.8809C99.4732 79.8809 97.9766 80.7434 96.556 82.4683C95.1355 84.1933 93.9179 86.1719 92.9032 88.4042C91.6349 91.2453 90.5948 94.2639 89.7831 97.4601C89.0221 100.656 88.6416 103.599 88.6416 106.288C88.6416 107.81 88.8952 109.129 89.4026 110.245C89.9606 111.31 90.8739 111.843 92.1422 111.843ZM132.648 113.67C131.126 113.67 129.909 113.061 128.996 111.843C128.133 110.575 127.702 108.748 127.702 106.364C127.702 105.248 127.854 103.903 128.159 102.331C128.463 100.707 128.818 99.4641 129.224 98.6016L134.094 87.2627C134.348 86.7046 134.602 85.969 134.855 85.0558C135.16 84.1425 135.312 83.3815 135.312 82.7727C135.312 82.0625 135.16 81.479 134.855 81.0224C134.551 80.5658 134.12 80.3375 133.562 80.3375C131.837 80.3375 130.188 81.6566 128.615 84.2947C127.042 86.9329 125.698 89.774 124.582 92.818L123.06 92.3614C124.43 88.252 126.078 84.8528 128.006 82.1639C129.985 79.4243 132.116 78.0545 134.399 78.0545C135.769 78.0545 136.91 78.6633 137.823 79.8809C138.787 81.0985 139.269 82.9249 139.269 85.3602C139.269 86.4763 139.117 87.8207 138.813 89.3935C138.508 90.9155 138.153 92.1585 137.747 93.1224L132.877 104.461C132.623 105.019 132.344 105.755 132.04 106.668C131.786 107.582 131.659 108.343 131.659 108.951C131.659 109.662 131.786 110.245 132.04 110.702C132.344 111.158 132.775 111.387 133.333 111.387C136.377 111.387 139.599 108.52 142.998 102.787C145.028 99.3373 146.829 95.9128 148.401 92.5136C150.025 89.1144 151.166 86.2734 151.826 83.9903L153.348 78.9677H158.37L151.978 102.559C151.217 105.603 150.837 107.759 150.837 109.027C150.837 109.738 150.938 110.27 151.141 110.626C151.344 110.93 151.724 111.082 152.282 111.082C153.703 111.082 155.124 109.915 156.544 107.582C158.015 105.197 159.334 102.305 160.501 98.906L162.023 99.3627C158.675 108.901 154.946 113.67 150.837 113.67C147.894 113.67 146.423 111.082 146.423 105.907C146.423 104.893 146.651 103.345 147.108 101.265C147.615 99.1344 148.046 97.6123 148.401 96.6991L148.173 96.4708L147.108 98.3733C144.875 102.686 142.592 106.313 140.259 109.256C137.976 112.198 135.439 113.67 132.648 113.67ZM176.427 113.67C174.093 113.67 172.114 113.238 170.491 112.376C168.918 111.513 167.726 110.397 166.914 109.027C166.102 107.658 165.696 106.212 165.696 104.69C165.696 103.523 166.051 102.407 166.762 101.341C167.472 100.225 168.512 99.6671 169.882 99.6671C170.643 99.6671 171.302 99.9461 171.86 100.504C172.419 101.011 172.698 101.722 172.698 102.635C172.698 103.903 172.165 104.715 171.099 105.07C170.491 105.273 170.009 105.552 169.654 105.907C169.298 106.262 169.121 106.846 169.121 107.658C169.121 109.129 169.958 110.194 171.632 110.854C173.357 111.513 175.107 111.843 176.883 111.843C179.572 111.843 181.627 111.234 183.047 110.017C184.468 108.799 185.178 107.277 185.178 105.451C185.178 104.436 184.975 103.497 184.569 102.635C184.163 101.722 183.555 100.961 182.743 100.352L176.427 95.5576C174.042 94.0356 172.85 91.7272 172.85 88.6325C172.85 86.4002 173.408 84.4977 174.524 82.9249C175.691 81.3015 177.162 80.0839 178.938 79.2721C180.764 78.4604 182.641 78.0545 184.569 78.0545C186.599 78.0545 188.324 78.5618 189.744 79.5765C191.215 80.5405 192.306 81.7073 193.016 83.0771C193.777 84.3962 194.158 85.5631 194.158 86.5778C194.158 87.7446 193.828 88.7593 193.169 89.6218C192.509 90.4843 191.52 90.9155 190.201 90.9155C189.44 90.9155 188.729 90.6618 188.07 90.1545C187.461 89.5964 187.157 88.9115 187.157 88.0998C187.157 87.1358 187.486 86.3748 188.146 85.8168C188.349 85.6138 188.704 85.3602 189.211 85.0558C189.82 84.7006 190.125 84.2947 190.125 83.8381C190.125 82.6713 189.465 81.7327 188.146 81.0224C186.878 80.2614 185.533 79.8809 184.113 79.8809C182.083 79.8809 180.308 80.4644 178.786 81.6312C177.264 82.7981 176.503 84.4216 176.503 86.5017C176.503 87.77 176.655 88.6578 176.959 89.1652C177.314 89.6725 177.898 90.2052 178.71 90.7633L185.787 96.0903C186.903 96.9021 187.791 97.7899 188.45 98.7538C189.11 99.6671 189.44 100.885 189.44 102.407C189.44 104.284 188.907 106.085 187.842 107.81C186.827 109.535 185.33 110.955 183.352 112.071C181.373 113.137 179.065 113.67 176.427 113.67ZM205.415 113.67C203.741 113.67 202.371 113.111 201.305 111.995C200.291 110.828 199.783 109.256 199.783 107.277C199.783 105.349 200.062 103.269 200.621 101.037L206.1 81.0985H200.849L201.382 78.9677H206.709L211.655 60.7036H216.678L211.731 78.9677H220.331L219.798 81.0985H211.122L204.806 104.537C204.654 105.045 204.502 105.755 204.349 106.668C204.248 107.531 204.197 108.241 204.197 108.799C204.197 109.256 204.375 109.738 204.73 110.245C205.085 110.752 205.643 111.006 206.404 111.006C207.064 111.006 207.723 110.803 208.383 110.397C209.55 109.585 210.539 108.216 211.351 106.288C212.213 104.309 213.05 101.849 213.862 98.906L215.384 99.3627C214.369 103.675 213.101 107.15 211.579 109.788C210.057 112.376 208.002 113.67 205.415 113.67ZM232.987 89.1652C233.748 86.1212 234.129 83.965 234.129 82.6966C234.129 81.9864 234.027 81.479 233.824 81.1746C233.621 80.8195 233.241 80.6419 232.683 80.6419C231.262 80.6419 229.816 81.8595 228.345 84.2947C226.874 86.6792 225.58 89.5203 224.464 92.818L222.942 92.3614C226.29 82.8235 230.019 78.0545 234.129 78.0545C237.071 78.0545 238.542 80.6419 238.542 85.8168C238.542 86.4763 238.466 87.2627 238.314 88.1759C238.162 89.0383 238.01 89.7233 237.857 90.2306L238.39 90.3828C240.115 86.7807 241.84 83.8381 243.565 81.5551C245.29 79.2214 247.116 78.0545 249.044 78.0545C250.718 78.0545 251.987 78.5872 252.849 79.6526C253.712 80.6673 254.143 81.8849 254.143 83.3054C254.143 84.6245 253.712 85.8168 252.849 86.8822C251.987 87.8968 250.845 88.4042 249.425 88.4042C248.562 88.4042 247.852 88.0998 247.294 87.491C246.736 86.8822 246.457 86.1212 246.457 85.208C246.457 84.2947 246.761 83.483 247.37 82.7727C247.877 82.2654 248.131 81.8849 248.131 81.6312C248.131 81.3268 248.055 81.0985 247.903 80.9463C247.801 80.7941 247.548 80.718 247.142 80.718C245.975 80.718 244.453 82.3161 242.576 85.5124C240.749 88.6578 238.948 92.4121 237.173 96.7752C235.397 101.088 234.027 104.842 233.063 108.038L231.617 112.756H226.595L232.987 89.1652ZM273.297 68.1614C272.18 68.1614 271.242 67.7809 270.481 67.0199C269.72 66.2589 269.339 65.3203 269.339 64.2042C269.339 63.0373 269.72 62.0988 270.481 61.3885C271.242 60.6275 272.18 60.247 273.297 60.247C274.463 60.247 275.402 60.6275 276.112 61.3885C276.873 62.0988 277.254 63.0373 277.254 64.2042C277.254 65.3203 276.873 66.2589 276.112 67.0199C275.402 67.7809 274.463 68.1614 273.297 68.1614ZM265.154 113.67C263.784 113.67 262.617 113.061 261.653 111.843C260.74 110.626 260.283 108.799 260.283 106.364C260.283 105.248 260.436 103.929 260.74 102.407C261.044 100.834 261.399 99.5656 261.805 98.6016L266.676 87.2627C266.929 86.7046 267.183 85.969 267.437 85.0558C267.741 84.1425 267.893 83.3815 267.893 82.7727C267.893 82.0625 267.741 81.479 267.437 81.0224C267.183 80.5658 266.777 80.3375 266.219 80.3375C264.494 80.3375 262.82 81.6566 261.197 84.2947C259.624 86.9329 258.279 89.774 257.163 92.818L255.641 92.3614C257.011 88.3027 258.685 84.9036 260.664 82.1639C262.642 79.4243 264.773 78.0545 267.056 78.0545C268.375 78.0545 269.492 78.6887 270.405 79.957C271.369 81.2254 271.851 83.0264 271.851 85.3602C271.851 86.4763 271.698 87.8461 271.394 89.4696C271.09 91.0423 270.734 92.2599 270.329 93.1224L265.458 104.461C265.205 105.019 264.925 105.755 264.621 106.668C264.367 107.582 264.241 108.343 264.241 108.951C264.241 109.662 264.393 110.245 264.697 110.702C265.002 111.158 265.433 111.387 265.991 111.387C267.716 111.387 269.365 110.067 270.937 107.429C272.51 104.791 273.855 101.95 274.971 98.906L276.493 99.3627C275.123 103.472 273.449 106.897 271.47 109.636C269.542 112.325 267.437 113.67 265.154 113.67ZM290.037 113.67C287.349 113.67 285.243 112.731 283.721 110.854C282.25 108.926 281.514 106.389 281.514 103.244C281.514 100.149 281.971 97.1811 282.884 94.34C283.797 91.4482 284.837 89.0891 286.004 87.2627C287.78 84.4723 289.835 82.24 292.168 80.5658C294.553 78.8916 296.963 78.0545 299.398 78.0545C300.971 78.0545 302.391 78.6126 303.659 79.7287C304.928 80.7941 305.841 82.4683 306.399 84.7513L306.703 84.9036L308.378 78.9677H313.4L306.932 102.939C306.222 105.78 305.866 107.81 305.866 109.027C305.866 109.738 305.968 110.27 306.171 110.626C306.374 110.93 306.729 111.082 307.236 111.082C308.606 111.082 310.027 109.966 311.498 107.734C312.969 105.451 314.314 102.508 315.531 98.906L317.053 99.3627C315.734 103.269 314.111 106.643 312.183 109.484C310.306 112.274 308.2 113.67 305.866 113.67C302.924 113.67 301.453 111.082 301.453 105.907C301.453 105.248 301.453 104.766 301.453 104.461C301.503 104.106 301.529 103.903 301.529 103.853L301.3 103.7C300.235 105.983 298.662 108.216 296.582 110.397C294.553 112.579 292.371 113.67 290.037 113.67ZM290.494 111.843C292.371 111.843 294.172 110.905 295.897 109.027C297.622 107.1 299.22 104.537 300.692 101.341C301.706 99.0583 302.594 96.5216 303.355 93.7312C304.116 90.9409 304.497 88.6578 304.497 86.8822C304.497 84.6499 304.04 82.9249 303.127 81.7073C302.214 80.4897 300.971 79.8809 299.398 79.8809C297.825 79.8809 296.328 80.7434 294.908 82.4683C293.487 84.1933 292.27 86.1719 291.255 88.4042C289.987 91.2453 288.947 94.2639 288.135 97.4601C287.374 100.656 286.993 103.599 286.993 106.288C286.993 107.81 287.247 109.129 287.754 110.245C288.313 111.31 289.226 111.843 290.494 111.843Z" fill="white"/>
</svg>
