<svg width="247" height="140" viewBox="0 0 247 140" fill="none" xmlns="http://www.w3.org/2000/svg">
<path d="M53.5323 46.599C50.0382 46.599 47.0599 45.9834 44.5973 44.7521C42.1681 43.4876 40.3046 41.5408 39.0068 38.9119C37.7089 36.283 37.06 32.9387 37.06 28.8788C37.06 22.8889 38.5076 18.4464 41.4027 15.5513C44.3311 12.6229 48.391 11.1587 53.5822 11.1587C56.4441 11.1587 59.0064 11.6412 61.2693 12.6062C63.5654 13.5713 65.3624 15.0188 66.6602 16.9489C67.9913 18.8457 68.6568 21.275 68.6568 24.2366H62.9664C62.9664 22.4064 62.5837 20.8756 61.8183 19.6444C61.053 18.4131 59.9548 17.4813 58.5239 16.8491C57.1262 16.2168 55.4957 15.9007 53.6321 15.9007C51.3027 15.9007 49.3227 16.3666 47.6921 17.2983C46.0948 18.1968 44.8802 19.5612 44.0483 21.3914C43.2496 23.2217 42.8503 25.5511 42.8503 28.3797V29.4778C42.8503 32.3064 43.2496 34.6358 44.0483 36.466C44.8802 38.2963 46.0948 39.6607 47.6921 40.5592C49.2894 41.4244 51.2694 41.857 53.6321 41.857C55.5622 41.857 57.2427 41.5575 58.6736 40.9585C60.1046 40.3262 61.2027 39.3945 61.9681 38.1632C62.7668 36.9319 63.1661 35.4012 63.1661 33.5709H68.6568C68.6568 36.5326 67.9913 38.9785 66.6602 40.9086C65.3624 42.8387 63.5654 44.2696 61.2693 45.2013C59.0064 46.1331 56.4274 46.599 53.5323 46.599ZM71.1331 46L84.5605 11.7576H91.6985L105.176 46H99.1859L96.141 38.0634H79.9183L76.8735 46H71.1331ZM81.7153 33.3213H94.2941L90.4506 23.2882C90.3508 22.9887 90.201 22.5728 90.0014 22.0403C89.8017 21.5079 89.5854 20.9255 89.3525 20.2933C89.1528 19.661 88.9365 19.0287 88.7036 18.3965C88.5039 17.7309 88.3209 17.1319 88.1545 16.5995H87.855C87.6553 17.2318 87.4057 17.9805 87.1062 18.8457C86.8068 19.7109 86.5073 20.5429 86.2078 21.3415C85.9415 22.1402 85.7086 22.7891 85.5089 23.2882L81.7153 33.3213ZM122.263 46.599C120.399 46.599 118.602 46.3993 116.872 46C115.141 45.6339 113.611 45.035 112.279 44.203C110.948 43.3378 109.9 42.2563 109.135 40.9585C108.369 39.6274 107.987 38.0467 107.987 36.2165C107.987 36.0168 107.987 35.8338 107.987 35.6674C108.02 35.4677 108.037 35.3013 108.037 35.1682H113.627C113.627 35.2681 113.611 35.4178 113.577 35.6175C113.577 35.8171 113.577 35.9835 113.577 36.1166C113.577 37.3479 113.943 38.3961 114.675 39.2613C115.408 40.1266 116.423 40.7755 117.72 41.2081C119.051 41.6407 120.566 41.857 122.263 41.857C123.194 41.857 124.093 41.8071 124.958 41.7072C125.823 41.5741 126.605 41.3911 127.304 41.1582C128.036 40.8919 128.669 40.5758 129.201 40.2097C129.733 39.8104 130.149 39.3445 130.449 38.8121C130.748 38.2797 130.898 37.664 130.898 36.9652C130.898 35.9003 130.582 35.0185 129.95 34.3197C129.351 33.6208 128.519 33.0385 127.454 32.5726C126.422 32.1067 125.241 31.6908 123.91 31.3247C122.612 30.9587 121.264 30.5926 119.867 30.2266C118.469 29.8605 117.105 29.4279 115.774 28.9287C114.476 28.4296 113.294 27.8306 112.23 27.1318C111.198 26.3997 110.366 25.5012 109.734 24.4363C109.135 23.3382 108.835 22.0071 108.835 20.443C108.835 18.9455 109.151 17.6145 109.784 16.4497C110.416 15.285 111.331 14.32 112.529 13.5546C113.727 12.756 115.158 12.157 116.822 11.7576C118.486 11.3583 120.366 11.1587 122.462 11.1587C124.259 11.1587 125.956 11.3583 127.554 11.7576C129.151 12.1237 130.549 12.706 131.747 13.5047C132.945 14.3034 133.876 15.3183 134.542 16.5496C135.241 17.7808 135.59 19.245 135.59 20.9422V21.5412H130.05V20.8923C130.05 19.8274 129.733 18.9289 129.101 18.1968C128.469 17.4647 127.587 16.899 126.456 16.4997C125.324 16.1003 124.01 15.9007 122.512 15.9007C120.749 15.9007 119.268 16.0837 118.07 16.4497C116.872 16.7825 115.957 17.265 115.324 17.8973C114.725 18.4963 114.426 19.2284 114.426 20.0936C114.426 21.0587 114.742 21.8573 115.374 22.4896C116.007 23.0886 116.838 23.6044 117.87 24.037C118.935 24.4696 120.116 24.8689 121.414 25.235C122.745 25.5677 124.093 25.9338 125.457 26.3331C126.855 26.6992 128.203 27.1318 129.5 27.6309C130.832 28.1301 132.013 28.7457 133.045 29.4778C134.109 30.2099 134.958 31.125 135.59 32.2232C136.223 33.2881 136.539 34.6025 136.539 36.1666C136.539 38.6291 135.923 40.6424 134.692 42.2064C133.46 43.7371 131.763 44.8519 129.6 45.5508C127.471 46.2496 125.025 46.599 122.263 46.599ZM158.548 46.599C155.02 46.599 151.959 45.9501 149.363 44.6523C146.801 43.3545 144.821 41.3911 143.423 38.7622C142.059 36.1333 141.377 32.8388 141.377 28.8788C141.377 24.8855 142.059 21.5911 143.423 18.9955C144.821 16.3666 146.801 14.4032 149.363 13.1054C151.959 11.8076 155.02 11.1587 158.548 11.1587C162.142 11.1587 165.22 11.8076 167.782 13.1054C170.345 14.4032 172.308 16.3666 173.672 18.9955C175.07 21.5911 175.769 24.8855 175.769 28.8788C175.769 32.8388 175.07 36.1333 173.672 38.7622C172.308 41.3911 170.345 43.3545 167.782 44.6523C165.22 45.9501 162.142 46.599 158.548 46.599ZM158.548 41.857C160.378 41.857 161.992 41.6074 163.39 41.1082C164.82 40.6091 166.018 39.8437 166.983 38.8121C167.982 37.7805 168.731 36.4827 169.23 34.9187C169.762 33.3546 170.028 31.541 170.028 29.4778V28.3797C170.028 26.2499 169.762 24.403 169.23 22.839C168.731 21.275 167.982 19.9771 166.983 18.9455C166.018 17.9139 164.82 17.1486 163.39 16.6494C161.992 16.1503 160.378 15.9007 158.548 15.9007C156.751 15.9007 155.137 16.1503 153.706 16.6494C152.308 17.1486 151.11 17.9139 150.112 18.9455C149.147 19.9771 148.415 21.275 147.916 22.839C147.416 24.403 147.167 26.2499 147.167 28.3797V29.4778C147.167 31.541 147.416 33.3546 147.916 34.9187C148.415 36.4827 149.147 37.7805 150.112 38.8121C151.11 39.8437 152.308 40.6091 153.706 41.1082C155.137 41.6074 156.751 41.857 158.548 41.857ZM194.894 46.599C193.031 46.599 191.234 46.3993 189.503 46C187.773 45.6339 186.242 45.035 184.911 44.203C183.58 43.3378 182.532 42.2563 181.766 40.9585C181.001 39.6274 180.618 38.0467 180.618 36.2165C180.618 36.0168 180.618 35.8338 180.618 35.6674C180.652 35.4677 180.668 35.3013 180.668 35.1682H186.259C186.259 35.2681 186.242 35.4178 186.209 35.6175C186.209 35.8171 186.209 35.9835 186.209 36.1166C186.209 37.3479 186.575 38.3961 187.307 39.2613C188.039 40.1266 189.054 40.7755 190.352 41.2081C191.683 41.6407 193.197 41.857 194.894 41.857C195.826 41.857 196.725 41.8071 197.59 41.7072C198.455 41.5741 199.237 41.3911 199.936 41.1582C200.668 40.8919 201.3 40.5758 201.833 40.2097C202.365 39.8104 202.781 39.3445 203.081 38.8121C203.38 38.2797 203.53 37.664 203.53 36.9652C203.53 35.9003 203.214 35.0185 202.581 34.3197C201.982 33.6208 201.15 33.0385 200.086 32.5726C199.054 32.1067 197.873 31.6908 196.542 31.3247C195.244 30.9587 193.896 30.5926 192.498 30.2266C191.101 29.8605 189.736 29.4279 188.405 28.9287C187.107 28.4296 185.926 27.8306 184.861 27.1318C183.83 26.3997 182.998 25.5012 182.365 24.4363C181.766 23.3382 181.467 22.0071 181.467 20.443C181.467 18.9455 181.783 17.6145 182.415 16.4497C183.048 15.285 183.963 14.32 185.161 13.5546C186.359 12.756 187.79 12.157 189.453 11.7576C191.117 11.3583 192.998 11.1587 195.094 11.1587C196.891 11.1587 198.588 11.3583 200.185 11.7576C201.783 12.1237 203.18 12.706 204.378 13.5047C205.576 14.3034 206.508 15.3183 207.174 16.5496C207.872 17.7808 208.222 19.245 208.222 20.9422V21.5412H202.681V20.8923C202.681 19.8274 202.365 18.9289 201.733 18.1968C201.101 17.4647 200.219 16.899 199.087 16.4997C197.956 16.1003 196.641 15.9007 195.144 15.9007C193.38 15.9007 191.899 16.0837 190.701 16.4497C189.503 16.7825 188.588 17.265 187.956 17.8973C187.357 18.4963 187.058 19.2284 187.058 20.0936C187.058 21.0587 187.374 21.8573 188.006 22.4896C188.638 23.0886 189.47 23.6044 190.502 24.037C191.567 24.4696 192.748 24.8689 194.046 25.235C195.377 25.5677 196.725 25.9338 198.089 26.3331C199.487 26.6992 200.834 27.1318 202.132 27.6309C203.463 28.1301 204.645 28.7457 205.676 29.4778C206.741 30.2099 207.59 31.125 208.222 32.2232C208.854 33.2881 209.17 34.6025 209.17 36.1666C209.17 38.6291 208.555 40.6424 207.323 42.2064C206.092 43.7371 204.395 44.8519 202.232 45.5508C200.102 46.2496 197.656 46.599 194.894 46.599Z" fill="white"/>
<rect x="1.38655" y="68.6344" width="244.034" height="53.3824" rx="26.6912" stroke="#52E7F1" stroke-width="2.77311"/>
<path d="M46.5273 113.67C44.1935 113.67 42.2149 113.238 40.5914 112.376C39.0187 111.513 37.8265 110.397 37.0147 109.027C36.203 107.658 35.7971 106.212 35.7971 104.69C35.7971 103.523 36.1523 102.407 36.8625 101.341C37.5728 100.225 38.6128 99.6671 39.9826 99.6671C40.7437 99.6671 41.4032 99.9461 41.9613 100.504C42.5193 101.011 42.7984 101.722 42.7984 102.635C42.7984 103.903 42.2657 104.715 41.2003 105.07C40.5914 105.273 40.1095 105.552 39.7543 105.907C39.3992 106.262 39.2216 106.846 39.2216 107.658C39.2216 109.129 40.0587 110.194 41.733 110.854C43.4579 111.513 45.2082 111.843 46.9839 111.843C49.6728 111.843 51.7275 111.234 53.148 110.017C54.5686 108.799 55.2789 107.277 55.2789 105.451C55.2789 104.436 55.0759 103.497 54.67 102.635C54.2642 101.722 53.6554 100.961 52.8436 100.352L46.5273 95.5576C44.1428 94.0356 42.9506 91.7272 42.9506 88.6325C42.9506 86.4002 43.5086 84.4977 44.6248 82.9249C45.7917 81.3015 47.2629 80.0839 49.0386 79.2721C50.865 78.4604 52.7422 78.0545 54.67 78.0545C56.6994 78.0545 58.4243 78.5618 59.8449 79.5765C61.3162 80.5405 62.4069 81.7073 63.1172 83.0771C63.8782 84.3962 64.2587 85.5631 64.2587 86.5778C64.2587 87.7446 63.9289 88.7593 63.2694 89.6218C62.6099 90.4843 61.6206 90.9155 60.3015 90.9155C59.5405 90.9155 58.8302 90.6618 58.1707 90.1545C57.5619 89.5964 57.2575 88.9115 57.2575 88.0998C57.2575 87.1358 57.5872 86.3748 58.2468 85.8168C58.4497 85.6138 58.8048 85.3602 59.3122 85.0558C59.921 84.7006 60.2254 84.2947 60.2254 83.8381C60.2254 82.6713 59.5659 81.7327 58.2468 81.0224C56.9784 80.2614 55.634 79.8809 54.2134 79.8809C52.1841 79.8809 50.4084 80.4644 48.8864 81.6312C47.3644 82.7981 46.6034 84.4216 46.6034 86.5017C46.6034 87.77 46.7556 88.6578 47.06 89.1652C47.4151 89.6725 47.9986 90.2052 48.8103 90.7633L55.8877 96.0903C57.0038 96.9021 57.8916 97.7899 58.5512 98.7538C59.2107 99.6671 59.5405 100.885 59.5405 102.407C59.5405 104.284 59.0078 106.085 57.9424 107.81C56.9277 109.535 55.4311 110.955 53.4524 112.071C51.4738 113.137 49.1654 113.67 46.5273 113.67ZM77.6465 113.67C74.9576 113.67 72.8521 112.731 71.3301 110.854C69.8588 108.926 69.1232 106.389 69.1232 103.244C69.1232 100.149 69.5798 97.1811 70.493 94.34C71.4062 91.4482 72.4463 89.0891 73.6131 87.2627C75.3888 84.4723 77.4435 82.24 79.7773 80.5658C82.1618 78.8916 84.5716 78.0545 87.0068 78.0545C88.5796 78.0545 90.0001 78.6126 91.2685 79.7287C92.5368 80.7941 93.45 82.4683 94.0081 84.7513L94.3125 84.9036L95.9867 78.9677H101.009L94.5408 102.939C93.8305 105.78 93.4754 107.81 93.4754 109.027C93.4754 109.738 93.5768 110.27 93.7798 110.626C93.9827 110.93 94.3378 111.082 94.8452 111.082C96.215 111.082 97.6355 109.966 99.1068 107.734C100.578 105.451 101.923 102.508 103.14 98.906L104.662 99.3627C103.343 103.269 101.72 106.643 99.7917 109.484C97.9146 112.274 95.8091 113.67 93.4754 113.67C90.5328 113.67 89.0615 111.082 89.0615 105.907C89.0615 105.248 89.0615 104.766 89.0615 104.461C89.1123 104.106 89.1376 103.903 89.1376 103.853L88.9093 103.7C87.8439 105.983 86.2712 108.216 84.1911 110.397C82.1618 112.579 79.9802 113.67 77.6465 113.67ZM78.1031 111.843C79.9802 111.843 81.7813 110.905 83.5062 109.027C85.2312 107.1 86.8293 104.537 88.3005 101.341C89.3152 99.0583 90.2031 96.5216 90.9641 93.7312C91.7251 90.9409 92.1056 88.6578 92.1056 86.8822C92.1056 84.6499 91.649 82.9249 90.7358 81.7073C89.8225 80.4897 88.5796 79.8809 87.0068 79.8809C85.4341 79.8809 83.9374 80.7434 82.5169 82.4683C81.0964 84.1933 79.8787 86.1719 78.8641 88.4042C77.5957 91.2453 76.5557 94.2639 75.744 97.4601C74.9829 100.656 74.6024 103.599 74.6024 106.288C74.6024 107.81 74.8561 109.129 75.3634 110.245C75.9215 111.31 76.8347 111.843 78.1031 111.843ZM115.25 113.67C112.308 113.67 110.836 111.082 110.836 105.907C110.836 104.893 111.09 103.371 111.597 101.341L122.404 62.0734C122.505 61.6675 122.556 61.4139 122.556 61.3124C122.556 60.7036 122.099 60.3992 121.186 60.3992H114.489L115.022 58.5728H128.34L116.468 102.254C115.656 105.501 115.25 107.759 115.25 109.027C115.25 109.738 115.352 110.27 115.555 110.626C115.758 110.93 116.138 111.082 116.696 111.082C118.117 111.082 119.537 109.915 120.958 107.582C122.429 105.197 123.748 102.305 124.915 98.906L126.437 99.3627C125.067 103.218 123.494 106.567 121.719 109.408C119.943 112.249 117.787 113.67 115.25 113.67ZM141.127 113.67C139.605 113.67 138.388 113.061 137.475 111.843C136.612 110.575 136.181 108.748 136.181 106.364C136.181 105.248 136.333 103.903 136.637 102.331C136.942 100.707 137.297 99.4641 137.703 98.6016L142.573 87.2627C142.827 86.7046 143.081 85.969 143.334 85.0558C143.639 84.1425 143.791 83.3815 143.791 82.7727C143.791 82.0625 143.639 81.479 143.334 81.0224C143.03 80.5658 142.599 80.3375 142.041 80.3375C140.316 80.3375 138.667 81.6566 137.094 84.2947C135.521 86.9329 134.177 89.774 133.061 92.818L131.539 92.3614C132.909 88.252 134.557 84.8528 136.485 82.1639C138.464 79.4243 140.595 78.0545 142.878 78.0545C144.248 78.0545 145.389 78.6633 146.302 79.8809C147.266 81.0985 147.748 82.9249 147.748 85.3602C147.748 86.4763 147.596 87.8207 147.292 89.3935C146.987 90.9155 146.632 92.1585 146.226 93.1224L141.356 104.461C141.102 105.019 140.823 105.755 140.519 106.668C140.265 107.582 140.138 108.343 140.138 108.951C140.138 109.662 140.265 110.245 140.519 110.702C140.823 111.158 141.254 111.387 141.812 111.387C144.856 111.387 148.078 108.52 151.477 102.787C153.506 99.3373 155.307 95.9128 156.88 92.5136C158.504 89.1144 159.645 86.2734 160.305 83.9903L161.827 78.9677H166.849L160.457 102.559C159.696 105.603 159.315 107.759 159.315 109.027C159.315 109.738 159.417 110.27 159.62 110.626C159.823 110.93 160.203 111.082 160.761 111.082C162.182 111.082 163.602 109.915 165.023 107.582C166.494 105.197 167.813 102.305 168.98 98.906L170.502 99.3627C167.154 108.901 163.425 113.67 159.315 113.67C156.373 113.67 154.902 111.082 154.902 105.907C154.902 104.893 155.13 103.345 155.586 101.265C156.094 99.1344 156.525 97.6123 156.88 96.6991L156.652 96.4708L155.586 98.3733C153.354 102.686 151.071 106.313 148.737 109.256C146.454 112.198 143.918 113.67 141.127 113.67ZM184.068 113.67C181.379 113.67 179.274 112.731 177.752 110.854C176.281 108.926 175.545 106.389 175.545 103.244C175.545 100.2 176.103 97.2065 177.219 94.2639C178.386 91.2706 179.629 88.7339 180.948 86.6539C182.622 83.965 184.601 81.8595 186.884 80.3375C189.218 78.8155 191.552 78.0545 193.885 78.0545C195.407 78.0545 196.777 78.6379 197.995 79.8048C199.212 80.9717 200.024 82.6205 200.43 84.7513L200.734 84.9036L206.898 62.0734L206.975 61.5407C206.975 60.7797 206.543 60.3992 205.681 60.3992H198.984L199.517 58.5728H212.987L200.963 102.939C200.252 105.78 199.897 107.81 199.897 109.027C199.897 109.738 199.999 110.27 200.202 110.626C200.405 110.93 200.76 111.082 201.267 111.082C202.637 111.082 204.057 109.941 205.529 107.658C207.051 105.375 208.395 102.457 209.562 98.906L211.084 99.3627C209.663 103.32 208.015 106.694 206.137 109.484C204.311 112.274 202.231 113.67 199.897 113.67C196.955 113.67 195.483 111.082 195.483 105.907C195.483 105.248 195.483 104.766 195.483 104.461C195.534 104.106 195.559 103.903 195.559 103.853L195.331 103.7C194.266 105.983 192.693 108.216 190.613 110.397C188.584 112.579 186.402 113.67 184.068 113.67ZM184.525 111.843C186.402 111.843 188.203 110.905 189.928 109.027C191.653 107.1 193.251 104.537 194.722 101.341C195.737 99.0583 196.625 96.5216 197.386 93.7312C198.147 90.9409 198.527 88.6578 198.527 86.8822C198.527 84.6499 198.071 82.9249 197.158 81.7073C196.244 80.4897 195.001 79.8809 193.429 79.8809C191.856 79.8809 190.359 80.7434 188.939 82.4683C187.518 84.1933 186.301 86.1719 185.286 88.4042C184.018 91.2453 182.978 94.2639 182.166 97.4601C181.405 100.656 181.024 103.599 181.024 106.288C181.024 107.81 181.278 109.129 181.785 110.245C182.343 111.31 183.257 111.843 184.525 111.843Z" fill="white"/>
</svg>
