<svg width="24" height="24" viewBox="0 0 24 24" fill="none" xmlns="http://www.w3.org/2000/svg">
<g clip-path="url(#clip0_1101_187)">
<path d="M20.4861 20.4853C25.1724 15.799 25.1724 8.20101 20.4861 3.51472C15.7998 -1.17157 8.20185 -1.17157 3.51555 3.51472C-1.17074 8.20101 -1.17074 15.799 3.51555 20.4853C8.20185 25.1716 15.7998 25.1716 20.4861 20.4853Z" fill="white"/>
<path d="M15.5619 17.6901H16.8574L8.49855 6.24569H7.10887L15.5619 17.6887V17.6901ZM16.3822 4.87402H18.7195L13.6139 10.9163L19.6201 19.138H14.9177L11.2336 14.1515L7.01881 19.138H4.68005L10.1418 12.6745L4.37939 4.87402H9.20239L12.5318 9.43239L16.3822 4.87402Z" fill="black"/>
</g>
<defs>
<clipPath id="clip0_1101_187">
<rect width="24" height="24" fill="white"/>
</clipPath>
</defs>
</svg>
